<mxfile host="app.diagrams.net" agent="Mozilla/5.0 (Windows NT 10.0; Win64; x64; rv:141.0) Gecko/20100101 Firefox/141.0" version="28.0.7">
  <diagram name="Page-1" id="v2_whoBkfPdep4VBesZI">
    <mxGraphModel dx="3092" dy="2152" grid="1" gridSize="10" guides="1" tooltips="1" connect="1" arrows="1" fold="1" page="1" pageScale="1" pageWidth="850" pageHeight="1100" math="0" shadow="0">
      <root>
        <mxCell id="0" />
        <mxCell id="1" parent="0" />
        <mxCell id="7Mr0FkpDf2ZOhA75nSAg-60" value="" style="rounded=0;whiteSpace=wrap;html=1;color=red;" vertex="1" parent="1">
          <mxGeometry x="-20" y="-490" width="790" height="420" as="geometry" />
        </mxCell>
        <mxCell id="A8HuUgFNBGQ7eRud8v6M-3" style="edgeStyle=none;curved=1;rounded=0;orthogonalLoop=1;jettySize=auto;html=1;fontSize=12;startSize=8;endSize=8;" parent="1" source="A8HuUgFNBGQ7eRud8v6M-1" target="A8HuUgFNBGQ7eRud8v6M-2" edge="1">
          <mxGeometry relative="1" as="geometry" />
        </mxCell>
        <mxCell id="A8HuUgFNBGQ7eRud8v6M-4" value="&lt;div&gt;recognition system&lt;/div&gt;&lt;div&gt;to react&lt;/div&gt;" style="edgeLabel;html=1;align=center;verticalAlign=middle;resizable=0;points=[];fontSize=12;" parent="A8HuUgFNBGQ7eRud8v6M-3" vertex="1" connectable="0">
          <mxGeometry x="-0.159" y="2" relative="1" as="geometry">
            <mxPoint as="offset" />
          </mxGeometry>
        </mxCell>
        <mxCell id="A8HuUgFNBGQ7eRud8v6M-6" style="edgeStyle=none;curved=1;rounded=0;orthogonalLoop=1;jettySize=auto;html=1;entryX=0.5;entryY=1;entryDx=0;entryDy=0;fontSize=12;startSize=8;endSize=8;" parent="1" source="A8HuUgFNBGQ7eRud8v6M-1" target="A8HuUgFNBGQ7eRud8v6M-5" edge="1">
          <mxGeometry relative="1" as="geometry" />
        </mxCell>
        <mxCell id="A8HuUgFNBGQ7eRud8v6M-16" style="edgeStyle=none;curved=1;rounded=0;orthogonalLoop=1;jettySize=auto;html=1;entryX=0.5;entryY=0;entryDx=0;entryDy=0;fontSize=12;startSize=8;endSize=8;" parent="1" source="A8HuUgFNBGQ7eRud8v6M-1" target="A8HuUgFNBGQ7eRud8v6M-14" edge="1">
          <mxGeometry relative="1" as="geometry" />
        </mxCell>
        <mxCell id="A8HuUgFNBGQ7eRud8v6M-18" value="&lt;div&gt;gained from&amp;nbsp;&lt;/div&gt;&lt;div&gt;someone else&lt;/div&gt;" style="edgeLabel;html=1;align=center;verticalAlign=middle;resizable=0;points=[];fontSize=12;" parent="A8HuUgFNBGQ7eRud8v6M-16" vertex="1" connectable="0">
          <mxGeometry x="-0.2278" y="-1" relative="1" as="geometry">
            <mxPoint as="offset" />
          </mxGeometry>
        </mxCell>
        <mxCell id="A8HuUgFNBGQ7eRud8v6M-1" value="Immunity" style="rounded=0;whiteSpace=wrap;html=1;" parent="1" vertex="1">
          <mxGeometry x="90" y="300" width="120" height="60" as="geometry" />
        </mxCell>
        <mxCell id="mSTmqn3cuCYTXXYq5UbM-9" style="edgeStyle=none;curved=1;rounded=0;orthogonalLoop=1;jettySize=auto;html=1;entryX=0;entryY=0.5;entryDx=0;entryDy=0;fontSize=12;startSize=8;endSize=8;" parent="1" source="A8HuUgFNBGQ7eRud8v6M-2" target="mSTmqn3cuCYTXXYq5UbM-8" edge="1">
          <mxGeometry relative="1" as="geometry" />
        </mxCell>
        <mxCell id="mSTmqn3cuCYTXXYq5UbM-10" value="&lt;div&gt;specific part of antigen&amp;nbsp;&lt;/div&gt;&lt;div&gt;recognized&lt;/div&gt;" style="edgeLabel;html=1;align=center;verticalAlign=middle;resizable=0;points=[];fontSize=12;" parent="mSTmqn3cuCYTXXYq5UbM-9" vertex="1" connectable="0">
          <mxGeometry x="-0.0235" y="1" relative="1" as="geometry">
            <mxPoint as="offset" />
          </mxGeometry>
        </mxCell>
        <mxCell id="mSTmqn3cuCYTXXYq5UbM-15" style="edgeStyle=none;curved=1;rounded=0;orthogonalLoop=1;jettySize=auto;html=1;fontSize=12;startSize=8;endSize=8;" parent="1" source="A8HuUgFNBGQ7eRud8v6M-2" target="mSTmqn3cuCYTXXYq5UbM-14" edge="1">
          <mxGeometry relative="1" as="geometry" />
        </mxCell>
        <mxCell id="mSTmqn3cuCYTXXYq5UbM-16" value="&lt;div&gt;thing that contains&amp;nbsp;&lt;/div&gt;&lt;div&gt;the epitope&lt;/div&gt;" style="edgeLabel;html=1;align=center;verticalAlign=middle;resizable=0;points=[];fontSize=12;" parent="mSTmqn3cuCYTXXYq5UbM-15" vertex="1" connectable="0">
          <mxGeometry x="-0.0762" y="-3" relative="1" as="geometry">
            <mxPoint as="offset" />
          </mxGeometry>
        </mxCell>
        <mxCell id="A8HuUgFNBGQ7eRud8v6M-2" value="Non-self" style="rounded=0;whiteSpace=wrap;html=1;" parent="1" vertex="1">
          <mxGeometry x="370" y="300" width="120" height="60" as="geometry" />
        </mxCell>
        <mxCell id="A8HuUgFNBGQ7eRud8v6M-9" style="edgeStyle=none;curved=1;rounded=0;orthogonalLoop=1;jettySize=auto;html=1;fontSize=12;startSize=8;endSize=8;" parent="1" source="A8HuUgFNBGQ7eRud8v6M-5" target="A8HuUgFNBGQ7eRud8v6M-7" edge="1">
          <mxGeometry relative="1" as="geometry" />
        </mxCell>
        <mxCell id="A8HuUgFNBGQ7eRud8v6M-11" value="forgien" style="edgeLabel;html=1;align=center;verticalAlign=middle;resizable=0;points=[];fontSize=12;" parent="A8HuUgFNBGQ7eRud8v6M-9" vertex="1" connectable="0">
          <mxGeometry x="-0.0482" y="-4" relative="1" as="geometry">
            <mxPoint x="1" as="offset" />
          </mxGeometry>
        </mxCell>
        <mxCell id="A8HuUgFNBGQ7eRud8v6M-10" style="edgeStyle=none;curved=1;rounded=0;orthogonalLoop=1;jettySize=auto;html=1;fontSize=12;startSize=8;endSize=8;" parent="1" source="A8HuUgFNBGQ7eRud8v6M-5" target="A8HuUgFNBGQ7eRud8v6M-8" edge="1">
          <mxGeometry relative="1" as="geometry" />
        </mxCell>
        <mxCell id="A8HuUgFNBGQ7eRud8v6M-12" value="&lt;div&gt;self&lt;/div&gt;" style="edgeLabel;html=1;align=center;verticalAlign=middle;resizable=0;points=[];fontSize=12;" parent="A8HuUgFNBGQ7eRud8v6M-10" vertex="1" connectable="0">
          <mxGeometry x="0.0714" y="2" relative="1" as="geometry">
            <mxPoint y="1" as="offset" />
          </mxGeometry>
        </mxCell>
        <mxCell id="A8HuUgFNBGQ7eRud8v6M-5" value="negative consequences" style="rounded=0;whiteSpace=wrap;html=1;" parent="1" vertex="1">
          <mxGeometry x="90" y="210" width="120" height="60" as="geometry" />
        </mxCell>
        <mxCell id="A8HuUgFNBGQ7eRud8v6M-7" value="Allergy" style="rounded=0;whiteSpace=wrap;html=1;" parent="1" vertex="1">
          <mxGeometry x="30" y="120" width="120" height="50" as="geometry" />
        </mxCell>
        <mxCell id="A8HuUgFNBGQ7eRud8v6M-8" value="Autoimmunity" style="rounded=0;whiteSpace=wrap;html=1;" parent="1" vertex="1">
          <mxGeometry x="170" y="120" width="100" height="50" as="geometry" />
        </mxCell>
        <mxCell id="A8HuUgFNBGQ7eRud8v6M-13" value="Active" style="rounded=0;whiteSpace=wrap;html=1;" parent="1" vertex="1">
          <mxGeometry x="10" y="420" width="120" height="60" as="geometry" />
        </mxCell>
        <mxCell id="A8HuUgFNBGQ7eRud8v6M-14" value="Passive" style="rounded=0;whiteSpace=wrap;html=1;" parent="1" vertex="1">
          <mxGeometry x="180" y="420" width="120" height="60" as="geometry" />
        </mxCell>
        <mxCell id="A8HuUgFNBGQ7eRud8v6M-15" style="edgeStyle=none;curved=1;rounded=0;orthogonalLoop=1;jettySize=auto;html=1;entryX=0.581;entryY=0.078;entryDx=0;entryDy=0;entryPerimeter=0;fontSize=12;startSize=8;endSize=8;" parent="1" source="A8HuUgFNBGQ7eRud8v6M-1" target="A8HuUgFNBGQ7eRud8v6M-13" edge="1">
          <mxGeometry relative="1" as="geometry" />
        </mxCell>
        <mxCell id="A8HuUgFNBGQ7eRud8v6M-17" value="&lt;div&gt;immune system&amp;nbsp;&lt;/div&gt;&lt;div&gt;provides&lt;/div&gt;" style="edgeLabel;html=1;align=center;verticalAlign=middle;resizable=0;points=[];fontSize=12;" parent="A8HuUgFNBGQ7eRud8v6M-15" vertex="1" connectable="0">
          <mxGeometry x="-0.2249" y="1" relative="1" as="geometry">
            <mxPoint as="offset" />
          </mxGeometry>
        </mxCell>
        <mxCell id="A8HuUgFNBGQ7eRud8v6M-20" style="edgeStyle=none;curved=1;rounded=0;orthogonalLoop=1;jettySize=auto;html=1;entryX=0;entryY=0.5;entryDx=0;entryDy=0;fontSize=12;startSize=8;endSize=8;" parent="1" source="A8HuUgFNBGQ7eRud8v6M-19" target="A8HuUgFNBGQ7eRud8v6M-13" edge="1">
          <mxGeometry relative="1" as="geometry" />
        </mxCell>
        <mxCell id="A8HuUgFNBGQ7eRud8v6M-19" value="slower but longer duration" style="rounded=0;whiteSpace=wrap;html=1;" parent="1" vertex="1">
          <mxGeometry x="-150" y="420" width="120" height="60" as="geometry" />
        </mxCell>
        <mxCell id="A8HuUgFNBGQ7eRud8v6M-22" style="edgeStyle=none;curved=1;rounded=0;orthogonalLoop=1;jettySize=auto;html=1;entryX=1;entryY=0.5;entryDx=0;entryDy=0;fontSize=12;startSize=8;endSize=8;" parent="1" source="A8HuUgFNBGQ7eRud8v6M-21" target="A8HuUgFNBGQ7eRud8v6M-14" edge="1">
          <mxGeometry relative="1" as="geometry" />
        </mxCell>
        <mxCell id="A8HuUgFNBGQ7eRud8v6M-21" value="Rapid protection but shorter duration" style="rounded=0;whiteSpace=wrap;html=1;" parent="1" vertex="1">
          <mxGeometry x="330" y="420" width="120" height="60" as="geometry" />
        </mxCell>
        <mxCell id="A8HuUgFNBGQ7eRud8v6M-30" style="edgeStyle=none;curved=1;rounded=0;orthogonalLoop=1;jettySize=auto;html=1;fontSize=12;startSize=8;endSize=8;" parent="1" source="A8HuUgFNBGQ7eRud8v6M-23" target="A8HuUgFNBGQ7eRud8v6M-29" edge="1">
          <mxGeometry relative="1" as="geometry" />
        </mxCell>
        <mxCell id="A8HuUgFNBGQ7eRud8v6M-41" style="edgeStyle=none;curved=1;rounded=0;orthogonalLoop=1;jettySize=auto;html=1;fontSize=12;startSize=8;endSize=8;" parent="1" source="A8HuUgFNBGQ7eRud8v6M-23" target="A8HuUgFNBGQ7eRud8v6M-34" edge="1">
          <mxGeometry relative="1" as="geometry" />
        </mxCell>
        <mxCell id="A8HuUgFNBGQ7eRud8v6M-55" style="edgeStyle=none;curved=1;rounded=0;orthogonalLoop=1;jettySize=auto;html=1;fontSize=12;startSize=8;endSize=8;" parent="1" source="A8HuUgFNBGQ7eRud8v6M-23" target="A8HuUgFNBGQ7eRud8v6M-54" edge="1">
          <mxGeometry relative="1" as="geometry" />
        </mxCell>
        <mxCell id="A8HuUgFNBGQ7eRud8v6M-23" value="Innate" style="rounded=0;whiteSpace=wrap;html=1;" parent="1" vertex="1">
          <mxGeometry x="-80" y="550" width="120" height="60" as="geometry" />
        </mxCell>
        <mxCell id="A8HuUgFNBGQ7eRud8v6M-31" style="edgeStyle=none;curved=1;rounded=0;orthogonalLoop=1;jettySize=auto;html=1;fontSize=12;startSize=8;endSize=8;" parent="1" source="A8HuUgFNBGQ7eRud8v6M-24" target="A8HuUgFNBGQ7eRud8v6M-29" edge="1">
          <mxGeometry relative="1" as="geometry" />
        </mxCell>
        <mxCell id="A8HuUgFNBGQ7eRud8v6M-33" style="edgeStyle=none;curved=1;rounded=0;orthogonalLoop=1;jettySize=auto;html=1;fontSize=12;startSize=8;endSize=8;" parent="1" source="A8HuUgFNBGQ7eRud8v6M-24" target="A8HuUgFNBGQ7eRud8v6M-32" edge="1">
          <mxGeometry relative="1" as="geometry" />
        </mxCell>
        <mxCell id="A8HuUgFNBGQ7eRud8v6M-43" style="edgeStyle=none;curved=1;rounded=0;orthogonalLoop=1;jettySize=auto;html=1;fontSize=12;startSize=8;endSize=8;" parent="1" source="A8HuUgFNBGQ7eRud8v6M-24" target="A8HuUgFNBGQ7eRud8v6M-40" edge="1">
          <mxGeometry relative="1" as="geometry" />
        </mxCell>
        <mxCell id="A8HuUgFNBGQ7eRud8v6M-24" value="Adaptive/accuired" style="rounded=0;whiteSpace=wrap;html=1;" parent="1" vertex="1">
          <mxGeometry x="120" y="550" width="120" height="60" as="geometry" />
        </mxCell>
        <mxCell id="A8HuUgFNBGQ7eRud8v6M-25" style="edgeStyle=none;curved=1;rounded=0;orthogonalLoop=1;jettySize=auto;html=1;entryX=0.602;entryY=0.046;entryDx=0;entryDy=0;entryPerimeter=0;fontSize=12;startSize=8;endSize=8;" parent="1" source="A8HuUgFNBGQ7eRud8v6M-13" target="A8HuUgFNBGQ7eRud8v6M-23" edge="1">
          <mxGeometry relative="1" as="geometry" />
        </mxCell>
        <mxCell id="A8HuUgFNBGQ7eRud8v6M-28" value="&lt;div&gt;do not change or&amp;nbsp;&lt;/div&gt;&lt;div&gt;adapt&lt;/div&gt;" style="edgeLabel;html=1;align=center;verticalAlign=middle;resizable=0;points=[];fontSize=12;" parent="A8HuUgFNBGQ7eRud8v6M-25" vertex="1" connectable="0">
          <mxGeometry x="-0.0887" y="3" relative="1" as="geometry">
            <mxPoint as="offset" />
          </mxGeometry>
        </mxCell>
        <mxCell id="A8HuUgFNBGQ7eRud8v6M-26" style="edgeStyle=none;curved=1;rounded=0;orthogonalLoop=1;jettySize=auto;html=1;entryX=0.457;entryY=-0.053;entryDx=0;entryDy=0;entryPerimeter=0;fontSize=12;startSize=8;endSize=8;" parent="1" source="A8HuUgFNBGQ7eRud8v6M-13" target="A8HuUgFNBGQ7eRud8v6M-24" edge="1">
          <mxGeometry relative="1" as="geometry" />
        </mxCell>
        <mxCell id="A8HuUgFNBGQ7eRud8v6M-27" value="&lt;div&gt;dynamic adapting to&amp;nbsp;&lt;/div&gt;&lt;div&gt;pathogen&lt;/div&gt;" style="edgeLabel;html=1;align=center;verticalAlign=middle;resizable=0;points=[];fontSize=12;" parent="A8HuUgFNBGQ7eRud8v6M-26" vertex="1" connectable="0">
          <mxGeometry x="-0.0332" y="1" relative="1" as="geometry">
            <mxPoint as="offset" />
          </mxGeometry>
        </mxCell>
        <mxCell id="A8HuUgFNBGQ7eRud8v6M-35" style="edgeStyle=none;curved=1;rounded=0;orthogonalLoop=1;jettySize=auto;html=1;entryX=0.5;entryY=0;entryDx=0;entryDy=0;fontSize=12;startSize=8;endSize=8;" parent="1" source="A8HuUgFNBGQ7eRud8v6M-29" target="A8HuUgFNBGQ7eRud8v6M-34" edge="1">
          <mxGeometry relative="1" as="geometry" />
        </mxCell>
        <mxCell id="A8HuUgFNBGQ7eRud8v6M-42" style="edgeStyle=none;curved=1;rounded=0;orthogonalLoop=1;jettySize=auto;html=1;fontSize=12;startSize=8;endSize=8;" parent="1" source="A8HuUgFNBGQ7eRud8v6M-29" target="A8HuUgFNBGQ7eRud8v6M-40" edge="1">
          <mxGeometry relative="1" as="geometry" />
        </mxCell>
        <mxCell id="A8HuUgFNBGQ7eRud8v6M-29" value="specificity" style="rounded=0;whiteSpace=wrap;html=1;" parent="1" vertex="1">
          <mxGeometry x="20" y="650" width="120" height="60" as="geometry" />
        </mxCell>
        <mxCell id="A8HuUgFNBGQ7eRud8v6M-53" style="edgeStyle=none;curved=1;rounded=0;orthogonalLoop=1;jettySize=auto;html=1;fontSize=12;startSize=8;endSize=8;" parent="1" source="A8HuUgFNBGQ7eRud8v6M-32" target="A8HuUgFNBGQ7eRud8v6M-52" edge="1">
          <mxGeometry relative="1" as="geometry" />
        </mxCell>
        <mxCell id="A8HuUgFNBGQ7eRud8v6M-32" value="Memory" style="rounded=0;whiteSpace=wrap;html=1;" parent="1" vertex="1">
          <mxGeometry x="210" y="650" width="120" height="60" as="geometry" />
        </mxCell>
        <mxCell id="A8HuUgFNBGQ7eRud8v6M-49" style="edgeStyle=none;curved=1;rounded=0;orthogonalLoop=1;jettySize=auto;html=1;fontSize=12;startSize=8;endSize=8;" parent="1" source="A8HuUgFNBGQ7eRud8v6M-34" target="A8HuUgFNBGQ7eRud8v6M-45" edge="1">
          <mxGeometry relative="1" as="geometry" />
        </mxCell>
        <mxCell id="A8HuUgFNBGQ7eRud8v6M-51" style="edgeStyle=none;curved=1;rounded=0;orthogonalLoop=1;jettySize=auto;html=1;fontSize=12;startSize=8;endSize=8;" parent="1" source="A8HuUgFNBGQ7eRud8v6M-34" target="A8HuUgFNBGQ7eRud8v6M-50" edge="1">
          <mxGeometry relative="1" as="geometry" />
        </mxCell>
        <mxCell id="A8HuUgFNBGQ7eRud8v6M-34" value="&lt;div&gt;pattern-recognition&lt;/div&gt;&lt;div&gt;receptor&lt;/div&gt;" style="rounded=0;whiteSpace=wrap;html=1;" parent="1" vertex="1">
          <mxGeometry x="-60" y="760" width="120" height="60" as="geometry" />
        </mxCell>
        <mxCell id="A8HuUgFNBGQ7eRud8v6M-47" style="edgeStyle=none;curved=1;rounded=0;orthogonalLoop=1;jettySize=auto;html=1;fontSize=12;startSize=8;endSize=8;" parent="1" source="A8HuUgFNBGQ7eRud8v6M-40" target="A8HuUgFNBGQ7eRud8v6M-44" edge="1">
          <mxGeometry relative="1" as="geometry" />
        </mxCell>
        <mxCell id="A8HuUgFNBGQ7eRud8v6M-48" style="edgeStyle=none;curved=1;rounded=0;orthogonalLoop=1;jettySize=auto;html=1;fontSize=12;startSize=8;endSize=8;" parent="1" source="A8HuUgFNBGQ7eRud8v6M-40" target="A8HuUgFNBGQ7eRud8v6M-46" edge="1">
          <mxGeometry relative="1" as="geometry" />
        </mxCell>
        <mxCell id="mSTmqn3cuCYTXXYq5UbM-47" style="edgeStyle=none;curved=1;rounded=0;orthogonalLoop=1;jettySize=auto;html=1;entryX=0.5;entryY=0;entryDx=0;entryDy=0;fontSize=12;startSize=8;endSize=8;" parent="1" source="A8HuUgFNBGQ7eRud8v6M-40" target="mSTmqn3cuCYTXXYq5UbM-45" edge="1">
          <mxGeometry relative="1" as="geometry">
            <Array as="points">
              <mxPoint x="120" y="880" />
            </Array>
          </mxGeometry>
        </mxCell>
        <mxCell id="A8HuUgFNBGQ7eRud8v6M-40" value="antigen receptors" style="rounded=0;whiteSpace=wrap;html=1;" parent="1" vertex="1">
          <mxGeometry x="110" y="760" width="120" height="60" as="geometry" />
        </mxCell>
        <mxCell id="A8HuUgFNBGQ7eRud8v6M-44" value="T Cell receptor" style="rounded=0;whiteSpace=wrap;html=1;" parent="1" vertex="1">
          <mxGeometry x="140" y="890" width="120" height="60" as="geometry" />
        </mxCell>
        <mxCell id="A8HuUgFNBGQ7eRud8v6M-73" style="edgeStyle=none;curved=1;rounded=0;orthogonalLoop=1;jettySize=auto;html=1;fontSize=12;startSize=8;endSize=8;" parent="1" source="A8HuUgFNBGQ7eRud8v6M-45" target="A8HuUgFNBGQ7eRud8v6M-72" edge="1">
          <mxGeometry relative="1" as="geometry" />
        </mxCell>
        <mxCell id="A8HuUgFNBGQ7eRud8v6M-74" value="recognize" style="edgeLabel;html=1;align=center;verticalAlign=middle;resizable=0;points=[];fontSize=12;" parent="A8HuUgFNBGQ7eRud8v6M-73" vertex="1" connectable="0">
          <mxGeometry x="-0.0567" y="2" relative="1" as="geometry">
            <mxPoint as="offset" />
          </mxGeometry>
        </mxCell>
        <mxCell id="A8HuUgFNBGQ7eRud8v6M-45" value="toll-like receptors, nod-like recepotors" style="rounded=0;whiteSpace=wrap;html=1;" parent="1" vertex="1">
          <mxGeometry x="-60" y="850" width="120" height="60" as="geometry" />
        </mxCell>
        <mxCell id="A8HuUgFNBGQ7eRud8v6M-46" value="B cell receptor" style="rounded=0;whiteSpace=wrap;html=1;" parent="1" vertex="1">
          <mxGeometry x="280" y="800" width="120" height="60" as="geometry" />
        </mxCell>
        <mxCell id="A8HuUgFNBGQ7eRud8v6M-50" value="complement protiens" style="rounded=0;whiteSpace=wrap;html=1;" parent="1" vertex="1">
          <mxGeometry x="-200" y="830" width="120" height="60" as="geometry" />
        </mxCell>
        <mxCell id="A8HuUgFNBGQ7eRud8v6M-52" value="memory T and B Cells" style="rounded=0;whiteSpace=wrap;html=1;" parent="1" vertex="1">
          <mxGeometry x="400" y="650" width="120" height="60" as="geometry" />
        </mxCell>
        <mxCell id="A8HuUgFNBGQ7eRud8v6M-59" style="edgeStyle=none;curved=1;rounded=0;orthogonalLoop=1;jettySize=auto;html=1;fontSize=12;startSize=8;endSize=8;" parent="1" source="A8HuUgFNBGQ7eRud8v6M-54" target="A8HuUgFNBGQ7eRud8v6M-58" edge="1">
          <mxGeometry relative="1" as="geometry" />
        </mxCell>
        <mxCell id="A8HuUgFNBGQ7eRud8v6M-60" style="edgeStyle=none;curved=1;rounded=0;orthogonalLoop=1;jettySize=auto;html=1;fontSize=12;startSize=8;endSize=8;" parent="1" source="A8HuUgFNBGQ7eRud8v6M-54" target="A8HuUgFNBGQ7eRud8v6M-57" edge="1">
          <mxGeometry relative="1" as="geometry" />
        </mxCell>
        <mxCell id="A8HuUgFNBGQ7eRud8v6M-61" style="edgeStyle=none;curved=1;rounded=0;orthogonalLoop=1;jettySize=auto;html=1;fontSize=12;startSize=8;endSize=8;" parent="1" source="A8HuUgFNBGQ7eRud8v6M-54" target="A8HuUgFNBGQ7eRud8v6M-56" edge="1">
          <mxGeometry relative="1" as="geometry" />
        </mxCell>
        <mxCell id="A8HuUgFNBGQ7eRud8v6M-54" value="domains" style="rounded=0;whiteSpace=wrap;html=1;" parent="1" vertex="1">
          <mxGeometry x="-250" y="550" width="120" height="60" as="geometry" />
        </mxCell>
        <mxCell id="A8HuUgFNBGQ7eRud8v6M-63" value="" style="edgeStyle=none;curved=1;rounded=0;orthogonalLoop=1;jettySize=auto;html=1;fontSize=12;startSize=8;endSize=8;" parent="1" source="A8HuUgFNBGQ7eRud8v6M-56" target="A8HuUgFNBGQ7eRud8v6M-62" edge="1">
          <mxGeometry relative="1" as="geometry" />
        </mxCell>
        <mxCell id="A8HuUgFNBGQ7eRud8v6M-64" value="ex" style="edgeLabel;html=1;align=center;verticalAlign=middle;resizable=0;points=[];fontSize=12;" parent="A8HuUgFNBGQ7eRud8v6M-63" vertex="1" connectable="0">
          <mxGeometry x="0.0377" y="1" relative="1" as="geometry">
            <mxPoint as="offset" />
          </mxGeometry>
        </mxCell>
        <mxCell id="A8HuUgFNBGQ7eRud8v6M-56" value="Mechanical/Physical" style="rounded=0;whiteSpace=wrap;html=1;" parent="1" vertex="1">
          <mxGeometry x="-390" y="430" width="120" height="60" as="geometry" />
        </mxCell>
        <mxCell id="A8HuUgFNBGQ7eRud8v6M-66" value="" style="edgeStyle=none;curved=1;rounded=0;orthogonalLoop=1;jettySize=auto;html=1;fontSize=12;startSize=8;endSize=8;" parent="1" source="A8HuUgFNBGQ7eRud8v6M-57" target="A8HuUgFNBGQ7eRud8v6M-65" edge="1">
          <mxGeometry relative="1" as="geometry" />
        </mxCell>
        <mxCell id="A8HuUgFNBGQ7eRud8v6M-68" value="Ex" style="edgeLabel;html=1;align=center;verticalAlign=middle;resizable=0;points=[];fontSize=12;" parent="A8HuUgFNBGQ7eRud8v6M-66" vertex="1" connectable="0">
          <mxGeometry x="-0.1287" y="-1" relative="1" as="geometry">
            <mxPoint as="offset" />
          </mxGeometry>
        </mxCell>
        <mxCell id="A8HuUgFNBGQ7eRud8v6M-57" value="Chemical" style="rounded=0;whiteSpace=wrap;html=1;" parent="1" vertex="1">
          <mxGeometry x="-420" y="550" width="120" height="60" as="geometry" />
        </mxCell>
        <mxCell id="A8HuUgFNBGQ7eRud8v6M-70" value="" style="edgeStyle=none;curved=1;rounded=0;orthogonalLoop=1;jettySize=auto;html=1;fontSize=12;startSize=8;endSize=8;" parent="1" source="A8HuUgFNBGQ7eRud8v6M-58" target="A8HuUgFNBGQ7eRud8v6M-69" edge="1">
          <mxGeometry relative="1" as="geometry" />
        </mxCell>
        <mxCell id="A8HuUgFNBGQ7eRud8v6M-71" value="Ex" style="edgeLabel;html=1;align=center;verticalAlign=middle;resizable=0;points=[];fontSize=12;" parent="A8HuUgFNBGQ7eRud8v6M-70" vertex="1" connectable="0">
          <mxGeometry x="-0.2076" relative="1" as="geometry">
            <mxPoint as="offset" />
          </mxGeometry>
        </mxCell>
        <mxCell id="mSTmqn3cuCYTXXYq5UbM-1" style="edgeStyle=none;curved=1;rounded=0;orthogonalLoop=1;jettySize=auto;html=1;entryX=0;entryY=0.25;entryDx=0;entryDy=0;fontSize=12;startSize=8;endSize=8;" parent="1" source="A8HuUgFNBGQ7eRud8v6M-58" target="A8HuUgFNBGQ7eRud8v6M-34" edge="1">
          <mxGeometry relative="1" as="geometry" />
        </mxCell>
        <mxCell id="A8HuUgFNBGQ7eRud8v6M-58" value="Immunological" style="rounded=0;whiteSpace=wrap;html=1;" parent="1" vertex="1">
          <mxGeometry x="-360" y="680" width="120" height="60" as="geometry" />
        </mxCell>
        <mxCell id="A8HuUgFNBGQ7eRud8v6M-62" value="Skin" style="rounded=0;whiteSpace=wrap;html=1;" parent="1" vertex="1">
          <mxGeometry x="-390" y="330" width="120" height="60" as="geometry" />
        </mxCell>
        <mxCell id="A8HuUgFNBGQ7eRud8v6M-65" value="pH" style="rounded=0;whiteSpace=wrap;html=1;" parent="1" vertex="1">
          <mxGeometry x="-600" y="550" width="120" height="60" as="geometry" />
        </mxCell>
        <mxCell id="A8HuUgFNBGQ7eRud8v6M-69" value="Enzymes" style="rounded=0;whiteSpace=wrap;html=1;" parent="1" vertex="1">
          <mxGeometry x="-520" y="680" width="120" height="60" as="geometry" />
        </mxCell>
        <mxCell id="A8HuUgFNBGQ7eRud8v6M-76" value="" style="edgeStyle=none;curved=1;rounded=0;orthogonalLoop=1;jettySize=auto;html=1;fontSize=12;startSize=8;endSize=8;" parent="1" source="A8HuUgFNBGQ7eRud8v6M-72" target="A8HuUgFNBGQ7eRud8v6M-75" edge="1">
          <mxGeometry relative="1" as="geometry" />
        </mxCell>
        <mxCell id="A8HuUgFNBGQ7eRud8v6M-77" value="activate" style="edgeLabel;html=1;align=center;verticalAlign=middle;resizable=0;points=[];fontSize=12;" parent="A8HuUgFNBGQ7eRud8v6M-76" vertex="1" connectable="0">
          <mxGeometry x="-0.2889" y="3" relative="1" as="geometry">
            <mxPoint as="offset" />
          </mxGeometry>
        </mxCell>
        <mxCell id="A8HuUgFNBGQ7eRud8v6M-72" value="PAMPs" style="rounded=0;whiteSpace=wrap;html=1;" parent="1" vertex="1">
          <mxGeometry x="-160" y="950" width="120" height="60" as="geometry" />
        </mxCell>
        <mxCell id="A8HuUgFNBGQ7eRud8v6M-79" style="edgeStyle=none;curved=1;rounded=0;orthogonalLoop=1;jettySize=auto;html=1;fontSize=12;startSize=8;endSize=8;" parent="1" source="A8HuUgFNBGQ7eRud8v6M-75" target="A8HuUgFNBGQ7eRud8v6M-78" edge="1">
          <mxGeometry relative="1" as="geometry" />
        </mxCell>
        <mxCell id="A8HuUgFNBGQ7eRud8v6M-81" style="edgeStyle=none;curved=1;rounded=0;orthogonalLoop=1;jettySize=auto;html=1;fontSize=12;startSize=8;endSize=8;" parent="1" source="A8HuUgFNBGQ7eRud8v6M-75" target="A8HuUgFNBGQ7eRud8v6M-80" edge="1">
          <mxGeometry relative="1" as="geometry" />
        </mxCell>
        <mxCell id="A8HuUgFNBGQ7eRud8v6M-83" style="edgeStyle=none;curved=1;rounded=0;orthogonalLoop=1;jettySize=auto;html=1;fontSize=12;startSize=8;endSize=8;" parent="1" source="A8HuUgFNBGQ7eRud8v6M-75" target="A8HuUgFNBGQ7eRud8v6M-82" edge="1">
          <mxGeometry relative="1" as="geometry" />
        </mxCell>
        <mxCell id="A8HuUgFNBGQ7eRud8v6M-75" value="pro-inflammatory or anti-viral signaling pathways" style="rounded=0;whiteSpace=wrap;html=1;" parent="1" vertex="1">
          <mxGeometry x="-160" y="1040" width="120" height="60" as="geometry" />
        </mxCell>
        <mxCell id="A8HuUgFNBGQ7eRud8v6M-78" value="Hallmarks: Redness, Heat, Swelling, Pain" style="rounded=0;whiteSpace=wrap;html=1;" parent="1" vertex="1">
          <mxGeometry x="-10" y="1040" width="120" height="60" as="geometry" />
        </mxCell>
        <mxCell id="A8HuUgFNBGQ7eRud8v6M-80" value="Cytokines: IL-1, TNF, Il-6, Il-12" style="rounded=0;whiteSpace=wrap;html=1;" parent="1" vertex="1">
          <mxGeometry x="-60" y="1140" width="120" height="60" as="geometry" />
        </mxCell>
        <mxCell id="A8HuUgFNBGQ7eRud8v6M-82" value="Recruit&#39;s: leukocytes &amp;amp; lymphocytes" style="rounded=0;whiteSpace=wrap;html=1;" parent="1" vertex="1">
          <mxGeometry x="-200" y="1140" width="120" height="60" as="geometry" />
        </mxCell>
        <mxCell id="mSTmqn3cuCYTXXYq5UbM-3" style="edgeStyle=none;curved=1;rounded=0;orthogonalLoop=1;jettySize=auto;html=1;entryX=1;entryY=0.5;entryDx=0;entryDy=0;fontSize=12;startSize=8;endSize=8;" parent="1" source="mSTmqn3cuCYTXXYq5UbM-2" target="A8HuUgFNBGQ7eRud8v6M-24" edge="1">
          <mxGeometry relative="1" as="geometry" />
        </mxCell>
        <mxCell id="mSTmqn3cuCYTXXYq5UbM-4" style="edgeStyle=none;curved=1;rounded=0;orthogonalLoop=1;jettySize=auto;html=1;entryX=0.5;entryY=0;entryDx=0;entryDy=0;fontSize=12;startSize=8;endSize=8;" parent="1" source="mSTmqn3cuCYTXXYq5UbM-2" target="A8HuUgFNBGQ7eRud8v6M-52" edge="1">
          <mxGeometry relative="1" as="geometry" />
        </mxCell>
        <mxCell id="mSTmqn3cuCYTXXYq5UbM-5" value="lymphocytes" style="edgeLabel;html=1;align=center;verticalAlign=middle;resizable=0;points=[];fontSize=12;" parent="mSTmqn3cuCYTXXYq5UbM-4" vertex="1" connectable="0">
          <mxGeometry x="-0.1184" y="-3" relative="1" as="geometry">
            <mxPoint as="offset" />
          </mxGeometry>
        </mxCell>
        <mxCell id="mSTmqn3cuCYTXXYq5UbM-24" style="edgeStyle=none;curved=1;rounded=0;orthogonalLoop=1;jettySize=auto;html=1;fontSize=12;startSize=8;endSize=8;" parent="1" source="mSTmqn3cuCYTXXYq5UbM-2" target="mSTmqn3cuCYTXXYq5UbM-23" edge="1">
          <mxGeometry relative="1" as="geometry" />
        </mxCell>
        <mxCell id="mSTmqn3cuCYTXXYq5UbM-2" value="for specific antigents" style="rounded=0;whiteSpace=wrap;html=1;" parent="1" vertex="1">
          <mxGeometry x="500" y="510" width="120" height="60" as="geometry" />
        </mxCell>
        <mxCell id="mSTmqn3cuCYTXXYq5UbM-7" style="edgeStyle=none;curved=1;rounded=0;orthogonalLoop=1;jettySize=auto;html=1;entryX=1;entryY=0.5;entryDx=0;entryDy=0;fontSize=12;startSize=8;endSize=8;" parent="1" source="mSTmqn3cuCYTXXYq5UbM-6" target="A8HuUgFNBGQ7eRud8v6M-8" edge="1">
          <mxGeometry relative="1" as="geometry" />
        </mxCell>
        <mxCell id="mSTmqn3cuCYTXXYq5UbM-12" style="edgeStyle=none;curved=1;rounded=0;orthogonalLoop=1;jettySize=auto;html=1;fontSize=12;startSize=8;endSize=8;" parent="1" source="mSTmqn3cuCYTXXYq5UbM-6" target="A8HuUgFNBGQ7eRud8v6M-2" edge="1">
          <mxGeometry relative="1" as="geometry" />
        </mxCell>
        <mxCell id="mSTmqn3cuCYTXXYq5UbM-13" value="&lt;div&gt;do not have&amp;nbsp;&lt;/div&gt;&lt;div&gt;tolrogen&lt;/div&gt;" style="edgeLabel;html=1;align=center;verticalAlign=middle;resizable=0;points=[];fontSize=12;" parent="mSTmqn3cuCYTXXYq5UbM-12" vertex="1" connectable="0">
          <mxGeometry x="-0.2158" y="3" relative="1" as="geometry">
            <mxPoint as="offset" />
          </mxGeometry>
        </mxCell>
        <mxCell id="mSTmqn3cuCYTXXYq5UbM-6" value="tolerogenic prevents" style="rounded=0;whiteSpace=wrap;html=1;" parent="1" vertex="1">
          <mxGeometry x="305" y="115" width="120" height="60" as="geometry" />
        </mxCell>
        <mxCell id="mSTmqn3cuCYTXXYq5UbM-8" value="Epitope" style="rounded=0;whiteSpace=wrap;html=1;" parent="1" vertex="1">
          <mxGeometry x="550" y="130" width="120" height="60" as="geometry" />
        </mxCell>
        <mxCell id="mSTmqn3cuCYTXXYq5UbM-14" value="antigen" style="rounded=0;whiteSpace=wrap;html=1;" parent="1" vertex="1">
          <mxGeometry x="590" y="210" width="120" height="60" as="geometry" />
        </mxCell>
        <mxCell id="mSTmqn3cuCYTXXYq5UbM-21" style="edgeStyle=none;curved=1;rounded=0;orthogonalLoop=1;jettySize=auto;html=1;fontSize=12;startSize=8;endSize=8;" parent="1" source="mSTmqn3cuCYTXXYq5UbM-20" target="A8HuUgFNBGQ7eRud8v6M-2" edge="1">
          <mxGeometry relative="1" as="geometry" />
        </mxCell>
        <mxCell id="mSTmqn3cuCYTXXYq5UbM-22" value="&lt;div&gt;likely hood of be marked&lt;/div&gt;&lt;div&gt;as a depends on the&amp;nbsp;&lt;/div&gt;&lt;div&gt;following&lt;/div&gt;" style="edgeLabel;html=1;align=center;verticalAlign=middle;resizable=0;points=[];fontSize=12;" parent="mSTmqn3cuCYTXXYq5UbM-21" vertex="1" connectable="0">
          <mxGeometry x="0.0599" y="-3" relative="1" as="geometry">
            <mxPoint as="offset" />
          </mxGeometry>
        </mxCell>
        <mxCell id="mSTmqn3cuCYTXXYq5UbM-20" value="" style="shape=image;verticalLabelPosition=bottom;labelBackgroundColor=default;verticalAlign=top;aspect=fixed;imageAspect=0;image=data:image/png,iVBORw0KGgoAAAANSUhEUgAAAtMAAAF7CAYAAAAQUwcvAAAgAElEQVR4Xu29fbBfVX3o/Y28lPIAV6Z6hU5Vwni4ngwZC1aozEg1+UdCZcagf8hB7lg700hMx5oYphXMjWinQtLOXEDT6WAtJGk7SMTaHKZaopfS26JPYfqEcpgeJ+Glmoz6lNzS6rFBc/f7XnvttfZee//2b//2y4e/9GTv9fJZa+312Wt/1/qtOuX9J/wHgZ4QOPHYvbLrwJOy8uqr5PoP3CBvvaAnBaeYJQRW5OjX98n+h5fkxVdfLgte2172KqBBYOQEfvqyHP8/K/L0//+fsvRvJ+XYSZHzzzlD5v/LmTL/c2fL6p99xcgBzaD6J38oBw7/Hzn0I5H5n/8v8sHXny1n0QwzaIhuZbkKme5Wg1AaCEAAAhCAAAQgAIH+EECm+9NWlBQCEIAABCAAAQhAoGMEkOmONQjFgQAEIAABCEAAAhDoDwFkuj9tRUkhAAEIQAACEIAABDpGAJnuWINQHAhAAAIQgAAEIACB/hBApvvTVpQUAhCAAAQgAAEIQKBjBJDpjjUIxYEABCAAAQhAAAIQ6A8BZLo/bUVJIQABCEAAAhCAAAQ6RgCZ7liDUBwIQAACEIAABCAAgf4QQKb701aUFAIQgAAEIAABCECgYwSQ6Y41CMWBAAQgAAEIQAACEOgPAWS6P21FSSEAAQhAAAIQgAAEOkYAme5Yg1AcCEAAAhCAAAQgAIH+EECm+9NWlBQCEIAABCAAAQhAoGMEkOmONQjFgQAEIAABCEAAAhDoDwFkuj9tRUkhAAEIQAACEIAABDpGAJnuWINQHAhAAAIQgAAEIACB/hBApvvTVpQUAhCAAAQgAAEIQKBjBJDpjjUIxYEABCAAAQhAAAIQ6A8BZLo/bUVJIQABCEAAAhCAAAQ6RgCZ7liDUBwIQAACEIAABCAAgf4QQKb701aUFAIQgAAEIAABCECgYwSQ6Y41CMWBAAQgAAEIQAACEOgPAWS6P21FSSEAAQhAAAIQgAAEOkYAme5Yg1AcCEAAAhCAAAQgAIH+EECm+9NWlBQCEIAABCAAAQhAoGMEkOmONQjFgQAEIAABCEAAAhDoDwFkuj9tRUkhAAEIQAACEIAABDpGYKYy/eCDD8of/uEfdgwJxYEABCAAAQhAAAIQ6AOBSy65RO6+++6ZFnWmMv2xz+2VXTe/f6YAyBwCEIAABCAAAQhAoJ8E1l7/a/L/ffHemRZ+pjK9f+l7svC/js0UAJlDYCwE3vKqs+RbP1gZS3WpJwRmRuCcM14h/37ypzPLn4whMCYCv/HfXil73vH6mVZ5pjL94LMvyXsOIdMz7QFkPhoCV776LHn8+8j0aBqcis6MwLmeTL+ETM+MPxmPi8Dm+VfK3W/9rzOtNDI9U/xkDoH2CCDT7bEmp3ETQKbH3f7Uvl0CyDQr0+32OHIbNQFketTNT+VbJIBMtwibrEZPAJlGpkc/CADQHgFkuj3W5DRuAsj0uNuf2rdLAJlGptvtceQ2agLI9Kibn8q3SACZbhE2WY2eADKNTI9+EACgPQLIdHusyWncBJDpcbc/tW+XADKNTLfb48ht1ASQ6VE3P5VvkQAy3SJssho9AWQamR79IABAewSQ6fZYDzOnc+XB910oG39W5Phzx+TCR14aZjUbqBUy3QBEklAIMPaKugMyjUzn+8cbfl6OXX2OXJD7l5flwKNH5Ppv84SBQD0CyHQJt7e8Xk6t/RnvIsaamRQTuuvIQ6ZNpNL+k//XH8vuzz8n21wBj+46xh4yXUCAH20xwLHKdHjtk4f/WS7/1sCeJEmdkZhptiwyjUxP1r+Y0F35IdNVZTq6/gcvyqq/+L4r5hFdx9hDppHpagNekelUnF8tT/za+XKZn9KP/l0W/vS7sr9aqt2+GplupX2QaWR6so7GhO7KD5kukemMNGdXrAe5YOTacazXMfaQaWS62jAyyrTIDesvln2vP91LK/4cZv5kln0Qxdf4K74vyeqrQyEP4x0liX9UC2i/31steEsYLxn8F0t98mnc/6N5ZTkte5yT8kkvc39aErUchff7t8RpeA/ohf84V+NUDf+Qr0ama8i00rdWHTs7CgMJ0zFO+np/TqShaCyGscel/dy7Ztd1l8jWV2XrkY9fVl6+1bGq3OaSl2hfyY4/96L87/96PjHTDg8JZNoESZmzcivQyr/pC0a5OcJtnknHRTwevHnn0ZOyEIVRpuPXMJcWlU+pWv4ZwNhzGB6NX0LMNDHT+U7lKNNPJHKdT6LwIeFd7j9ktsqrI+msfn/xSMjGvpkm//D+6LoSmS69X5XpTMGIwdPbCZmeQKaNt2Yn9bygqtJtfvmNJ/z6/TzMIy8OduF2yst7PiRfwwx1ZwNicV9CpqvKtGnByPSCGaebHXvmPh1fY+7L4TxZ0M8VobaNbb80xi/ISvXVscLYa9yjgwSRaWTaTabVFSJlRfgJeU6JnzZ9BlIncO1t3pPYuvdnHgjxA0eR4uThYgnfiO9PHjK2MA/X+1UhJ+bO+rRCpieU6aRvpROwUWKVPuj39XXH/Em7YCy69nPvuide/5JcrpyikYzFOM8krfRl0heB3fL98PQNx7xSeUifG6pQINPIdHUtKlqZ9lLLbQBOx5nxS2Wuz6svlX5erxb5lr9pXxXm7CJL0qczq+Hx9cqc6TJfMvaqd4mG7kCmkelCmc7/o9tKmOQ+LZuPsrK+bZfdnzz01AeT4cFnWXVO6pV7GOaFPzxdwfJfTuRZjS56NiHTk8i05YtLWR9OsiyIeXQdJ35atmtjGciEZhg+hzvmlZP0oB7EbbrO/axMm0hVlGmxnWwVpZ0LNbQ9/81S7qdiXykO8ygON4zKYZB6Y8gjY891+FS+DplGpt1lWosjK3wIlMlw2UOk7H5HmS76NBZUvEREnO83lqfyeBz8Dcj0FGW6tA/aRdS1nxdepz4fDJN2LAVuea1YzpNGpl0fEsh0dZnO7Qsqk8+oz0sc8mjdnG+T6aKj+rIy7Tbfml92GXuuo6b+dcg0Ml0o0/ZdzabPzMpbdpkMK/GQxniusvsry3TJirHl03N+06VlsJWKTP1BOqQ7kek2ZNp2vKOLTBeNE/OqnvkzdVRPQ3hYIh7JRuYq0oNMuz4PkOkq/cq/1rAB0fHc9/J5wkGmC8MDXedbpc6MPdeh0sh1yDQyPbFM5+OTlRVf62dZw8NFHfwNybR6GkA2xjLMX+Izsy2bLp3vR6adHkjI9BRlWt2wp8VML/xH9vScXLyx0v/t48QksoYjM/2x8AbvxIL4+Ex9bDjlpW78ImbaaXBpFyHTVWTadjSe0r8NR+ld9b3oVziNfTpMc/W3s5sM9QUq096AoOTBuJHoh2Qc50vGXp2h0sg9yDQyXVOmS2K9ymTYy9Xts5VlJcpxZdqvnD0fdQUv/7ktfug53Y9MOz2QkOlpyrT95AH9KErT5j2Xfu4U5mH7NK4Jvn68XkhGGZMlPx7FBsTivoRMl8i0BZ/er9xO0bDPM/qJHaVH2anlUsJGnOZLxp7TPDSNi5BpZLq2TGc+iwWpeJ+ID4ts9TfsOcj0RPdXkGm/ZPkHouFTuDZ5F2/8sG1UZANi0YMKmZ6uTBv7utNYDMvlMk6yk7o3Dg6vyFVrz5ELiiZ+wydsl7z0c6b9MbnrvPC8e2Qama4uRUUxygXP7oI9AGoZdOE1nbRjDp00lCsXf61fY5pvDVLP2KveTWrcgUwj0zW6DbdAoB4BZLoeN+6CQFUCrExXJcb1EKhPAJlGpuv3Hu6EQEUCyHRFYFwOgZoEkOma4LgNAjUIINPIdI1uwy0QqEcAma7HjbsgUJUAMl2VGNdDoD4BZBqZrt97uBMCFQkg0xWBcTkEahJApmuC4zYI1CCATCPTNboNt0CgHgFkuh437oJAVQLIdFViXA+B+gSQaWS6fu/hTghUJIBMVwTG5RCoSQCZrgmO2yBQgwAyjUzX6DbcAoF6BJDpety4CwJVCSDTVYlxPQTqE0Cmken6vYc7IVCRADJdERiXQ6AmAWS6Jjhug0ANAsg0Ml2j23ALBOoRQKbrceMuCFQlgExXJcb1EKhPAJlGpuv3Hu6EQEUCyHRFYFwOgZoEkOma4LgNAjUIINPIdEG3yf58aTs/3/tqeeLXzpfLvFKZf3a1Ri/nls4QQKY70xQUZOAEkOmBNzDV6xQBZBqZtnbIXdddIltfpfzzD16UVX/xfeP1N6y/WPa9/nTl334suz//nGyr3N2R6crIenRDP2VaeaksGAM9aoYeFrVOG6TPknYWArqFtbcy/Yafl2NXnyMXsKAyww5VY+y85fVyau3PeGV+WQ48ekSu//YMiz+DrJFpZNrS7dLJq2wiykl3nGIt8WhKpptKZwajcsBZItMDbtypVi0dz+L6XFGkTH2GJc8r13SmWq/pJY5MT4/t4FO2jJ2ieqcLaopMJ+kMX7CRaWR6Mpm2rCIEA+v/ecm6km0flE1JcFPpDP6x2WoFkelWcZOZgQAy3fFuwcp0xxuoQvGQ6QqwJr901Snvv8mTqZfCg2OUaeVhlVBTV2lM/2775Ob44EveWn/077Lwp9+V/UHGJuFV/3ZMjr7hQtn4s1EpM/dm7w+uiP/dUv5kdcr471pYSvzJyudy7Ozo81VYDmMsd/KJKyqrvuql//tIP4UNR6bjLzf+iosX+vQWQz/NtLm+MhP3c7/f/VDWRfsEgt4T9Z1s6JSlf4r6d9PXJIdyao/O/Jcm06qSslKs3a+uApeGfzmPM/uXMj2PNH/9+ZLdA5IU239ufPsM2Wf8RN3fl/JBrUyX9hOtbW3PX+vzvPj+6vOXfVxnhkvZXBxfnJs/4n9Qx6ahf2sc4nr4Y2SrN/+moZm255M+3+l5KPclZYyeSZYyP3lYmdct5Uvm8npaN5O7WJkem0xbB2W5jJo3BGYnVVtISPWHkWU8JIPPPJkH+T93bhJzp6YSlk3kwfcp4pPJRhGTIk6aCOeFISvdtn8fY2zZ8GS6ynNbFV+7jFpTVF8m9YkruKlIpsvGU/Z+09Xp+C8ue/wMsIZ/qS8AzuPMLNPmPOIJvoJM/+lJ2Ra90GSeYUbOVdp8dtcOUqYr4DS3o3sCxpfCCotBppycy2Qc66YU8309d5UirPa5yL/L/HwqHfdxWZ1l+p9l13nxHquyxQD39pr1lcj0qGTaHHeoDrB04LjHTItpQnR64yxemVYHdzppRg8PiTeppIPRr8du+b4nzC9548q+orTruteL/IWyOdL0KUqtk0HgTatfaiynX951x/5ZLv+WuRwJ84HHbeoPuGHKdLo6k5G7uG2VvmSemOI+bD49xxiLWEum03KmaWbHT7hSpa5SKc8MfdJUJvy43vmvP9kVr9x1zuPM8DwyxnX6171a5Fv+Bijz2LOFeZhe+PscEjJYmY7HVWZVN+5nyhiyCWmN++stBqVjK+lHSZnc5+LcmEnmNsN4Nsq+adyLmL7Ump5P8d+sMdFvEdnqf202PZOsYR6GsdnzkBBkekwy7dCxU0msINPaqlgiUMrArvMwyqyE6+EkL6Y7vs0rvEWfZy2fe72CJ3laVqRyk2vZA8AScmJiNOs36zbyH6JMl69kloUz+S9dIX3jOCl82Stb2bGMY0OapZIZr1zFY6NIpgtXnL2K5l40smEs+bIY6lG6alxNpiXHpL8hHsF3hjNeIS+d/Gkbw7rZPEyhg84vj5YxNOH9E89fev4V5mIXmbZ/BQqbJifEGek2PSPyfb/0xbKSTIvo6ZkZN9u1ppkaMj0mmbZOPsWfh8tO89A7qDqwiwexu2SkE51JeNMSFL1Zh1cVf6KuLNNlE3qZVOTiwKc53GefNjIdi3PJFwu1X7Qi0wUvz7k+bhtD5hUwY69rQKbLJ9+KMq2EyQSyn+yVqHvM52zHGzKt7M/pmkxXmYttc0jyjLAvDsU9cHKZdlhcqyjT6Rft7L6Tqr4x21GW5o5Mj1Km7ZsN6q9Mq106ncTi9CZ+sy/a6Kiu/ho+o2VWuJMBb/6UXV+mLUf/GPPryvBvvxzIdPdlWj96LhcSYvzaku3/pjASY29z/QJkiAcvz6OqTCurmt4q/IHnTpONfthLT0OxkOk+yHT5XGyMc7asLJf1VfM87LIy7XDOe1WZVha2jj/373Ls9ed4P9bW3yP0kOkxybS6KmvclGDeGVz4phgMIMn+QIshRtQUb2Vawc6uHBtiztRPzW84mZ4MUrB6VvYZ3hgz7jzJm2Pf/Lot/Ie/4fGs5Bcdsw+68OF01ff8a/wY73H8h0w3LdOGT7heVyp9KTasdhtjIg3PDPVEAGvftZ5TG44XORxxcB5nVWKmL5TV37bvV8jHr5oXAvRVvb6NUGR6CjKtyF7Z/GVexInntLKYaT0GvFgyzWPX67Ha/FxfptUXTf0cae8kHP8H2gpl2nwKVu5FocdfapHpUcm0OiAMU0NmBcbhs46XROHuYIfj9vITlttJAcZNj35iSp56HFkoGIrcGhBUXpkuYJBblS/Kr28zdc3yItMNyXRJuFIdmS4OgTL9EEO+E6gCYY/jLDhOK0rSKWbau9aWR1gOS8yz/tlcm8CzafYzxMPHiEw3J9NqmKHp0VcaXmgQTde5036d4+lApXuXXFam/Vrb5mb9KDzzPg7jy6n2lauvIR5+3ZDpkcl00KENMVj5Y+/cZNpPzjTYXc5i9q85dGH4k+X5h1H5OZ25iTT3OdZybJ/+mdq7b7ecny2H84pZ+IjIMSg9Z9pyXnVNSe3Lbch0UzLttbhhIorPjq0n04GC5Y+O1GSz+HgtW7hH3EO1FTbncWZ/HplfmstO9AmfO8F/+mqY+nzsaYgHMu2F59Q6StKygdEwbxbPX9rz3RYjXToXl8RD28I94uFmG7s1NiCGSepCXf5irD+nsm6g1q+/IR7ItEdglD/a0hfzopyDI9BPmR5cM0xQoXTyy06K/T75IgPE8YeoJoDYyq29XZluhU5PMkn6osuPNvWkTloxi8Ou+lMnVqbHuDLdn/5JSQdGAJnue4OWnRzQ37CIuGXSle5+1wWZ7vtY88pfdrRqj7+cBK1j3VvRv7ZDppHp/vVaStxbAsh0b5tOKbhFqHu8eSitXP4kor62GDLd15bTym0R6j7HF8c1LD+Rpz9tiEwj0/3prZS09wSQ6d43IRXoCQFkuicNRTEHQQCZRqYH0ZGpRD8IINP9aCdK2X8CyHT/25Aa9IcAMo1M96e3UtLeE0Cme9+EVKAnBJDpnjQUxRwEAWQamR5ER6YS/SCATPejnShl/wkg0/1vQ2rQHwLINDLdn95KSXtPAJnufRNSgZ4QQKZ70lAUcxAEkGlkehAdmUr0gwAy3Y92opT9J4BM978NqUF/CCDTyHR/eisl7T0BZLr3TUgFekIAme5JQ1HMQRBAppHpQXRkKtEPAsh0P9qJUvafADLd/zakBv0hMHqZ/tjn9squ//df+tNilBQCPSZw8blnyJGXTva4BhQdAv0gcNZpr5CVn/y0H4WllBDoOYH1F54tf/2p35xpLVad8v6bVQk++Yf3yY5N/31W2ZMvBCAAAQhAAAIQgECPCWxY+DU5uPfemdZgpjL9Z3/2Z/Kd73xnpgDIHAJjIXDaaafJT37yk7FUl3pCYGYEVq1aJTNcp5pZvckYArMgcOaZZ8qWLVtmkXWS50xlemVlRU6cODFTAGQOgbEQOOOMM+TkScI8xtLe1HN2BJDp2bEn5/EROPvss+W8886bacWR6ZniJ3MItEcAmW6PNTmNmwAyPe72p/btEkCmWZlut8eR26gJINOjbn4q3yIBZLpF2GQ1egLINDI9+kEAgPYIINPtsSancRNApsfd/tS+XQLINDLdbo8jt1ETQKZH3fxUvkUCyHSLsMlq9ASQaWR69IMAAO0RQKbbY01O4yaATI+7/al9uwSQaWS63R5HbqMmgEyPuvmpfIsEkGkd9rLsvOJqWXzXo/L4bXPttMQXb5QLtyzLpq8/Ljve6GWp/39jKcJy7pFN8ug3d0jVki7ffqVc/ZUNhnujdOfukWP7Nk5W/2d2ypXv2CNyc4ssJyvx1O9GppHpqXcypwyCh8wjyqXr5Z5jeyUY8tHAfd77n+vvOiZ73+OUIhd1kAAy3W6jHFi4UDYv15uU2y0puTVNAJmOiUYS+UKW8OvaEME6Mh3Md4uyIRZwp45hrqO8Vh375TIdPC8OmTJU5uP4n4O6STpPO5VzuBch08j0zHt38Cb9WV+Vtf/WRW/QyPTM26ipAiDTTZF0SweZduM0xKuQ6bBVw/lF0tXh8K+y/MyczPmrxdP8r4ZM21eWiwp6QG684rDsUFayYzFOF6AcZVp/+U7mX12ovTwv3CzCAlfQMMg0Mj3NR4lD2ukbtbpSEDxQnrll8s9RDiXgkvYIINPtsfZzcpNpf1L8jMyVrIQdWLhRZF/0tSgSkp1X7JS131T/ptUvmIiX5Zb4K1O71R91bsh02PyhVBpWVi2948DClXL4tigsI7rGn492zj9u/Spqna8qy3S58IZFcggFib72pvNqedrW50Us1PECl1qGJsJGBjBSkWlkesbdWPk8lRmoarHCN+BH5HXh6oKE8Vr6WrYq47nPVda0Z1z9kWWPTLfb4EUybf4iFI2xYMUuijGdWy9y6JFwvAWfjdfKzmA85v9LxqDyNSm9yl1o2qU0zNyQ6Ug7oy+f1rCOKKxibp3II4eUWcXv69uX5Wpb+KHE85LWf9S5prJMh2kuW0NQ1HCOkvEUybR9ZTotf3xN0fPC9G9uL+vDHF96rZBpZHrmPV2f1PMPvSoyLeHmDS0+LqgkQj3ztkam222CapOdPpGnE7e6VyEcr3NKrKTlvsyKVfmqWLtkhp8bMh23sSqg6sti9O+mMIZkD49yvcOmu9zYqCrTUR5zudAJpQ6ZOGh7P86vyKtj0HshDubJrJCXv3yr4z4Oocn+bfgjy1xDZBqZ7kTfN62SpRO4JtNqnFvy0IseCsb4rvh+VsZm3djIdLstUE2mdeE1C3A+plM7JcGygapeLGi7vIaUGzKttWZmk3t+g3tWYE0rxA6ngZTJc9lpHoZ/T+ZGR4kOap0L8fD/mI7ne2SzMfSlXKazsefmePQhjSL3uiDTyLR7b2njyswDL14VsMh0Is7p6oF1M2NQdsOqRBt1Io+EADLdbmcolencKTrqFxzLarI+4euraaY0k2rzQttWD0CmLaTj/hnLqXE12FWmTadoKPNMmVzrRSySaXEcO8b4ZkWmo6+2prCX0jAPPfa87OWgrc7egXz6J9Mrx+XAre+VD931mHzvPz2Cp18kmx9dkrvfelYtnCvIdC1u071Jj+UyyXQ+3it4XNhOBkGmp9tkjqkj046gGrqsfKXpeeW4SbeV6XjVK1PEojjRhupCMtUIINN2XpkV1WgPTvWV6WgOUleMy+S5TD4L/j3dB1S0KGQoU4IhHd+PvvEzwQla+lGz9ueFecNjPuSrWh8d0tX9k2mf/vFDsvu2PfKXX31AvuHvFzh3jWw7+A9y59uqCzUyPevubDhJILfirMu0+QSQoCZ62Mesq0f+GQLIdLsdonRyLIxrNq9M+2l+5o0FP9Zgjftst+5jzw2ZLpPpKNa37sq0SXwnlWmHsWOX6iKRDpaawjjpYMxXjJnObWYM2SLTaR/rp0xHQv3p7bvlyw8tyrde8v5wzi/KJx77O9n5pmpCjUzPeMox7vqPypSsdmky/ZT+Ay/q9fFDwlCvKjFnM8Yy1OyR6XZbtlSmlV9ZS77qJOOuIGZaPxfedGSWtrnJO6RMdt6+Vna09etz7aLuXG7IdCqQmV89jBdctN8xqLwynRNMwxfUMrnO9Zqy0zzSG7Jj2+GovIxM+z+Hlpfv/POi+LSt0jCyzo2K6RWovzIdC/VHf0/+/Mtfk8M/9IV6rSfU36wk1Mj09DqXc8qGGMtsPFcVmfYfEi6/BuVcOi5skAAy3SBMh6TMv2hmOWLSe9ncNLfH+xnj+OeG3WKmzStlljHIiToOrdbMJch0xLFwX4B3Td2VaV9HtV8MXH/zJln+rPLrhZVlOkozGYOOfaFoUSqJtTaMZy2+uvB5kfuBG3fxd6xFry/rt0z76P/lkNz6kf8hDz38N/JPnlCfdv6b5eNff8xZqJHpXvdfCt8zAsh0zxrMeeWMX0PrWssi011rEbfy9CZ0otbPnrsx6ONV/ZfpQKgX5dYP/I584W//Ub7zI0+oX/M2ueOvviofdQj5QKb72G0pc18JINN9bbm43ObVKI7I6l67ItPdaxO3EvXjxZSjLrOtOQyZjoR62/u3yR9/Y0n+1fv/p73m7fIHf/2wbLm0OIYamXYb3lwFgSYIINNNUJxxGpaj7/STAWZcytFnj0z3twt0XlQdNkr2l369kndWpo9/6R2yZuM35MV69Qru+pkL3i53fq1YqJHpCQBzKwQqEkCmKwLjcgjUJIBM1wTHbRCoQaC7Mv2Va+WXr1uU52pUKr7lnPmr5J0fulvu33KZ2NankekJAHMrBCoSQKYrAuNyCNQkgEzXBMdtEKhBoLMyfeKxT8vCln1ydMW1Vivy4vMvyA9++LK87N1y5iVXyXU33i5/9Nvr5JWn29NApl35ch0EJieATE/OkBQg4EIAmXahxDUQaIZAZ2W6avWO3+OFhfymFxbyU1+kr5RfveF35d6PF4u0nwcyXZU010OgPgFkuj477oRAFQLIdBVaXAuByQgMQqaP379Rrvjgl+SFk55I/8KbZP2v/77sdxBpZHqyzsPdEKhKAJmuSozrIVCPADJdjxt3QaAOgd7L9PF975Y3f+Ah+a4n0vJz83LNlrvl855IX1AQ2qGCYmW6TrfhHgjUI4BM1+PGXRCoSgCZrkqM6yFQn0CPZXpFjv7J9fIrv7EoL/zYA/AqT6Q/XE2kWZmu33G4EwJ1CCDTdahxDwSqE0CmqzPjDgjUJdBTmfZE+vM3ybrfekCe/cBysGcAACAASURBVDdfpC/xQjs+J3tvd1+RjoGxMl2363AfBKoTQKarM+MOCNQhgEzXocY9EKhHoIcyvSJL975P3r75IfmevyJ91mvlqo98QR6sIdKsTNfrNNwFgboEkOm65LgPAtUIINPVeHE1BCYh0D+ZfvmELP39E3L0pfDMvLPOn5fLf2l14fF3RYBYmZ6k+3AvBKoRQKar8eJqCNQlgEzXJcd9EKhOoH8yXb2OhXcg0w0DJTkIFBBApukeEGiHADLdDmdygYBPAJleWZETJ07QGyAAgRYIINMtQCYLCHgEkGm6AQTaI4BMI9Pt9TZyGj0BZHr0XQAALRFAplsCTTYQYGWaX0BkFECgTQLIdJu0yWvMBJDpMbc+dW+bACvTrEy33efIb8QEkOkRNz5Vb5UAMt0qbjIbOQFkGpke+RCg+m0SQKbbpE1eYyaATI+59al72wSQaWS67T5HfiMmgEyPuPGpeqsEkOlWcZPZyAkg08j0yIcA1W+TADLdJm3yGjMBZHrMrU/d2yaATCPTbfc58hsxAWR6xI1P1VslgEy3ipvMRk4AmUamRz4EqH6bBJDpNmmT15gJINNjbn3q3jYBZBqZbrvPkd+ICSDTI258qt4qAWS6VdxkNnICyDQyPfIhQPXbJIBMt0mbvMZMAJkec+tT97YJjF6mT5482TZz8oMABCAAAQhAAAIQGBABf7Folv+tOuX9N8sCkDcEIAABCEAAAhCAAAT6SgCZ7mvLUW4IQAACEIAABCAAgZkTQKZn3gQUAAIQgAAEIAABCECgrwSQ6b62HOWGAAQgAAEIQAACEJg5AWR65k1AASAAAQhAAAIQgAAE+koAme5ry1FuCEAAAhCAAAQgAIGZE0CmZ94EFAACEIAABCAAAQhAoK8EkOm+thzlhgAEIOBIYGn7xbLmznnZd+qg3ODds3/DKllY2ipPH90l845pcBkEWiNw/7Wy6qYl2Xr4iOy61CHXp7bJxWt3y/x9p+Tg+x2u5xIINEwAmW4YaNeTCybRhw2lvIiJtettR/kmJbBfrl21IEsfe1qO3FFFIb37Vj8hu3osnlmZXpJtq9fI7mc3JHLtQnb/hovliTsc5cYlQa4ZFQH9hS6tfNQf5/fJqUX/VU8kvPaobHCV4y7IdBfKMKoe1a3KItPdao8plyaeRO3ZOD+8plxSkodA8wRqynTVVbLmCz5xinaRcU26JjvX5Llu8ASqyHRlGF0Q2S6UoTI4bmiKADLdFMlepJPK9OrM6lw4US4Gdai2WtWLalNICAQEyoTQsgJdJtPBJLokn4pCKMywvbQ3iByMVt4y13jpX3x4V3a13E9z++VyxHS9f7NDnr68XCsHg3SdZdqv6yfmDeEfDuxW3Srzrp/l6ZGjI9CMTFvGqCayfl7b1h6pEPIR9m8pWwn38rn2vg/KQdOXLWeZdsxrdD2k3xVGpvvdfhVLb5PpVDR8oc6IdvSAOKrmdE36Oc7/c/xJLr5EX93W/10IKanYblzeDIG8EAZhT94L5IaHF6OXyTCneAyYwqKS8WEaG+rLaPDvB2T+GpHFh8MRFN4rQZjFgXnPrr1807G12osR/ZQsrY1fbMOyZMZTWZ7+DYH8h6/G8X+rL1otR5+1xUxbvljF49SQXjqG1RfxJDf3WNdmGpZUekCgkkzrL7DGfq+Mj8vCmGkJ+rk6W5UsDlnSzcyBQVm8cXiN94yIQiSNX3DLZLokr5CPZMaOMdylLJ8e9IUhFhGZHmKrWutUJNPRpiT/YRHLsmkSjdMummgVoSBGe1QdrOOVtci01+fVyTPss8okbFyZzsd5eq+VYSxyHPuZTJ76hJ6Ow3RSTqU0LUt0ncT7GRzy1Mvgt4ihHKUbEHN1Nq9Mm9IpTbvjvYTiTYdAblFFz0ZdpNH6X65P6UJpGmvR38S6R0IfX2GBclIbz4Nli0CFkuuSlz7GlJdchY3zV6bpNCOpWggg06PqGlVk+rJok5Ii1z6rRLD9VbQj8sH7wo0iiYAHn9L3yULwyTsWhPDacFd2XAb1b6NqBCo7MwIWmdZPtdBF0iTT0arzRi2sIZjoHtgYhklYJ1eTFJtP2Mind0Dq5Fn5NI9c2U0ybflcHa3kxSeHzKy5ybhTBCaWaVG/iGp9zzjWzOMsgWIbn7qEl4V5xQkWybRTXuEXq93Jy7Nfx1u9udX/shV/VSqpU6dafFyFQaZH1d5VZFqiOGpderVVtejzWvJhTX17L1rZ9riz2XFUna8DlW1Qpgv7drQS3bRMu+RpmfhdZNr0FUlfOc+chFLw6d1b6yfUowM9vktFmCTMI3evJQwkezReiXhaJVl7TjQh0455ZeoZv5QenpdbvXCx4CVaOAKwS31aLQsy3dWWmUq5qsRMP+km09GZntlVh2gifTIfu6lWC5meSiOTqJVA0zJdcg7uVGS6JM9aMm04Ks9lZZrYTcZaBQKTy3Rm545xb0/fZToOyfLrseuw95XrqU95xwWGX4kPvNfbb7F2WxC/zVefCh2vpUuR6ZZAdyObKqd5mOO1TGEe8YkBfh3j1a0g7vOme4NNIUdZpepG84++FA3KtItINi3TE+Spx4FnYlBN6brIdOnpKKPvcABQCNSX6XAuWvpkwQ+yNBnmEX0BShZ7mliZto1dPa9kz8NW2bq0O6lzPF63zu/2wkCyBwDQybpBAJnuRju0VIpq50wXxrhFGyJs18QPIusGRI7ga6nNySYlUFOmiybq3A+f7Jdt2y+TXf7RWU3LdLLfQN/QqORpuCYdg+l9JplON2qZNkgWxHk/bAgF2/6kxyD8AQ7+g4BPoL5MK5vjFZSmU6cqrUwb9+9E+3xy4YoOv8bosgHxWXWsGPJKOPmr8Mq1SogXX3S7OZ6Q6W62y9RKVfl0DdMxW5nd0XlB1we7OU/Os55aI5OwhUBNmU4m3TDZ3Gkbz2rZxTvvG5fpQEnSjcFqtpnjKrXj6nwx+OSSrFE+D+unI+gvxas/tlXm7/SOGlPO3c1co8iGcXyXnXxAHx0dgUlkOnuvOgaK9ie4bNYzjCe971Zcmc4Go3jNnIxNh7z8XhHvRciUIx7TzJtdHTjIdFdbhnJBAAIQgAAExk6g8CSM/Ok2Y8dF/WdDAJmeDXdyhQAEIAABCECgjIBFpnPnwZelw79DYIoEkOkpwiVpCEAAAhCAAAQmI2Dem8Pxi5NR5e4mCSDTTdIkLQhAAAIQgAAEIACBURFApkfV3FQWAhCAAAQgAAEIQKBJAsh0kzRJCwIQgAAEIAABCEBgVASQ6VE1N5WFAAQgAAEIQAACEGiSADLdJE3SggAEIAABCEAAAhAYFQFkelTNTWUhAAEIQAACEIAABJokgEw3SZO0IAABCEAAAhCAAARGRQCZHlVzU1kIQAACEIAABCAAgSYJINNN0iQtCEAAAhCAAAQgAIFREUCmR9XcVBYCEIAABCAAAQhAoEkCyHSTNEkLAhCAAAQgAAEIQGBUBJDpUTU3lYUABCAAAQhAAAIQaJIAMt0kTdKCAAQgAAEIQAACEBgVAWR6VM1NZSEAAQhAAAIQgAAEmiSATDdJk7QgAAEIQAACEIAABEZFAJkeVXNTWQhAAAIQgAAEIACBJgkg003SJC0IQAACEIAABCAAgVERQKZH1dxUFgIQgAAEIAABCECgSQLIdJM0SQsCEIAABCAAAQhAYFQEkOlRNTeVhQAEIAABCEAAAhBokgAy3SRN0oIABCAAAQhAAAIQGBUBZHpUzU1lIQABCEAAAhCAAASaJDBTmV5ZWZGXX365yfqQFgQgYCHgj7XTTz8dPhCAAAQgAIFBETjnnHNmWp+Zy/SJEydmCoDMITAWAmeccYacPHlyLNWlnhCAAAQgMAICZ599tpx33nkzrSkyPVP8ZA6B9ggg0+2xJicIQAACEGiHADLthXmwMt1OZyMXCCDT9AEIQAACEBgaAWQamR5an6Y+HSaATHe4cSgaBCAAAQjUIoBMI9O1Og43QaAOAWS6DjXugQAEIACBLhNAppHpLvdPyjYwAsj0wBqU6kAAAhCAgCDTyDTDAAKtEUCmW0NNRhCAAAQg0BIBZBqZbqmrkQ0ERPoh08uy84qrZfFdj8rjt81VbrYDCxfK5uVN8ug3d4jz3V+8US7c8oisv+uY7H1P5Sy5QSUQsFyWTV9/XHa8sS9owj63Z+4eObZvY18KTTkh0BiBWs/NxnKfPCFkGpmevBeVphBNFC/kL3zdzfWEpTRLLugkgW7LtLmfVu2jVSaF4NpDhqZ6bUUZd2jt5duvlKs/Oyf3HNsrVXTNv2/n/OO9kfywns9nXkwOLFwph2/rslxPR6bH0uYO3b9Tl1R5RqgF734/Vkr7zE658va18rjTy2H87F1f+fnUlYZFppHpFvriAbnxws3yiCWnqrLiVuA4z9f1bIXKrXZ9varLMh2Kh2j9ZVmWn5mTuQornK4TZSzSudXoaJVa1tlWKeuJVz2xqpdXt/pn+CxY7vSLewlnX0zesUfmKn65GG+bt9QDa34FcX1GZGvRh36clrhe32up3aaQDTKNTE+hW+lJpjKtikOyKjeFVTgRZLqFhq2cRZdlOuyPk6+MZCdKvx8ekI36anAkR2IRPLPYx7izK+iuL6Nlk5t5BdpFpr06LojszaxA+fX+jMyVhVr4HG7y7i0IifF5fuaNxV+wlm+/Ufa/d68lrKNMQtzDespWBgPGz9xSEKoR5rW8XQ/ncZPp54Mu4L5A0Mk2L3hquLR18Gy/4rDsKOgzQb2/sqFaqFWuXLa2Ui6MX3yDP7k/O8pk2tzPyvqxVwRvPN34wA2yVw1P88t4x1wBC7+eO2XtN21frMo4mP+9rO/5xA4s3Ciyr+xLmZf+wn65YV+FsLnKM9PkNyDTyPTkvag0BbNMS/IgUh5CkWSEk0b0X2aFrljMA7GY3xnEn2b/Uyeg/Eo5saqljdjIBV2W6Tg8wC6nZuHRJ41wonydvO6F58XWj4tlOZwUS1ciMxO5p1glK6+5yS3IY1Hm1ok8ckgtaTQeTWMxFgbDvX7+e+XGIMTCPvYicZ1bL3LokQwfvfymEBj1muDfvfKs99IJR3tUbnW18KkwFj3zX/Lybvlipj5vgrS8lNd5eajhONoCQNx3Mvnk0sl/m0ufOy4vLb58qGFB5VI98zaXsB/nXhq1PQLV2zok7dJnspJbYQwXtHe2Q+nhYeVSnZPpsn6mjfUg/7gPGu5df9ejMneHF4Ovh1Zm+q39i7F9HvVoKl9Hcu0WpH+D7Pfj/7W8w/sM4z8q02F9r0nR86eR2ajZRJBpZLrZHmVMzSTAygMonnRMD4w4PcMEaBrUpTIdPdz16T6Yiit+Qm0B3OCy6LJMi6iToklUqk3E6kSvx/GWr4I7rELFvUMbN7Z+bBarPZ7Q5l9mU/mxSF4y0ZWJg16PlHF+/CrMTZ/Ptb/FE3nuJSJ3r5mlsQ30jaAxW1VC9GtMLz6lL0M6VzeZjps8KzH2NuhCm5tWYTN/q9nWufYzbuKN5p7kxcZlDIf3SOX5QJPqgi+uZpn2XraK+ln0tTUXrmTqo6aZQ+OcXzkue+bo7Io5mVemzePfL26WSXSdZPeOLN++09v7sKPSno+2JtH+yfTKcTlw63vlQ3c9Jt/7Tw/T6RfJ5keX5O63nlWL2QoyXYtbtZuKYqbjicAg134miSjEE63DynTwicsc5pGsIJlWjawxqtVqy9V2At2W6ajc1k+3LhOxPikk+pOJ221UpqMsjH1baQqbWGXjcB0lr1QW44zrpReuOusx49nJ2/qp3EmmbeKgyZcxJjZ7rzmkoDx0xCgPlU7zsItJQl/fdGpst3ptZB/lWno5yc3yq93Wppcrwyk62bHmMIbjF8Xa80F5iKFZpvUTaPQ+aumzrnHbWtvn+23FPlvCqVCmDf08Hx7X9X0O2RHQP5n2y3/8kOy+bY/85VcfkG/4S4znrpFtB/9B7nxbdaFGpttQP5tMm0Iv9BVBfcKYRKb1z3Fa3acSu90G3/7k0QuZ1ld8k37hMBHnVljMUlkaT1gSU622uB5iYAv3aE2mTV+YSlYG45ffcNVNwmPiDKf/+PWO6zeRTFtfBkwiWCw5phCFpH1UITN9ti7pW+aRrT/H7OEe3WjzoheU4mdyYVtnJNK+sp9l4DaG00UcrwWcpVqf5+xfDNqSaVPfTL4I6RJe8IUl8yXXsHoe9FON00Qy7fyy3p25r58yHQn1p7fvli8/tCjfesn7wzm/KJ947O9k55uqCTUy3UZnzAtwKgD6ijMy3UaLzCqPXsm0Bykb2+w2EZslLysUpTHTxk/W2VZzleg2Vyn1cJYkdCZZiSoOGwnDSyKZLlml7ZRMl50rHrVnLuY7uc8lzMNdorvV5vE4Co9llMxXB5d6W772TFOm9Rfqws2F7hIdJzt9mY77Sj6EK/kSVfjS65W0tM8qz6MkrTQ/ZLr9WXbVKe+/Wtl6K9Sf/ujvyZ9/+Wty+Ie+UK/1hPqblYQama5FvuJNptVk5QEUvNGuTVejjBt3YslOJ5R0YkrTMv3NuGHCebWhYlW5vJBAP2U6PpvZPPHrIRtGydNXWgo/kZrjBVOwWakq23jYnliZ+DiGEDh+slc710QybYs/1b8IuIZ5lJzfXRo3HMfr214gMqva5RsPu9XmXmmS/n+PyJZsPLK1HZXGNl7j1Gf0seQ2hjMPsaJVUmtIWPFEMHWZdojj98tQdEpOeZ/V6mgKI8mNC/vLE2Eek8tDfZn28/6XRbn1w78nD33tb+SfPKE+7fw3y8e//pizUCPTkzdgeQrm0Ax9dfqGB8IfWzD+p8hv0WfVVCwsqzgFGxBdpaS8vlxhI9BdmTbEC8YTZa7vpTKT9sV0RSb5m/4J/4XsZ19zjLN5rGR5uq3m6W1Q75O/ZVWwKPZW2TSUr6MyLhOuUZ0Nn4/1MaluQHKX6SKBUjceG1bzHGQ6FsXn9Rf0L+6UnZfuCI7rs22WSzeclbRpzc/e3Whzvyeqz2Mt/MGwAhrcoWw2c5HpJDRDaYf8l5K4LQrGsFeeK5d2pL9+WhST7BqvrA3GejJt6SOmMuTCxPRwyfhrgTbf5p51SlvpGx3LOBnZuMp0vp3CcbYst1T80am2ZuP+hnmohHyh/sDvyBf+9h/lOz/yhPo1b5M7/uqr8lGHkA9kuo2uZhMEw4qy4dNTXnI1UfYn4e3LcrV3BFbm2kxaymqO8cid8qPF2iA19Dy6K9Me+bLPnkHjaJ90k74nyS93xRuq7vG20KW/bmheTTQeqZZ0AvcVSJd+U1esslyyx+blfkREH1sen01ze2RPspkwnky9vy97f0/iog3xpab2UM5YdpdpTRwUac+/mJtEr2xjmEff8kxJv4rlQwE23bwse5KzkOu9IJW1ezfaPCxl4QbZOm1tkjVDOvnTbUrGsKEtm15oqSfTln5sEfp8GNgmmfusd0xhfEqJaWU/OA4wv9k/bMH1kumzpZyynNWj8faUbkDUX8DCEjTdDmXjp8q/D0Om/Rp7Qr3t/dvkj7+xJP/q/d/TXvN2+YO/fli2XFocQ41MV+kuXAuByQh0WqYnq1rDdysvjIPaGDsdaWwYPslBYOAEik+zqX4s4MBxOVSvszJ9/EvvkDUbvyEvOlTCdsmZF7xddn2tWKiR6QkAcysEKhJApisCC1bCDb+gWDWZzlyPTHemKSjIiAmYZbp0Y/SIiZVVvbsy/ZVr5ZevW5TnympQ8O/nzF8l7/zQ3XL/lsvEtj6NTE8AmFshUJEAMl0R2OAuR6YH16RUqJ8EjKE1/HhZ3cbsrEyfeOzTsrBlnxxdca3airz4/Avygx++LC97t5x5yVVy3Y23yx/99jp55en2NJBpV75cB4HJCSDTkzMkBQhAAAIQ6BaBzsp0VUzH7/HCQn7TCwv5qS/SV8qv3vC7cu/Hi0XazwOZrkqa6yFQnwAyXZ8dd0IAAhCAQDcJDEKmj9+/Ua744JfkhZOeSP/Cm2T9r/++fN4T6QsKVqTj5kCmu9kxKdUwCSDTw2xXagUBCEBgzAR6L9PH971b3vyBh+S7nkjLz83LNVvudhZpVqbH3PWp+ywIINOzoE6eEIAABCAwTQI9lukVOfon18uv/MaivPBjD9GrPJH+cDWRRqan2bVIGwJ5Asg0vQICEIAABIZGoKcy7Yn052+Sdb/1gDz7b75IX+KFdnxO9t7uFtqhNiJhHkPr0tSnywSQ6S63DmWDAAQgAIE6BHoo0yuydO/75O2bH5Lv+SvSZ71WrvrIF+TBGiLNynSdLsM9EKhPAJmuz447IQABCECgmwT6J9Mvn5Clv39Cjr4Unpl31vnzcvkvrS48/q4IPSvT3eyYlGqYBJDpYbYrtYIABCAwZgL9k+mGWwuZbhgoyUGggAAyTfeAAAQgAIGhEUCmV1bkxIkTQ2tX6gOBThJApjvZLBQKAhCAAAQmIIBMI9MTdB9uhUA1Ash0NV5cDQEIQAAC3SeATCPT3e+llHAwBJDpwTQlFYEABCAAgYgAMo1MMxgg0BoBZLo11GQEAQhAAAItEUCmkemWuhrZQEAEmaYXQAACEIDA0Agg08j00Po09ekwAWS6w41D0SAAAQhAoBYBZBqZrtVxuAkCdQgg03WocQ8EIAABCHSZADKNTHe5f1K2gRFApgfWoFQHAhCAAAQEmUamGQYQaI0AMt0aajKCAAQgAIGWCCDTyHRLXY1sIMAGRPoABCAAAQgMjwAyjUwPr1dTo84SYGW6s01DwSAAAQhAoCYBZBqZrtl1uA0C1Qkg09WZcQcEIAABCHSbADKNTHe7h1K6QRFApgfVnFQGAhCAAAQ8AqOX6ZMnT8qpU6foDBCAQAsEVq1axXhrgTNZQAACEIBAuwTOPPPMdjPUclvlySw2O9MmIHMIQAACEIAABCAAgb4SQKb72nKUGwIQgAAEIAABCEBg5gSQ6Zk3AQWAAAQgAAEIQAACEOgrAWS6ry1HuSEAAQhAAAIQgAAEZk4AmZ55E1AACEAAAhCAAAQgAIG+EkCm+9pylBsCEIAABCAAAQhAYOYEkOmZNwEFgAAEIAABCEAAAhDoKwFkuq8tR7khAIGZEljafrFsW3tEDr5/psXIZ37/tbLqpiXZeviI7Lq0Y2WjOBBojMCSbFu9Rg6892k5cse8kmr4993z++TU4g2N5WZNiPE2fcY9yAGZ7kgj7d+wShYeVguzQfadOigtPApaI5DU8aKt8vTRXaI+/jKFeGqbXLx2txz1/rjhvlPdk5XWiJFR5wgofTNTtrI+3WZFmNzbpE1erROIZPnZbMarPxZL9X65dtWCLLY1JhlvrfeALmaITM+8VaKBbypHWw+DlhiYZDr+W/og9AqDTLfUImRTiUDcL3Pj0p/ct8nlRzvy8svkXqlZubhfBPwvQmvuFO3Ly5IsPTUv87P4EsN461cHmlJpkekpgXVLVn3DXp19OPgD9BPzxSu4bpl0+iqjTHe6xBRurATCvqqN0yIYwSQr5V+YvOsuPrwr+6naF/ftl8uRos/U/jXvEjmof+UpmNz9Otx6qf5ZfKwtSr37SCAchxN8ua073sRf+NonC/oXY8ZbH7tR42VGphtHWiHBKiuwps/L16gxYcqnrU8uyZqbFpOChKES2RVwdSU4fNM/GoRULPypGm6Sf2Dlw1F0udBW2pVVvDgfCcot4ac4DVdYriejf9PSLmMQPNQWxU/jU0+tUcJmJnjwVmhOLh0ygahfZ8acub5JP8/8s9qXo1jP+Q0iDy8G4Uzhf/41n5KltdlxkYY62e7z7kw+cXvJGCb3/LhN74n/Tc9n97MVXhyG3PTUrVME4vGV6fOZEuox03XHm0gwNmSDbPDGaWauUp8DFcdbp2BSmMYIINONoayRUCR/XmRw8epVcp0hj0RWC8JFjEVLJ0rz5B/dlKRvjlOLkw4n4uJYtolk2oWByzU1molbIBCHHokqrSYs0Qtf9rpoXEi8VyAdJ6nApuM3lQSX+6IJX10x1yd308qZ9jd1te8y42d0+gAEukKg4ItuUESzTO9+Vt2D4zLe4rGVfVlVF5+Czcc1xltXSFKO5ggg082xrJxSKrFFMq08OHJvw/67cizFikzH16kruQbpjidtYzkSMY3SfzJc9U3zUx5a3kMqu9qcFfVr5WDwCTsr0+HWSnOYR1yXOB1HBkkZlYemXo9ZxNRV7hnc0DkCRknOlzLs4/O5l+NsnKf5tIFgLCxlN+cG9z2wMQr3spxSEJVtPt6saxJl0U82CMeYJBt845X3cBVuqeyloXMNRIFGRyCzeKLOoRaZ1k73KB9v0fykjUnvr8HYScZIrfE2utYafIWR6Rk2sZtM62IZF1hf3TJdZ1oBywusSXLjB4avz/7q2a7DYShIKM3KGSPxAy2S9Se1U0nU0zjqy7QjA4mEP7NBzHbvDBuerPtHwFGmTRN0UNnMhNuwTBdO7sVflEzhXjKwjc/962yUuBIBbQ7ylm20o/HqjjebTGvpmca2v8Bk+M8emlKpxlzcQQLI9CwbRXmzth8B5yiSSUx0PjYz+3lrujIdHnenhZxEAo5Mz7KzkfdkBPSQC3NqM5FpXfQdxN1U+jSumljpyfoKd7dNoPjLT9Myre2fqDne2mZEftMlgExPl29J6gWxX8EEuSSfOrVLnvAPoPffdJ3CPCaQaSV2O101rxrmoex2TsJMwk9wYSxmdnU7mcBNmymTEJaKYR6sTM+0Vw8181yspKGitjCP7AkEdSd3S5hHScymVfDV8idpHBR5l/e8SeK7h9qa1GtIBLLjbsor0y5hVbnQkCHRpi4mAsj0rPtF0aa5SG4TCTWVNZHQBsI8nNI3XWSI21Yvi+RWDDKtb360neZRuEkyZpD73KeukrPaNuuu3v/8TZuWvO1O6oY9iX5wSH2hU06ZCX+pbUKZzrxYG36gwijX4Sk36i/FLW3fJk/escv7YSgtBtQxs5Ht2QAAIABJREFUpKX/7UkN+kcgOplD/dXD+LmfzIUNy7T/Y2q5jfhKjHbl8dY/6pS4nAAyXc6ohStMcY3apkSDdGcnxwZk2nsYeevK6ZFyxh+niFbJEyol5bQejRfHXZuO7LMcjVfGAJluoa+OPQtzDHImTMtwhGN2rE4o0/NbZevS7vBrVfCfaQxqPydufGn3XzCjlehns2lUPlN77N2C+rdHwNSXM182G5Zpb5V567w33pJfKDb8JsRNruPtiOxiE3x7faXFnJDpFmF3NSvzBsSulpZyQWCsBCxhHmPFQb0hMGUCTiFSUy4DyfeDADLdj3aaaimR6aniJXEINEQAmW4IJMlAwIkAMu2EiYs8Asg03cB4/jNYIACBrhFAprvWIpRn2ASQ6WG3b5O1Q6abpElaEIAABCAAAQhAAAKjIoBMj6q5qSwEIAABCEAAAhCAQJMEkOkmaZIWBCAAAQhAAAIQgMCoCCDTo2puKgsBCEAAAhCAAAQg0CQBZLpJmqQFAQhAAAIQgAAEIDAqAsj0qJqbykIAAhCAAAQgAAEINEkAmW6SJmlBAAIQgAAEIAABCIyKADI9quamshCAAAQgAAEIQAACTRJAppukSVoQgAAEIAABCEAAAqMigEyPqrmpLAQgAAEIQAACEIBAkwSQ6SZpkhYEIAABCEAAAhCAwKgIINOjam4qCwEIQAACEIAABCDQJAFkukmapAUBCEAAAhCAAAQgMCoCyPSompvKQgACEIAABCAAAQg0SQCZbpImaUEAAhCAAAQgAAEIjIoAMj2q5qayEIAABCAAAQhAAAJNEkCmm6RJWhCAAAQgAAEIQAACoyKATI+quaksBCAAAQhAAAIQgECTBJDpJmmSFgQgAAEIQAACEIDAqAgg06NqbioLAQhAAAIQgAAEINAkAWS6SZqkBQEIQAACEIAABCAwKgLI9Kiam8pCAAIQgAAEIAABCDRJYKYyvbKyIidPnmyyPqQFAQhYCLz88sty+umnwwcCEIAABCAwKALnnnvuTOszc5k+ceLETAGQOQTGQuCMM87g5XUsjU09Z0pg1apVcurUqZmWgcwhMBYCZ599tpx33nkzrS4yPVP8ZA6B9ggg0+2xJqdxE0Cmx93+1L5dAsi0F+bBynS7nY7cxksAmR5v21Pzdgkg0+3yJrdxE0CmkelxjwBq3yoBZLpV3GQ2YgLI9Igbn6q3TgCZRqZb73RkOF4CyPR4256at0sAmW6XN7mNmwAyjUyPewRQ+1YJINOt4iazERNApkfc+FS9dQLINDLdeqfrW4YHFi6UzYdEXnfzo/L4bXMFxV+WnVdcLXteEFl/1zHZ+56+1XT65UWmp8+YHCDgE0Cm6QcQaI8AMo1MN9zbhiaUB+TGCzfLI/I62fT1x2XHG0twffFGuXDLIyLr7pFj+zY2zLb/ySHT7bTh8u1XytVf2SCPfnOHFL3+tVMacpkFAWR6FtTJc6wEkGlk2t73n9kpV75jjzwfXLFe7jm2V8r1MC/TwcT+WT8V1zQ6NBxjOX7tJkcxqSjfHapqG0VBpqdLOR1rSj5q3/XH9O1r5XFe9KbbEB1IHZk2N4JxjHiXln95nG6jBl9Al13nmabL4s1bVxyWHbx81waLTCPT1s6jP3TcHjZ9lGm7ALuHeMQYh7YyX/vZYrwRmW6WZya16OVXtHCk5WeWZe6N4fp0OKbnHF+Mp1hWkp46AWS6SKazYyB8zjt+fZxSy81UpoNFo2W3r69Tqn/fk0WmkWlLH46l0FtNvktksx+64LQ620eZtMl0vbrEAk6oR75rIdNTnDKiryhF8fouMn1g4UaRffpXqHCMSOlegLIVrrJ/nyKfkSWNTLvLtFheRL3Xz2AfzOK7ivfLuIVVeX1/QWSv5atQsUy7jRu/HDvnH7fu1wnK+cwt+RDEMpkO+CzLLU5fp0c20KLqItPItLnnxyEegUCvlZ3WuOFYRKNk1m2STct7spvw9FCJJHxEXQnIiuuOpSg0RBP4ZLU8iEmWKJ45WwVVJuLr19/1qMzdEW4ODP6L043LlkkiLpdNsrU628ro9PIxrgcPMj3F9s6MWT1WOh1fagnCsRIJw9x6kUOPhGFdcd/NhHqld6pfqQIJ8EK41nv3eq/cyX+ZL1mWdPyL2aw7nT6BTE8i09ozPk5K2wuTLJxkslLCGYN+vyhz60QeORQGTNq+8Ooy7T6usumHRVFDKovrYqpDUkbjuO1huOZ0hlgmVWQamTZ2s1hC40FlDncwT9BxgskkWUOm914ax2s7CHeuBuk9tvi44Bb/wfjuA+GGwcx/0f0Sl0F9eJjrnHlAVo6zbmGkdyQLZHq6DaH2d9OkbV6Ztn2Bif4u2TjOMA1JPgmbng3h39Jxk1t1iybpudKV7unyGnLqyLS7TJv7tCaN+pcf45egSFxj6U5ktFxAjTKtnSKlj6t4Rf15VZ6tq+wpj9xzwLgyHY3/OXUzvelvQx5F7nVDppFpQ28xrMiaBDFZ1VWEV3mTnUimo9UyfyU5/5ZsezClb+Bx3qlcmAQ7TseyAm18EOav9fO4Ufamx+YlXMofoO5DdRhXItNttGN2JSr/pUaPmbZMkDbh1SZr4+dpbXIOV9nUSdk1bKQNXsPMA5kukulwlVj9L335DPvmcu4o1Kwo28IyMsJb4aXRKNP6hkRdeo3pOwivno5JpqNV9Q3aKVZuIS3DHFNFtUKmkel8/zCJs0GSE1HNhDMYVrnqrEz7ZzRr90l8Kojyqc38mS39dJwNC4nOIslJchWZFtHzzH2mRqatzxxkus1Jxvzil9+AaJl8rXGUWdlwkWm3lbA22Qw/L2TaUab1cDyrAKvjxAt99H9TILNqG+aX6eudkWnTF1VlEcw01o0hkDFTFor03oVMI9O5J45NUJMLI5mdukyLKgN7RW7K/iBKUTlzK9NqrNuEMh1y0GPFlVU3wjyQ6a64mraKXBjmoYtB4zKdXQ10Ox2oKyD7Vw5kukimC060GZxMR3OV+tLgsjJdtimxf0NiqiXup0yvHJcDt75XPnTXY/K9//T4nH6RbH50Se5+61mVYa0g0xozy2aFzFXRW2ndMA9FRJNVXVN4iK+s8a8Pros3R8VvxKY4z4Jj+ZxkWt8MZVqx9v92QDbGu5oNoSDml4zKXXOQN7Ay3XKzamJQSaZtUqHFipavTIfjcnk7vwraZusj0zVlOpqfcmEeLuFN0ekfe+J9Bl1YmbauOitH4VnDPPYI+xrcRm0/Zdqv2/FDsvu2PfKXX31AvuEveJy7RrYd/Ae5823VhBqZ1jpK0apqTniLxdsaMx0/cOKTNbQiZMIm9E9NDiEefnLVVqb1T2Dx5y+TsFvqrLz1czSe/eGDTLs9mOtclY9ljPuq8knWeaORX4K4/6ubgPOrXOUynQ+N8lNnZbpOK7vfg0zXlem0v6ZzkXJUbLyQEs9NypyUnh4VvTh2RqYfUU7NMSwSFcVev6CHdByQnd4PP+24jd9WVXtYf2U6EupPb98tX35oUb71kveHc35RPvHY38nON7kLNTKdfeAU/0iJIp3JAyQrl/4Eudfbjuf/4qFdpv0882ESj77xM9n7gqKp1+mH6usSvF423bwse5S83WKmvWwy0p7mY+ShC35ZzLj7/Df4K5HpaTax6UUvPxH6m6vi82vUo/FM8Z+pUCvl1mJMXWQ6uyKujltiL6fVI5Dp+jIdzDzRV9E0FUNfNcQVZxaDuiDThrqsv3mTLH92UdLNhdm5NH3RtZzYpR0ROK0+3Kd0+y3TsVB/9Pfkz7/8NTn8Q1+o13pC/U1noUamW+iufY4hrlr2ZPV+tr+m1UKr1soCma6Frd83FZ4Kok7o/a5m10qPTHetRSjPkAn0X6b91vmXQ3LrR/6HPPTw38g/eUJ92vlvlo9//TEnoUamp9m9CzbpTTPbRtO2/XBL0aqHF3fEm7sREDLdaOfsR2IWmc6dmduP2vSmlMh0b5qKgg6AwDBkOhDqRbn1A78jX/jbf5Tv/MgT6te8Te74q6/KR0tCPpDpafZiVab7+zm3OPRF5Vfv58en2QJdSxuZ7lqLtFMe848n8fVmmvSR6WnSJW0IZAkMR6Yjod72/m3yx99Ykn/1/v9pr3m7/MFfPyxbLrXHUCPTDAkItEcAmW6PNTmNmwAyPe72p/btEui0TB//0jtkzcZvyIsTMPmZC94ud37NLtTI9ARwuRUCFQkg0xWBcTkEahJApmuC4zYI1CDQbZn+yrXyy9ctynM1Khbfcs78VfLOD90t92+5TEzr08j0BHC5FQIVCSDTFYFxOQRqEkCma4LjNgjUINBpmT7x2KdlYcs+ObriWrMVefH5F+QHP3xZXvZuOfOSq+S6G2+XP/rtdfLK081pINOubLkOApMTQKYnZ0gKEHAhgEy7UOIaCDRDoNMyXbWKx+/xwkJ+0wsL+akv0lfKr97wu3Lvx+0i7aePTFelzPUQqE8Ama7PjjshUIUAMl2FFtdCYDICg5Hp4/dvlCs++CV54aQn0r/wJln/678v+0tEGpmerPNwNwSqEkCmqxLjegjUI4BM1+PGXRCoQ2AQMn1837vlzR94SL7ribT83Lxcs+Vu+bwn0hdYQjtUUKxM1+k23AOBegSQ6XrcuAsCVQkg01WJcT0E6hPouUyvyNE/uV5+5TcW5YUfexBe5Yn0h91FmpXp+h2HOyFQh8AwZTo8T3355kfl8dvm6mCZ8B4v/ysOy45v7pBZ5D5h4bl9SgSQ6SmBJVkIGAj0WKY9kf78TbLutx6QZ//NF+lLvNCOz8ne291WpGMWrEwzLiDQHgFkegqsg5+8X5ZNX39cdrxxCumTZC8JINO9bDYK3VMCPZXpFVm6933y9s0Pyff8FemzXitXfeQL8mBFkWZluqe9lmL3lsA4Zdpt5fjAwpVy+DabEIe/rrm8/ZjsfY/W/GUyHfyc97LccmyvbHTuOV6ZF0T27sveEfyS4TO3yDHt73GyZf/uX+f/ouiBdxvqEScS1EfknrLy+vW6fa08bixLAa8gH/9rwmdkbsAvIMi0c2cvvHD59htl/3v3ai+qZf2nrP95Wfr99yZvjBV8UQrG01c2yKMlX53863bOP55/Nrj09VrPh2bYDimVfsr0yydk6e+fkKMvhWfmnXX+vFz+S6utx98VNRgr00PqztSl6wTGItPBT9DLell/6BF5RGmU16mhIJE0rl/nXXNIuei1m9LJM7hGTSG8bv1doYzGP3WvtnuSRzBJ7pHnM51ivV1Sg+sXZW6deOUJ74rTMv4c+Lp7UqnOlVP5qXBbPT0+qjCX/+R4KCiLc+tFPK5qvWIesaxvtvEMJHpzpk28Wg5yVR+Zrv80zI/fuK+W95/cmEzGs73/Zp4L0Qtnpg+Hoz4dL4axGj0ZlDEV5rfnBYWDOmarPh/q4xzFnf2U6QabBpluECZJQaCEwKhk2hM6dZIMJ1llQowF1CDPqhxmkUYT5JwusnqYh+E6Mf1NST2ZXDXhjv4+Fwl8cIf2t1A+lDKphTbVM84rntyj/y+ZuPOovBK/XKRykPLRrwllR9SyKmUJyrmsvKzE4qL9bQgDGZmu34qxEBslt7D/FPU/U/+NX4j1l89HkhfmsBaRxGvj5fmcYO+RZAxFwr3B+PWlxvOhPs5R3IlMr6zIiRMnRtHYVBICsyYwKpnWBU0PxzCGZ5RvZswJoSkdy0Ra+NnYJM1ehzHfE62yvcvfdCnRCphl1dsShqLWQ/zP2Z+dy62ah6vVEq0cm18Gwmuie3VJz3R4i+i4hpXMevBUzB+Zrgis5KUrFtrci5rafwr7n+Vl1vRiani5y7yMG8eqln70Equ/EKQvw4uii7ZrWEl9ssO9E5lGpofbu6lZ5wgg08oKsqtMmz7H5laztZVpS3hI2CEs0muRaVMoSdKxks/G6udvLX2LTKsSLIYV4yCPzL0OMp3cE4XGlH7WjmsyvFAPZLr+48/0BSP+GpMNmzL0H3Xsqf3P+mVIfYGOXkzVL09RFqaXxszXIkP6auhUPsQsHz5W+Hyoj3MUdyLTyPQoOjqV7AYBZLqiTBtWl5xWpss2JZq6Q5FMO4dBpFKdhGIUrUxHYS+NynRct0RqIrm31K8bI6P5UiDT9ZkWyXRWYAvy0PufTaYzIU7NynRcukSq45fwOs+H+jhHcScyjUyPoqNTyW4QQKarybRTjK81zGOPOE/8fvcoCvMwhGDYe5Tpc3NxTHdm1U1JOBtn7rgyrRYsU6fyEJpujJJmSoFM1+dolOkobrnSefKZ/mcJ89DGrzlvbW+AS5iHXn01Hwk3J1d6PtTHOYo7kWlkehQdnUp2gwAyXUOmyzYtFk2sL+ghHQdkp3ec3A7Tj8vYVm5tcaBf3Ck7L93hHRmmH/2nSWuyQpeGUsQrZcnqdZyHYTNm+nnaQaa9vK5c2pH+eI5JVA7pIR1eurd7P3pzm/vBgd0YTcWlQKbrt5JZaA2bBYMslP5T2P+U0zX08CjTCT5KiIhtvBSFeejH5WVfWOOyVHg+1Mc5ijuRaWR6FB2dSnaDADJdTaaTXfxJ862XTTcvy57M2bPZI7By8qkejeWnk4njVPpFURiE8Rit+Ig+wxFcppjum+dkz2fTOM3cxihDHtlrHGS6NA3zcYKilrcbQ2XiUiDT9RHaZNpP0biHIO4/hf0v7r+bZNPyHuXIOsMeBsOeh8wJPy4r02VpxGEnrs+H+jhHcScyjUyPoqNTyW4QGKZMd4NtZ0tBfOZMmgaZngn2gkxLjqbsWnEpTyUCyDQyXanDcDEEJiGATE9Cr6f3ItMzaThkeibYkemuYW+pPMg0Mt1SVyMbCIgg0yPsBcj0TBodmZ4JdmS6a9hbKg8yjUy31NXIBgLINH0AAm0RQKbbIk0+EBBBppFpxgEEWiPAynRrqMlo5ASQ6ZF3AKrfKgFkGplutcOR2bgJINPjbn9q3x4BZLo91uQEAWQamWYUQKA1Ash0a6jJaOQEkOmRdwCq3yoBZBqZbrXDkdm4CSDT425/at8eAWS6PdbkBAFkGplmFECgNQLIdGuoyWjkBJDpkXcAqt8qAWQamW61w5HZuAkg0+Nuf2rfHgFkuj3W5AQBZBqZZhRAoDUCyHRrqMlo5ASQ6ZF3AKrfKgFkGplutcOR2bgJINPjbn9q3x4BZLo91uQEgdHL9E9+8hN5xSteQU+AAARaIHDq1CnxJ3n+gwAEIAABCAyFgD+3zdolV3mFODUUoNQDAhCAAAQgAAEIQAACbRJAptukTV4QgAAEIAABCEAAAoMigEwPqjmpDAQgAAEIQAACEIBAmwSQ6TZpkxcEIAABCEAAAhCAwKAIINODak4qAwEIQAACEIAABCDQJgFkuk3a5AUBCEAAAhCAAAQgMCgCyPSgmpPKQAACEIAABCAAAQi0SQCZbpM2eU1IYEm2rV4ju58V2XDfKTn4/gmT43YINE4g7aN+0qs/9rQcuWNe9m9YJQsPR5lds09OLd7QeM5BgvdfK6tuWpKth4/IrkunkwWpQqAXBJ7aJhev3S1Hg8KujsaEeXxOoz7BmF/aKk8f3SXz08iANDtFYOQyvV+uXbUgi16TDFfO0jrGE3uneqBXmEQ0Lip78NSU6UAw/FYO/zO3dfYhK0lZCvpIku4G2XfqoKh6tLT9YllzZ/gYD/+LH+Zdo0953AmkfUG/J+lTJpmNJvX5hl8A92+4WJ64IyvNcb8b7vPMvbW4svsEwv46n3t+NlFyo8xO5WXTey6sfkJ2ZaQ5nk/yc0MTdSON7hFApmvKdCJL01xlqthfYinNSnM/Zdpcl3oynRNbk7Rrwl1fpjUpz7QhD9aKXbpjl4djaSlabTYVzigH05rAS8rSMXgUBwI5AtOT6eg5PJ/9CjSV/KYyvuksfSOATA9epvvWJcPyTkWmL1otq5896n32y68SJ/l51xz1rqkr0+rn/MzqYLA6uSSf0law+9k6Yy31NGTaT/NWmS8My/Cu2SByMBMaUl6Waq3kUo5qKXI1BMoIlMmt/+/b1h6xh/RZn6s1ZNrlGe2J87VyMFuepmXapRxlYPn31gkg07pMRyuU/urup55ak8Y5SryqaFl5VFaoM/GRfpNmVq+jlWJvdXTfew/IQhAK4Ke9IPuisqi9IPe5NhMHFqctSbiKem+4Qi3mOGM9nYJyPv3JJVlTGibhJRCv7mZWfuOVcVVgsyvMuw5HIREBJ9e67BO5KQzR8f8rCmFJVqa9cm2d3y27/dhVU5v47XCfyIJf11phHt3/CtD6E2ZQGRYJrOm5sEE2X7Mo98Sx0mFPjWI3TSEj2kue/rXEv93vl9p4DJKN+6s6sT8Zhjfpz5BwPIh7OQbVhlSmSwRyMh3MSwdk/hqRxYfVMDntq55p/ornaOPcdodsXdoe7LdJ/4vSLEorujg3p0dzTtYRsnORGmbyZLBnQv8yGT0zJApvdChHl9qOsmQJINMWmTZ2lGDC+qDcG22Cy1wTyNllibjm7k/kzTSJbpA7PrYk2zMxtnEKygRrmly9yzbclxXL5E6bTFvSyUzKYo8Ptcf/GsRZySsV3ux1H7yvukyb2scWJ6rKdCoi6YMtE7Lzvn1hfLVBpu0PD/2hTHz0MB+05jGhvsi5hnmY4jmzf4vy0sLI9m/fJpfd4W9osoh9ZpXMtDqX/Vt5OYbZktSqGwTMMu1vGlTEM5JMScKryvu1iOvKtENa0RyWnV/2y7btl8kub3OxbdNvZmyZ9k1k/uZQjm40GaWwEECmC2Q6u6nIXwNNJckYM528WapvoPEEHP9NmZAL4631jW/Kype2Cr7vfeHJFm6hEeZ0klVl08qZ4UXAvBKcpm08xSCzepYKq8Sb9Qyr+9l8lLInsmupj9LhMzKtvAyF7avFYXsf8WrLdPLigEwP84lrecFU+q2bTIfpiL4hMeg/Em7GKt206CLTnlJkVqG9Vsmk61COYTYkteoIAZtMZzfraqIZrV5v1EKjgrQe2BidnuEo0w5phfNTwSZJS5hH9kVVW4X2+Gfq7lAOTgTpSKdFpk0EDCc1OIYqmGQ6f4KDmqf+edcet6uXNJQ+U7hE9ko3mbalo2/uM19nziMth1FcvVWGDV5AxuKz4QuFRMeExaJsYulWlzDfss2g2TLtkkTefSH/ihdW4h+fZBH9eAXQeOKLfpoHMt3tp93EpSuPU3aSaePn3OR7Uhh+EYRoFB1x5ybTsTzHq3r5CTw+OkyHwwvhxN2FBEoJ1JLpoi+rejhm2QZEh7SC+aroiDsnmdZfbDXZdyjHlA7TLG0jLnAjwMq0bWW6JO63aZk2xWTFTdgnmY4n72CT330b5cBN3mTtrdw9femtwVFxG+57WuY/4Z8VXbzKP02Znk9kxtuQeJG3IfFZJeY69zJleOGKG0aXaUWSunoModtjgavMBJqV6cKj8ko3NTnKtFeRdIUsDFE78N7w7OvsKjVtDoH2CdSX6bKz1B1XpkvHmTp+LOdFO8q0l1J6GtBN9wax4cnqukM52m8dcqxCAJmeVKZV6dblytgS5Rvywh8j0VeK3cM8spvr3NKxh3lkV6jKVqbVcq+OTsYIXgaS8InoRA2FW9HKdHFd6q1MzytswxQMcem1NiAqZ2Z7qeoxduWnNlQZulzbPoGGZNoW76xWqKEwjyDJeKIOXm6VCdylHO1DJscREagl06VjQ5k/y1amHdIqO3HEKWY6atP4xTY4fCAJSfH+0aEcI+oWvawqMl1TplP5jNq9bANiTs7MkmrqRbGU2cJIbP9uO82jMBwlFx9dVaaVsIugMoZYcV9flbN6XVb5i04mqRrm4ceeZRiYXohqynS6Mm9qST6d9/IpmRS6KZmOX7r0/uC9+G5/0tvU5H/QNfzogy/Fn5gvjAk1T+xKrLd2xnr4clxUjn63GKXvNoFaMm0aG0E1lU2BVTcgRiGIaSiFklb8xVHb03PrpcVfeOw/GhOeQWXeD6Sf+KHWqdttOfbSIdN1ZVpf3UwGmuXovBKZVld0w065QbZ6J3zsDkIj0p/Ozomw8Yi3MIXCo/EMMVrmH3upLtMZoVQm7zSUJZumWYazm72alun4k1suFnqSMA/laZIP20Gk+/+wtZ9wk32h1TYrFX0Gzhyb5xEyhpel5KzPAtPReMrPiRd9UTKGmJX+Gmn/W5MazJ5APZn2y112RK1jmEeAoCwt75LcfKlKb/b+zOb7XKx10d4nh3LMvskogYXAyGWafgEBCEAAAhCAAAQgAIH6BJDp+uy4EwIQgAAEIAABCEBg5ASQ6ZF3AKoPAQhAAAIQgAAEIFCfADJdnx13QgACEIAABCAAAQiMnAAyPfIOQPUhAAEIQAACEIAABOoTQKbrs+NOCEAAAhCAAAQgAIGRE0CmR94BqD4EIAABCEAAAhCAQH0CyHR9dtwJAQhAAAIQgAAEIDByAsj0yDsA1YcABCAAAQhAAAIQqE8Ama7PjjsdCJT91LdDElwCAQhAAAIQgAAEOksAme5s0wyjYMj0MNqRWkAAAhCAAAQgYCaATNMzpkoAmZ4qXhKHAAQgAAEIQGDGBJDpGTfA0LNHpofewtQPAhCAAAQgMG4CyHTv23+/XLtqQRbjely0VZ4+ukvmo/+/f8MqWXhYreRq2Xr4iOy6NPxbLLsb7nta5j+xRnY/G10bpSPbL5Y1dx6N/rhB9p06KDcE/y/K17/uKyLXrt0t8VWrP/a0HLkjLIFNpnPlumafnFr0Un5qm1wcpbXhvlNy8P1eIsnf1Px733BUAAIQgAAEIACBARBApvvciIp4ZnQ5kFmRbasVOdbqGYtqIruuHGLpjWXacl8u/eS+JXu5omuSMkVC/2T0QqBKumtxuQ4CEIAABCAAAQhMkwAyPU26U047Wd1VVqN9Eb1WDsqRtdtk1U3+erW6Eq2IrC6uynXqqnFeuuPV4XRFPJXcgvRzK8+GVW4xpH3Rajn6rLfmra24Txk8ptA4AAADhElEQVQtyUMAAhCAAAQgAAEnAsi0E6YuXpSKaxIOoRTTGqt8/7WhZOthHMnKsZeIdk0QsJELtYhl2hw2Yku/eCVcSSsuQ1QnUx272CqUCQIQgAAEIACBcRFApnvb3sOWaV26CfHobUel4BCAAAQgAIFBE0Cme9y8jYZ51F6Z9gJJkg2HymZIPYwkTj9ZcS7YTJisgq+WDdeILD7sb21k82GPuypFhwAEIAABCAyWADLd56bVQiHiqoRy+2T2lI9MPdNwCmM4SKUwDxPAovQLNiAaNxwqGylV4e9zu1F2CEAAAhCAAAQGQwCZ7ntT6kKd2ahnEtfsCu/kMu2J830b5cBN6dF4anyzOXbbItR+2T+5JGuCjZNKOZM6ZuOz+950lB8CEIAABCAAgf4TQKb734YzqoF5A+KMCkO2EIAABCAAAQhAYCYEkOmZYB9Cpsj0EFqROkAAAhCAAAQgMBkBZHoyfiO+G5keceNTdQhAAAIQgAAEIgLINF0BAhCAAAQgAAEIQAACNQkg0zXBcRsEIAABCEAAAhCAAASQafoABCAAAQhAAAIQgAAEahJApmuC4zYIQAACEIAABCAAAQgg0/QBCEAAAhCAAAQgAAEI1CSATNcEx20QgAAEIAABCEAAAhBApukDEIAABCAAAQhAAAIQqEkAma4JjtsgAAEIQAACEIAABCAwU5l+8MEH5cMf/jCtAAEIQAACEIAABCAAgcoErr/+ern77rsr39fkDTOX6VtuuaXJ+pAWBCAAAQhAAAIQgMBICLzzne8ct0yPpJ2pJgQgAAEIQAACEIDAQAnMdGV6oEypFgQgAAEIQAACEIDASAgg0yNpaKoJAQhAAAIQgAAEINA8AWS6eaakCAEIQAACEIAABCAwEgKrNv/PU6fklFZb2/93vS5OLr5+2vdNO32/PtPOQ08/1wGVC1bp/xj9W/D3ooQc0rDlm+TZRBpqJhawtjqaBuaqCmmo6cb3qXVTGeb+7mWe+Xedhff/Ten7ZTbdZ0o/uFYZOPE1k5YrKYMl/ThfnbvKtqwOcduY+kqOgaGv2vqvysOUh6mvuIyRzDXqGNIeYLn+FZU909Yu9dHyKByvZQ8cyzPAOnGVPWCmnZ9D/oWXONyfqXvV68t4aull/u+U82qzXkXzjrVvlc072ngqTMf1H8uYR+k4XeZ0kWPBXNJyucYxOy7rDIH/C+R5e8PRhoh/AAAAAElFTkSuQmCC;" parent="1" vertex="1">
          <mxGeometry x="720" y="358.44" width="387.46" height="203.11" as="geometry" />
        </mxCell>
        <mxCell id="mSTmqn3cuCYTXXYq5UbM-28" style="edgeStyle=none;curved=1;rounded=0;orthogonalLoop=1;jettySize=auto;html=1;entryX=0.5;entryY=0;entryDx=0;entryDy=0;fontSize=12;startSize=8;endSize=8;" parent="1" source="mSTmqn3cuCYTXXYq5UbM-23" target="mSTmqn3cuCYTXXYq5UbM-26" edge="1">
          <mxGeometry relative="1" as="geometry" />
        </mxCell>
        <mxCell id="mSTmqn3cuCYTXXYq5UbM-23" value="Location" style="rounded=0;whiteSpace=wrap;html=1;" parent="1" vertex="1">
          <mxGeometry x="620" y="650" width="120" height="60" as="geometry" />
        </mxCell>
        <mxCell id="mSTmqn3cuCYTXXYq5UbM-32" style="edgeStyle=none;curved=1;rounded=0;orthogonalLoop=1;jettySize=auto;html=1;entryX=0.5;entryY=0;entryDx=0;entryDy=0;fontSize=12;startSize=8;endSize=8;" parent="1" source="mSTmqn3cuCYTXXYq5UbM-25" target="mSTmqn3cuCYTXXYq5UbM-31" edge="1">
          <mxGeometry relative="1" as="geometry" />
        </mxCell>
        <mxCell id="mSTmqn3cuCYTXXYq5UbM-34" style="edgeStyle=none;curved=1;rounded=0;orthogonalLoop=1;jettySize=auto;html=1;fontSize=12;startSize=8;endSize=8;" parent="1" source="mSTmqn3cuCYTXXYq5UbM-25" target="mSTmqn3cuCYTXXYq5UbM-33" edge="1">
          <mxGeometry relative="1" as="geometry" />
        </mxCell>
        <mxCell id="mSTmqn3cuCYTXXYq5UbM-35" value="&lt;div&gt;Intracellular cytoplasm&amp;nbsp;&lt;/div&gt;&lt;div&gt;antigens are&lt;/div&gt;&lt;div&gt;presented on&lt;/div&gt;" style="edgeLabel;html=1;align=center;verticalAlign=middle;resizable=0;points=[];fontSize=12;" parent="mSTmqn3cuCYTXXYq5UbM-34" vertex="1" connectable="0">
          <mxGeometry x="-0.2947" y="3" relative="1" as="geometry">
            <mxPoint as="offset" />
          </mxGeometry>
        </mxCell>
        <mxCell id="mSTmqn3cuCYTXXYq5UbM-39" style="edgeStyle=none;curved=1;rounded=0;orthogonalLoop=1;jettySize=auto;html=1;fontSize=12;startSize=8;endSize=8;" parent="1" source="mSTmqn3cuCYTXXYq5UbM-25" target="mSTmqn3cuCYTXXYq5UbM-38" edge="1">
          <mxGeometry relative="1" as="geometry" />
        </mxCell>
        <mxCell id="mSTmqn3cuCYTXXYq5UbM-40" value="&lt;div&gt;intracellular on antigen&lt;/div&gt;&lt;div&gt;on vacuole&lt;/div&gt;" style="edgeLabel;html=1;align=center;verticalAlign=middle;resizable=0;points=[];fontSize=12;" parent="mSTmqn3cuCYTXXYq5UbM-39" vertex="1" connectable="0">
          <mxGeometry x="0.0433" relative="1" as="geometry">
            <mxPoint as="offset" />
          </mxGeometry>
        </mxCell>
        <mxCell id="mSTmqn3cuCYTXXYq5UbM-25" value="Intracellular" style="rounded=0;whiteSpace=wrap;html=1;" parent="1" vertex="1">
          <mxGeometry x="540" y="760" width="120" height="60" as="geometry" />
        </mxCell>
        <mxCell id="mSTmqn3cuCYTXXYq5UbM-30" style="edgeStyle=none;curved=1;rounded=0;orthogonalLoop=1;jettySize=auto;html=1;fontSize=12;startSize=8;endSize=8;" parent="1" source="mSTmqn3cuCYTXXYq5UbM-26" target="mSTmqn3cuCYTXXYq5UbM-29" edge="1">
          <mxGeometry relative="1" as="geometry" />
        </mxCell>
        <mxCell id="mSTmqn3cuCYTXXYq5UbM-26" value="Extracellular" style="rounded=0;whiteSpace=wrap;html=1;" parent="1" vertex="1">
          <mxGeometry x="740" y="750" width="120" height="60" as="geometry" />
        </mxCell>
        <mxCell id="mSTmqn3cuCYTXXYq5UbM-27" style="edgeStyle=none;curved=1;rounded=0;orthogonalLoop=1;jettySize=auto;html=1;entryX=0.588;entryY=0.078;entryDx=0;entryDy=0;entryPerimeter=0;fontSize=12;startSize=8;endSize=8;" parent="1" source="mSTmqn3cuCYTXXYq5UbM-23" target="mSTmqn3cuCYTXXYq5UbM-25" edge="1">
          <mxGeometry relative="1" as="geometry" />
        </mxCell>
        <mxCell id="mSTmqn3cuCYTXXYq5UbM-29" value="&lt;div&gt;B Cell&lt;/div&gt;" style="rounded=0;whiteSpace=wrap;html=1;" parent="1" vertex="1">
          <mxGeometry x="800" y="850" width="120" height="40" as="geometry" />
        </mxCell>
        <mxCell id="mSTmqn3cuCYTXXYq5UbM-31" value="T Cells" style="rounded=0;whiteSpace=wrap;html=1;" parent="1" vertex="1">
          <mxGeometry x="370" y="880" width="120" height="60" as="geometry" />
        </mxCell>
        <mxCell id="mSTmqn3cuCYTXXYq5UbM-37" style="edgeStyle=none;curved=1;rounded=0;orthogonalLoop=1;jettySize=auto;html=1;entryX=0.5;entryY=0;entryDx=0;entryDy=0;fontSize=12;startSize=8;endSize=8;" parent="1" source="mSTmqn3cuCYTXXYq5UbM-33" target="mSTmqn3cuCYTXXYq5UbM-36" edge="1">
          <mxGeometry relative="1" as="geometry" />
        </mxCell>
        <mxCell id="mSTmqn3cuCYTXXYq5UbM-44" value="&lt;div&gt;on&lt;/div&gt;" style="edgeLabel;html=1;align=center;verticalAlign=middle;resizable=0;points=[];fontSize=12;" parent="mSTmqn3cuCYTXXYq5UbM-37" vertex="1" connectable="0">
          <mxGeometry x="-0.0458" y="2" relative="1" as="geometry">
            <mxPoint as="offset" />
          </mxGeometry>
        </mxCell>
        <mxCell id="mSTmqn3cuCYTXXYq5UbM-33" value="MHC Class 1" style="rounded=0;whiteSpace=wrap;html=1;" parent="1" vertex="1">
          <mxGeometry x="450" y="950" width="120" height="60" as="geometry" />
        </mxCell>
        <mxCell id="mSTmqn3cuCYTXXYq5UbM-36" value="All nucelus cells" style="rounded=0;whiteSpace=wrap;html=1;" parent="1" vertex="1">
          <mxGeometry x="450" y="1050" width="120" height="60" as="geometry" />
        </mxCell>
        <mxCell id="mSTmqn3cuCYTXXYq5UbM-38" value="MHC Class 2" style="rounded=0;whiteSpace=wrap;html=1;" parent="1" vertex="1">
          <mxGeometry x="710" y="940" width="120" height="60" as="geometry" />
        </mxCell>
        <mxCell id="mSTmqn3cuCYTXXYq5UbM-41" value="Dendritic, Activated Macrophage, naive B Cell" style="rounded=0;whiteSpace=wrap;html=1;" parent="1" vertex="1">
          <mxGeometry x="650" y="1060" width="120" height="60" as="geometry" />
        </mxCell>
        <mxCell id="mSTmqn3cuCYTXXYq5UbM-42" style="edgeStyle=none;curved=1;rounded=0;orthogonalLoop=1;jettySize=auto;html=1;entryX=0.591;entryY=0.061;entryDx=0;entryDy=0;entryPerimeter=0;fontSize=12;startSize=8;endSize=8;" parent="1" source="mSTmqn3cuCYTXXYq5UbM-38" target="mSTmqn3cuCYTXXYq5UbM-41" edge="1">
          <mxGeometry relative="1" as="geometry" />
        </mxCell>
        <mxCell id="mSTmqn3cuCYTXXYq5UbM-43" value="on" style="edgeLabel;html=1;align=center;verticalAlign=middle;resizable=0;points=[];fontSize=12;" parent="mSTmqn3cuCYTXXYq5UbM-42" vertex="1" connectable="0">
          <mxGeometry x="-0.1081" y="-4" relative="1" as="geometry">
            <mxPoint as="offset" />
          </mxGeometry>
        </mxCell>
        <mxCell id="mSTmqn3cuCYTXXYq5UbM-49" style="edgeStyle=none;curved=1;rounded=0;orthogonalLoop=1;jettySize=auto;html=1;fontSize=12;startSize=8;endSize=8;" parent="1" source="mSTmqn3cuCYTXXYq5UbM-45" target="mSTmqn3cuCYTXXYq5UbM-48" edge="1">
          <mxGeometry relative="1" as="geometry" />
        </mxCell>
        <mxCell id="mSTmqn3cuCYTXXYq5UbM-52" style="edgeStyle=none;curved=1;rounded=0;orthogonalLoop=1;jettySize=auto;html=1;fontSize=12;startSize=8;endSize=8;" parent="1" source="mSTmqn3cuCYTXXYq5UbM-45" target="mSTmqn3cuCYTXXYq5UbM-51" edge="1">
          <mxGeometry relative="1" as="geometry" />
        </mxCell>
        <mxCell id="mSTmqn3cuCYTXXYq5UbM-45" value="Response" style="rounded=0;whiteSpace=wrap;html=1;" parent="1" vertex="1">
          <mxGeometry x="50" y="1230" width="120" height="60" as="geometry" />
        </mxCell>
        <mxCell id="mSTmqn3cuCYTXXYq5UbM-46" style="edgeStyle=none;curved=1;rounded=0;orthogonalLoop=1;jettySize=auto;html=1;entryX=0.661;entryY=0.047;entryDx=0;entryDy=0;entryPerimeter=0;fontSize=12;startSize=8;endSize=8;" parent="1" source="A8HuUgFNBGQ7eRud8v6M-34" target="mSTmqn3cuCYTXXYq5UbM-45" edge="1">
          <mxGeometry relative="1" as="geometry">
            <Array as="points">
              <mxPoint x="200" y="960" />
            </Array>
          </mxGeometry>
        </mxCell>
        <mxCell id="mSTmqn3cuCYTXXYq5UbM-55" style="edgeStyle=none;curved=1;rounded=0;orthogonalLoop=1;jettySize=auto;html=1;entryX=0;entryY=0.25;entryDx=0;entryDy=0;fontSize=12;startSize=8;endSize=8;" parent="1" source="mSTmqn3cuCYTXXYq5UbM-48" target="mSTmqn3cuCYTXXYq5UbM-54" edge="1">
          <mxGeometry relative="1" as="geometry" />
        </mxCell>
        <mxCell id="mSTmqn3cuCYTXXYq5UbM-48" value="Primary" style="rounded=0;whiteSpace=wrap;html=1;" parent="1" vertex="1">
          <mxGeometry x="-100" y="1320" width="120" height="60" as="geometry" />
        </mxCell>
        <mxCell id="mSTmqn3cuCYTXXYq5UbM-51" value="Secondary" style="rounded=0;whiteSpace=wrap;html=1;" parent="1" vertex="1">
          <mxGeometry x="185" y="1320" width="120" height="60" as="geometry" />
        </mxCell>
        <mxCell id="mSTmqn3cuCYTXXYq5UbM-56" style="edgeStyle=none;curved=1;rounded=0;orthogonalLoop=1;jettySize=auto;html=1;entryX=0.25;entryY=1;entryDx=0;entryDy=0;fontSize=12;startSize=8;endSize=8;" parent="1" source="mSTmqn3cuCYTXXYq5UbM-54" target="mSTmqn3cuCYTXXYq5UbM-51" edge="1">
          <mxGeometry relative="1" as="geometry" />
        </mxCell>
        <mxCell id="mSTmqn3cuCYTXXYq5UbM-58" style="edgeStyle=none;curved=1;rounded=0;orthogonalLoop=1;jettySize=auto;html=1;entryX=0.75;entryY=0;entryDx=0;entryDy=0;fontSize=12;startSize=8;endSize=8;" parent="1" source="mSTmqn3cuCYTXXYq5UbM-54" target="mSTmqn3cuCYTXXYq5UbM-57" edge="1">
          <mxGeometry relative="1" as="geometry" />
        </mxCell>
        <mxCell id="mSTmqn3cuCYTXXYq5UbM-62" style="edgeStyle=none;curved=1;rounded=0;orthogonalLoop=1;jettySize=auto;html=1;entryX=0.5;entryY=0;entryDx=0;entryDy=0;fontSize=12;startSize=8;endSize=8;" parent="1" source="mSTmqn3cuCYTXXYq5UbM-54" target="mSTmqn3cuCYTXXYq5UbM-61" edge="1">
          <mxGeometry relative="1" as="geometry" />
        </mxCell>
        <mxCell id="mSTmqn3cuCYTXXYq5UbM-54" value="Vaccination" style="rounded=0;whiteSpace=wrap;html=1;" parent="1" vertex="1">
          <mxGeometry x="50" y="1400" width="120" height="60" as="geometry" />
        </mxCell>
        <mxCell id="mSTmqn3cuCYTXXYq5UbM-57" value="Adjuvant" style="rounded=0;whiteSpace=wrap;html=1;" parent="1" vertex="1">
          <mxGeometry x="-10" y="1490" width="120" height="60" as="geometry" />
        </mxCell>
        <mxCell id="mSTmqn3cuCYTXXYq5UbM-59" value="Aluminum Hydroxide gel (alum) or Lipid nanoparticles" style="rounded=0;whiteSpace=wrap;html=1;" parent="1" vertex="1">
          <mxGeometry x="-60" y="1580" width="120" height="60" as="geometry" />
        </mxCell>
        <mxCell id="mSTmqn3cuCYTXXYq5UbM-60" style="edgeStyle=none;curved=1;rounded=0;orthogonalLoop=1;jettySize=auto;html=1;entryX=0.625;entryY=-0.005;entryDx=0;entryDy=0;entryPerimeter=0;fontSize=12;startSize=8;endSize=8;" parent="1" source="mSTmqn3cuCYTXXYq5UbM-57" target="mSTmqn3cuCYTXXYq5UbM-59" edge="1">
          <mxGeometry relative="1" as="geometry" />
        </mxCell>
        <mxCell id="mSTmqn3cuCYTXXYq5UbM-64" style="edgeStyle=none;curved=1;rounded=0;orthogonalLoop=1;jettySize=auto;html=1;entryX=0.5;entryY=0;entryDx=0;entryDy=0;fontSize=12;startSize=8;endSize=8;" parent="1" source="mSTmqn3cuCYTXXYq5UbM-61" target="mSTmqn3cuCYTXXYq5UbM-63" edge="1">
          <mxGeometry relative="1" as="geometry" />
        </mxCell>
        <mxCell id="mSTmqn3cuCYTXXYq5UbM-68" value="lower pathogenicity" style="edgeLabel;html=1;align=center;verticalAlign=middle;resizable=0;points=[];fontSize=12;" parent="mSTmqn3cuCYTXXYq5UbM-64" vertex="1" connectable="0">
          <mxGeometry x="-0.4317" y="1" relative="1" as="geometry">
            <mxPoint as="offset" />
          </mxGeometry>
        </mxCell>
        <mxCell id="mSTmqn3cuCYTXXYq5UbM-69" style="edgeStyle=none;curved=1;rounded=0;orthogonalLoop=1;jettySize=auto;html=1;entryX=0;entryY=0.25;entryDx=0;entryDy=0;fontSize=12;startSize=8;endSize=8;" parent="1" source="mSTmqn3cuCYTXXYq5UbM-61" target="mSTmqn3cuCYTXXYq5UbM-66" edge="1">
          <mxGeometry relative="1" as="geometry" />
        </mxCell>
        <mxCell id="mSTmqn3cuCYTXXYq5UbM-61" value="PAMP" style="rounded=0;whiteSpace=wrap;html=1;" parent="1" vertex="1">
          <mxGeometry x="140" y="1490" width="120" height="60" as="geometry" />
        </mxCell>
        <mxCell id="mSTmqn3cuCYTXXYq5UbM-63" value="Live attenuated" style="rounded=0;whiteSpace=wrap;html=1;" parent="1" vertex="1">
          <mxGeometry x="140" y="1610" width="120" height="60" as="geometry" />
        </mxCell>
        <mxCell id="mSTmqn3cuCYTXXYq5UbM-66" value="mRNA" style="rounded=0;whiteSpace=wrap;html=1;" parent="1" vertex="1">
          <mxGeometry x="320" y="1450" width="120" height="60" as="geometry" />
        </mxCell>
        <mxCell id="mSTmqn3cuCYTXXYq5UbM-67" value="Inactivated" style="rounded=0;whiteSpace=wrap;html=1;" parent="1" vertex="1">
          <mxGeometry x="370" y="1590" width="120" height="60" as="geometry" />
        </mxCell>
        <mxCell id="mSTmqn3cuCYTXXYq5UbM-70" style="edgeStyle=none;curved=1;rounded=0;orthogonalLoop=1;jettySize=auto;html=1;entryX=0.369;entryY=0.029;entryDx=0;entryDy=0;entryPerimeter=0;fontSize=12;startSize=8;endSize=8;" parent="1" source="mSTmqn3cuCYTXXYq5UbM-61" target="mSTmqn3cuCYTXXYq5UbM-67" edge="1">
          <mxGeometry relative="1" as="geometry" />
        </mxCell>
        <mxCell id="mSTmqn3cuCYTXXYq5UbM-71" value="&lt;div&gt;no longer biologically&amp;nbsp;&lt;/div&gt;&lt;div&gt;activated&lt;/div&gt;" style="edgeLabel;html=1;align=center;verticalAlign=middle;resizable=0;points=[];fontSize=12;" parent="mSTmqn3cuCYTXXYq5UbM-70" vertex="1" connectable="0">
          <mxGeometry x="-0.2254" y="-2" relative="1" as="geometry">
            <mxPoint as="offset" />
          </mxGeometry>
        </mxCell>
        <mxCell id="7Mr0FkpDf2ZOhA75nSAg-2" style="edgeStyle=orthogonalEdgeStyle;rounded=0;orthogonalLoop=1;jettySize=auto;html=1;entryX=0;entryY=0.5;entryDx=0;entryDy=0;" edge="1" parent="1" source="7Mr0FkpDf2ZOhA75nSAg-1" target="A8HuUgFNBGQ7eRud8v6M-1">
          <mxGeometry relative="1" as="geometry" />
        </mxCell>
        <mxCell id="7Mr0FkpDf2ZOhA75nSAg-1" value="Tissue" style="rounded=0;whiteSpace=wrap;html=1;" vertex="1" parent="1">
          <mxGeometry x="-160" y="220" width="120" height="60" as="geometry" />
        </mxCell>
        <mxCell id="7Mr0FkpDf2ZOhA75nSAg-6" value="" style="edgeStyle=orthogonalEdgeStyle;rounded=0;orthogonalLoop=1;jettySize=auto;html=1;" edge="1" parent="1" source="7Mr0FkpDf2ZOhA75nSAg-3" target="7Mr0FkpDf2ZOhA75nSAg-1">
          <mxGeometry relative="1" as="geometry" />
        </mxCell>
        <mxCell id="7Mr0FkpDf2ZOhA75nSAg-3" value="Secondary" style="rounded=0;whiteSpace=wrap;html=1;" vertex="1" parent="1">
          <mxGeometry x="-320" y="220" width="120" height="60" as="geometry" />
        </mxCell>
        <mxCell id="7Mr0FkpDf2ZOhA75nSAg-5" style="edgeStyle=orthogonalEdgeStyle;rounded=0;orthogonalLoop=1;jettySize=auto;html=1;entryX=0.5;entryY=0;entryDx=0;entryDy=0;" edge="1" parent="1" source="7Mr0FkpDf2ZOhA75nSAg-4" target="7Mr0FkpDf2ZOhA75nSAg-1">
          <mxGeometry relative="1" as="geometry" />
        </mxCell>
        <mxCell id="7Mr0FkpDf2ZOhA75nSAg-4" value="Primary" style="rounded=0;whiteSpace=wrap;html=1;" vertex="1" parent="1">
          <mxGeometry x="-160" y="110" width="120" height="60" as="geometry" />
        </mxCell>
        <mxCell id="7Mr0FkpDf2ZOhA75nSAg-10" value="" style="edgeStyle=orthogonalEdgeStyle;rounded=0;orthogonalLoop=1;jettySize=auto;html=1;" edge="1" parent="1" source="7Mr0FkpDf2ZOhA75nSAg-7" target="7Mr0FkpDf2ZOhA75nSAg-4">
          <mxGeometry relative="1" as="geometry" />
        </mxCell>
        <mxCell id="7Mr0FkpDf2ZOhA75nSAg-7" value="Bone Marrow" style="rounded=0;whiteSpace=wrap;html=1;" vertex="1" parent="1">
          <mxGeometry x="-250" width="120" height="60" as="geometry" />
        </mxCell>
        <mxCell id="7Mr0FkpDf2ZOhA75nSAg-9" value="" style="edgeStyle=orthogonalEdgeStyle;rounded=0;orthogonalLoop=1;jettySize=auto;html=1;" edge="1" parent="1" source="7Mr0FkpDf2ZOhA75nSAg-8" target="7Mr0FkpDf2ZOhA75nSAg-4">
          <mxGeometry relative="1" as="geometry" />
        </mxCell>
        <mxCell id="7Mr0FkpDf2ZOhA75nSAg-8" value="&lt;div&gt;Thymus&lt;/div&gt;" style="rounded=0;whiteSpace=wrap;html=1;" vertex="1" parent="1">
          <mxGeometry x="-140" y="-70" width="120" height="60" as="geometry" />
        </mxCell>
        <mxCell id="7Mr0FkpDf2ZOhA75nSAg-12" value="" style="edgeStyle=orthogonalEdgeStyle;rounded=0;orthogonalLoop=1;jettySize=auto;html=1;" edge="1" parent="1" source="7Mr0FkpDf2ZOhA75nSAg-11" target="7Mr0FkpDf2ZOhA75nSAg-3">
          <mxGeometry relative="1" as="geometry" />
        </mxCell>
        <mxCell id="7Mr0FkpDf2ZOhA75nSAg-11" value="Spleen" style="rounded=0;whiteSpace=wrap;html=1;" vertex="1" parent="1">
          <mxGeometry x="-390" y="-90" width="120" height="60" as="geometry" />
        </mxCell>
        <mxCell id="7Mr0FkpDf2ZOhA75nSAg-14" style="edgeStyle=orthogonalEdgeStyle;rounded=0;orthogonalLoop=1;jettySize=auto;html=1;entryX=0.25;entryY=0;entryDx=0;entryDy=0;" edge="1" parent="1" source="7Mr0FkpDf2ZOhA75nSAg-13" target="7Mr0FkpDf2ZOhA75nSAg-3">
          <mxGeometry relative="1" as="geometry" />
        </mxCell>
        <mxCell id="7Mr0FkpDf2ZOhA75nSAg-13" value="lymph node" style="rounded=0;whiteSpace=wrap;html=1;" vertex="1" parent="1">
          <mxGeometry x="-470" y="140" width="120" height="60" as="geometry" />
        </mxCell>
        <mxCell id="7Mr0FkpDf2ZOhA75nSAg-16" value="" style="edgeStyle=orthogonalEdgeStyle;rounded=0;orthogonalLoop=1;jettySize=auto;html=1;" edge="1" parent="1" source="7Mr0FkpDf2ZOhA75nSAg-15" target="7Mr0FkpDf2ZOhA75nSAg-3">
          <mxGeometry relative="1" as="geometry" />
        </mxCell>
        <mxCell id="7Mr0FkpDf2ZOhA75nSAg-15" value="Tonsils" style="rounded=0;whiteSpace=wrap;html=1;" vertex="1" parent="1">
          <mxGeometry x="-480" y="220" width="120" height="60" as="geometry" />
        </mxCell>
        <mxCell id="7Mr0FkpDf2ZOhA75nSAg-20" value="" style="edgeStyle=orthogonalEdgeStyle;rounded=0;orthogonalLoop=1;jettySize=auto;html=1;" edge="1" parent="1" source="7Mr0FkpDf2ZOhA75nSAg-17" target="7Mr0FkpDf2ZOhA75nSAg-13">
          <mxGeometry relative="1" as="geometry" />
        </mxCell>
        <mxCell id="7Mr0FkpDf2ZOhA75nSAg-17" value="Upper panel" style="rounded=0;whiteSpace=wrap;html=1;" vertex="1" parent="1">
          <mxGeometry x="-520" y="30" width="120" height="60" as="geometry" />
        </mxCell>
        <mxCell id="7Mr0FkpDf2ZOhA75nSAg-19" value="" style="edgeStyle=orthogonalEdgeStyle;rounded=0;orthogonalLoop=1;jettySize=auto;html=1;" edge="1" parent="1" source="7Mr0FkpDf2ZOhA75nSAg-18" target="7Mr0FkpDf2ZOhA75nSAg-13">
          <mxGeometry relative="1" as="geometry">
            <Array as="points">
              <mxPoint x="-580" y="120" />
              <mxPoint x="-410" y="120" />
            </Array>
          </mxGeometry>
        </mxCell>
        <mxCell id="7Mr0FkpDf2ZOhA75nSAg-18" value="Lower Panel" style="rounded=0;whiteSpace=wrap;html=1;" vertex="1" parent="1">
          <mxGeometry x="-640" y="30" width="120" height="60" as="geometry" />
        </mxCell>
        <mxCell id="7Mr0FkpDf2ZOhA75nSAg-21" value="White pulp" style="rounded=0;whiteSpace=wrap;html=1;" vertex="1" parent="1">
          <mxGeometry x="-460" y="-200" width="120" height="60" as="geometry" />
        </mxCell>
        <mxCell id="7Mr0FkpDf2ZOhA75nSAg-23" style="edgeStyle=orthogonalEdgeStyle;rounded=0;orthogonalLoop=1;jettySize=auto;html=1;" edge="1" parent="1" source="7Mr0FkpDf2ZOhA75nSAg-22" target="7Mr0FkpDf2ZOhA75nSAg-11">
          <mxGeometry relative="1" as="geometry" />
        </mxCell>
        <mxCell id="7Mr0FkpDf2ZOhA75nSAg-22" value="immune response to blood borne pathogen" style="rounded=0;whiteSpace=wrap;html=1;" vertex="1" parent="1">
          <mxGeometry x="-300" y="-200" width="120" height="60" as="geometry" />
        </mxCell>
        <mxCell id="7Mr0FkpDf2ZOhA75nSAg-24" style="edgeStyle=orthogonalEdgeStyle;rounded=0;orthogonalLoop=1;jettySize=auto;html=1;entryX=0.581;entryY=-0.047;entryDx=0;entryDy=0;entryPerimeter=0;" edge="1" parent="1" source="7Mr0FkpDf2ZOhA75nSAg-21" target="7Mr0FkpDf2ZOhA75nSAg-11">
          <mxGeometry relative="1" as="geometry" />
        </mxCell>
        <mxCell id="7Mr0FkpDf2ZOhA75nSAg-26" style="edgeStyle=orthogonalEdgeStyle;rounded=0;orthogonalLoop=1;jettySize=auto;html=1;" edge="1" parent="1" source="7Mr0FkpDf2ZOhA75nSAg-25" target="7Mr0FkpDf2ZOhA75nSAg-21">
          <mxGeometry relative="1" as="geometry" />
        </mxCell>
        <mxCell id="7Mr0FkpDf2ZOhA75nSAg-25" value="Follicles" style="rounded=0;whiteSpace=wrap;html=1;" vertex="1" parent="1">
          <mxGeometry x="-390" y="-300" width="120" height="60" as="geometry" />
        </mxCell>
        <mxCell id="7Mr0FkpDf2ZOhA75nSAg-28" value="" style="edgeStyle=orthogonalEdgeStyle;rounded=0;orthogonalLoop=1;jettySize=auto;html=1;" edge="1" parent="1" source="7Mr0FkpDf2ZOhA75nSAg-27" target="7Mr0FkpDf2ZOhA75nSAg-21">
          <mxGeometry relative="1" as="geometry" />
        </mxCell>
        <mxCell id="7Mr0FkpDf2ZOhA75nSAg-27" value="Periatreal lymphatic sheath" style="rounded=0;whiteSpace=wrap;html=1;" vertex="1" parent="1">
          <mxGeometry x="-550" y="-300" width="120" height="60" as="geometry" />
        </mxCell>
        <mxCell id="7Mr0FkpDf2ZOhA75nSAg-30" value="" style="edgeStyle=orthogonalEdgeStyle;rounded=0;orthogonalLoop=1;jettySize=auto;html=1;" edge="1" parent="1" source="7Mr0FkpDf2ZOhA75nSAg-29" target="7Mr0FkpDf2ZOhA75nSAg-11">
          <mxGeometry relative="1" as="geometry" />
        </mxCell>
        <mxCell id="7Mr0FkpDf2ZOhA75nSAg-29" value="Red Pulp" style="rounded=0;whiteSpace=wrap;html=1;" vertex="1" parent="1">
          <mxGeometry x="-580" y="-90" width="120" height="60" as="geometry" />
        </mxCell>
        <mxCell id="7Mr0FkpDf2ZOhA75nSAg-33" value="" style="edgeStyle=orthogonalEdgeStyle;rounded=0;orthogonalLoop=1;jettySize=auto;html=1;" edge="1" parent="1" source="7Mr0FkpDf2ZOhA75nSAg-31" target="7Mr0FkpDf2ZOhA75nSAg-13">
          <mxGeometry relative="1" as="geometry" />
        </mxCell>
        <mxCell id="7Mr0FkpDf2ZOhA75nSAg-31" value="Function: antegin specific activation of naive T and B cells and filtration" style="rounded=0;whiteSpace=wrap;html=1;" vertex="1" parent="1">
          <mxGeometry x="-720" y="110" width="120" height="60" as="geometry" />
        </mxCell>
        <mxCell id="7Mr0FkpDf2ZOhA75nSAg-35" style="edgeStyle=orthogonalEdgeStyle;rounded=0;orthogonalLoop=1;jettySize=auto;html=1;" edge="1" parent="1" source="7Mr0FkpDf2ZOhA75nSAg-34" target="7Mr0FkpDf2ZOhA75nSAg-13">
          <mxGeometry relative="1" as="geometry" />
        </mxCell>
        <mxCell id="7Mr0FkpDf2ZOhA75nSAg-34" value="Parts: Follicle, Medulla, Paracortex" style="rounded=0;whiteSpace=wrap;html=1;" vertex="1" parent="1">
          <mxGeometry x="-670" y="200" width="120" height="60" as="geometry" />
        </mxCell>
        <mxCell id="7Mr0FkpDf2ZOhA75nSAg-42" style="edgeStyle=orthogonalEdgeStyle;rounded=0;orthogonalLoop=1;jettySize=auto;html=1;" edge="1" parent="1" source="7Mr0FkpDf2ZOhA75nSAg-37" target="7Mr0FkpDf2ZOhA75nSAg-41">
          <mxGeometry relative="1" as="geometry" />
        </mxCell>
        <mxCell id="7Mr0FkpDf2ZOhA75nSAg-44" style="edgeStyle=orthogonalEdgeStyle;rounded=0;orthogonalLoop=1;jettySize=auto;html=1;" edge="1" parent="1" source="7Mr0FkpDf2ZOhA75nSAg-37" target="7Mr0FkpDf2ZOhA75nSAg-43">
          <mxGeometry relative="1" as="geometry" />
        </mxCell>
        <mxCell id="7Mr0FkpDf2ZOhA75nSAg-46" style="edgeStyle=orthogonalEdgeStyle;rounded=0;orthogonalLoop=1;jettySize=auto;html=1;" edge="1" parent="1" source="7Mr0FkpDf2ZOhA75nSAg-37" target="7Mr0FkpDf2ZOhA75nSAg-45">
          <mxGeometry relative="1" as="geometry">
            <Array as="points">
              <mxPoint x="193" y="-180" />
              <mxPoint x="390" y="-180" />
            </Array>
          </mxGeometry>
        </mxCell>
        <mxCell id="7Mr0FkpDf2ZOhA75nSAg-37" value="" style="shape=image;verticalLabelPosition=bottom;labelBackgroundColor=default;verticalAlign=top;aspect=fixed;imageAspect=0;image=data:image/png,iVBORw0KGgoAAAANSUhEUgAAAiwAAAGqCAYAAAAodh+xAAAgAElEQVR4XuydD3zT9Z3/XwUKKZaRuqrNxEk4vBEGG+1ks514ko5tpMPfkQ53poc3DHqHrdy0lZs08/E7TPE3bWEnLd5PiW5yqU7WsKkNm4ywDa5hP7Bxwho2OMJmt0SpNsqfRqn29/5+k2/yTZqkaZvSNLy/97g7bL7fz5/n59t+Xnl/3n9yBugCX0yACTABJsAEmAATyGACOSxYMnh1eGhMgAkwASbABJiASIAFC78ITIAJMAEmwASYQMYTYMGS8UvEA2QCTIAJMAEmwARYsPA7wASYABNgAkyACWQ8ARYsGb9EPEAmwASYABNgAkyABQu/A0yACTABJsAEmEDGE2DBkvFLxANkAkyACTABJsAEWLDwO8AEmAATYAJMgAlkPAEWLBm/RDxAJsAEmAATYAJMgAULvwNMgAkwASbABJhAxhNgwZLxS8QDZAJMgAkwASbABFiw8DvABJgAE2ACTIAJZDwBFiwZv0Q8QCbABJgAE2ACTIAFC78DTIAJMAEmwASYQMYTYMGS8UvEA2QCTIAJMAEmwARYsPA7wASYABNgAkyACWQ8ARYsGb9EPEAmwASYABNgAkyABQu/A0yACTABJsAEmEDGE2DBkvFLxANkAkyACTABJsAEWLDwO8AEmAATYAJMgAlkPAEWLBm/RDxAJsAEmAATYAJMgAULvwNMgAkwASbABJhAxhNgwZLxS8QDZAJMgAkwASbABFiw8DvABJgAE2ACY0ggANfWSugesMMHJbSb7Gj7Xin9S3Z121GzohItrweAuQZY91hgmKsYwzFx0xORAAuWibhqPObLj0C/H+4jnfBChZIbNVBOufwQ8IxHQSDgh+ekB74zAShUaqhnF0F5qfRAvwcWfQn+9RU/zg/kQLHgcXQeroVG1r//YB2+sLwFp86RYJl6JQw/+R9YV0RJmlFMnh/NFgIsWLJlJXke2Uug3wfbXRpU7vSLc8z/ShtO7NGjiEVL9q55Gmbm29+C7/37f2CX8wTe+3Bwg5NnzEbpbVX4hyojjMvVGDP9IgqWL+E7L5/BORrGtL9thOt3cQTLN57EqfcuALkzUdl2Gj9hwZKGtyC7mmDBkl3rybPJRgIBN5qWlaHhoB+9wh98Df3B74z+g5+N0+Y5jZDAOTda712Bu6wefPDxx0M2MnlyLq5c/ih+9mwtSguHvH34N7BgGT4zfiIuARYs/GIwgUwnwIIl01coc8bnd6Kp4qv4N+c5fDQgDGsKZlw9Ax+/3Yvz8lFOV+Lq/AH0vv0eLgo/n6bAFTdUY++BRpSm+ySGBUvmvB8TfCQsWCb4AvLwLwMCLFgug0VOwxTpPWlZ9kWsP3gOol1lRiGu+HAKPmcwomppGUoWl6B4thIBnweeEy7Ydzaj+XknfDl0L6mWSdPn4bHfulC7IM2HQyxY0rC43IRAgAULvwdMINMJsGDJ9BXKgPEF4Hn6a/jcut/g3Ec0nKmfwPTCm/HYz6yovjGJycTvQsuar6Pmp28DilJY3R0wzE7zdFiwpBno5dscC5bLd+155hOFAAuWibJS4zdOnx13fm4ldp4RvGsnI/+KT+Ofnu9A84qioccU8MHxrAWuIj2qV2rS73zLgmXoNeA7UiLAgiUlTHwTExhHAikKFv8RCxpbXfBThotiQx2Mwjfrcz44d1sor0UHOj29yCtQQT2vBNrbjdDfVBS9OdHG5dpjhXW3A64T5N57lRqaRSUoW6qHfmmSKBKfAy1P2OGmEBDVEiNqV9GmR2HYnv1tsOy2w3nUg75c6neuBiXLqmBcWRwTlk3WgYM2tL7Yjg6XB715KsxfQMcXpVpUrihFUaITCnIutW2zwOGlUF21DtXrdFAnOc0IHLOh6RkHvP0KqJdXozo2MibePBCA74gd1hftcBzpQu/FAqg1GswvLoNuhQ7Fs1I/PgmcdsK2uw0OpxtdHi9QoBbnqV1hgG6JelSh6p6ny7DgXicu9NN7ekUurr7tBfzuufRGko14/GkWLP5jDtj3OuhdcaHT7YE/oIBqYRm0y42oviP23RrH31vuOu0EWLCkHSk3yATSTCAVwUKhz623a/Dtn/pxcYC+YX/9/+LVu9yoXdcE54U8XNHfh/OidyV9/56eh8mBjzHH+AzsTxjETd6314QqQwMc5/KRPxDAuQ+EnY/uzVVgysDHuObvt+Dnz1ZDkx87twDcW29FyYbfIkCP5F5bjRd2FsN+fzUsvwfyJn2Evg+DbU2Zmk8C6RwmFdfi+Z+YoaPNPnDahrpVd6Glsw95io/RJ+64ws15UEzux8DcO9H602bo4yQR8+9di4W3/QjdYsezUP+bozDflOj4ww/7PQtR+aNuBMgIMflT/4rDf/gBisPziTOPF8rQ8d11aHIGaGw0jwvCWYsIBVcoJlNOkdkw7rCj+Y7kIcH+Y60wP/AAmva+A8UV03Cx7zw+koJ3pkxB7sf9uFh0K+qbn4Fp5QjCi4X34+Yb8dBrF0QH2vyZpfjurxyoX5S6mEr2xo56/OkSLD0uNN29EnU/7ca0vEno77uI0Ipg8pRcDPRfxJTP1WJ3eyO9W2n+HeTmMoIAC5aMWAYeBBNIQiAlwRLMdfEA5bp4nyJD6C848NFFTCXB8GGiyNZJUzDvwV+g9bOtMNxrxZsfBnA+Tr4OcWRTp0C95mfobNYNso64Hy/F4odfx3nK+TVtsgI5HwXQT933h7THoJlNmozpZd/HLx9VoPGO+2HvuYgAPRv3IsE0/bO1+OV+86DoFf/LJFj+6cfo7iXTTt61qG0/hsalSQTLXQth2NWN9+j2yVevwYE/PCNrkwRL7DzIutJPDqkJ54FcKKZrUP3KrxP26z/UhErdQ+i4QHP8IPlbPinnCpQ3HcCL95OVYDi/EKdb8XeLvo3fvCfIlTx84iuP4/WXq5Nam1JtPi3jT4dgoeinhq9/FY/87hw+SPSuiGIyD/MfeQ2vPTQGR1upQuP7xowAC5YxQ8sNM4E0ERi2YJlMHU+i/7koRovk5P0Nvn5vDSo/m4vuvU/hsReO4QJZTYRrEv3vx5PJ8vHROdqe6d4pV6J09f24a6kK/oP/hcctv8ZbwfhY5Eybh8cPURRJ1Df36I1eymUnaJWcyTPxuW/eh7srZgOul/D9lpfQTYIoFG1LSmAKFLn9CAj77CQF/mZZNWq+VYLc0z/HU1t34ujZ0L25+bi15Q3sv1sdBXQsBYswD2Gcwjf4nMnTcf3Su/Avt5ei8IIbrz71OF50k/oITURR8n/Q+WvKixNrfSK/krVLVuPFP7+Ls4IQJPEzufBz+NrK26G7mSwp/hN43f5f+NH+blygXVjsK1eN6l90YltC4TX4nfLvqcGCb7bgL5RzDXlXQFN3AJ2bikfvi5Ku8Y9asFBq/0duwc2bO3EhQJQEjlffjDX//A9YSpY37x9+jT22n+PX7jPoJ/+dBY8dxeEHWbCk6a9PRjXDgiWjloMHwwTiEBi2YJHamIxPfu0/ceAna2WbqZ/++H8VN5tfw4Uo00sOpn72Ozj0qy0oDicPIzHydBWW3PcK3vlA2HGnYtaDv8KJx0plm2G0YAn2TG3NNmL3/m3QzY4cS/j31qFkxX/AEzpuEjYeYdOfPLMcWw++gvtk4bSBI024Zel38dq5fhJdUzD9Cz/AkYN0JCVP5z6GFpbgPCZh6nUr8Zzjv/At+ZEU+c60/P2N+M7+C+gn3TdJocZD+7voOEp+BOOHY30ZvvWsGz1k0ckhUfjlf/8Zdv2bNiZDMfnIvFyHr931Arp63hE33LzS/4vfO4wpWkjI/+fJW7Hw/t/ivGDB+cS1MP7XMewYdZbYNI5/tIJFeP9v+SK+d/gc+gQ+Jd/Ha3EEov/1Vlj29KFsjRGlKfga89+aiUeABcvEWzMe8eVGYESCZTKu/IYVv9/9rcEp/LttqPriati8F0SriigwFvxvvH744ShBIH5Epvi6sq9jh/t9vEf/qfhcM7p+Kz9uiBUsOZj26X+G/bUnoY3NmhrwoEW3CP+2//1wErPJynI863oFq2XCRuxXLEdQjH/8sY98YIRs7cvwwrFXoZf5JoylhUVgIs7jtzSPOJuff38dir/xBE7TUY9gHZr3fzrhkn2rDxxvQcXfmfCbt/3onzQN137bhmMWOk6L++6SOLi3DHfYT+LtP13EpLyFeKLz/6F6Xio+KIL14UtY0vBGSLB8BvW/eD1GPA3/Fyat4x+tYBHewcXL8Z8n36P3Zjquvf+XOLlFLpqHPz9+YmISYMEyMdeNR305ERiBYMm9ei1+/vunB4sGgRsJB4v+C3hwby966exm0hVLsJPEgCFWNIjCwU/CYSGMP+uG/33yhS004BcnrNCGd95owTI5by7+3XEY9XGdX4XNdQlu+f4RnBPSruZeibU/+z2eXh7/67Dn6QqU1NnFfpF3A8wdb0Q5ko6lYBHm8V2aR0In3h467vnCP2Dnn8/iQ7I8XWXYjT9aJUFCTLZVoOxhB/xU/mnKjLn4Nwc5BN+YWID499ag7J/acdJ7Ghcnz0D5rj/ilytTMRP44XxgAb6y9S8QToSmz9Rg4y87UZ+kr6F/ddI8/tEKFnr/G760GI+8cR4fkN/QtM9uwP6Dg32ahp4X3zHRCbBgmegryOPPfgIjECzxCsxFQFHEjMwBdUrhGvzmhNwBVY40AOeGEvyvH7lxhnKLTSn4Bn7c9TL04b00WrBMnXkLtr/+axhnx18Wz7MkQr4TEiGKG9B4+I2EmVWDguRFcqolZ5Y4TrVjKViGmgfOuWAqvQVbj50joZCLmboXcPxnoTBi0Tq0CGta38L75HIxfVY1Xj7aLBN5g9mIFo3yzXD99a9UL2oabtjiwhv3p+KHIQiWhVi2tVu0Woni6FUhWioV60yCX510j3+0goUC9Z0bivGV/zhNx5iC0CXr4S3fxdM/qIN+wbDck7P/b0WWz5AFS5YvME8vCwgMQ7Akq4grFyyOe74A/fOnxIiZoQSL62HKcfGflN/ljPAVvgxtf/hv2dHM8ASL7/lKfO6fbThDGgRDCRayOnzhWz/CKSEKiJyBDa/+D6wyZ9RxFSzCt35Kd7/1kB/vCIKl/Ic4/nND8Pgt5HPx7+RzIUxz+FcuHXv8lo49UnGcFaxWJVjyqBvn+4T1uZailo6heRhOu4PGl+7xj1qw0AjpGHPtkjux8/R5smjRlTMFkwb6MeXTWtxnbqTQ+OLE+XqGvwD8RIYSYMGSoQvDw2ICYQIsWDJSsEQqaAuC5Um4fk6OsoJgIZ8LU+lybD3+nnhMM+xrWKG5wvHNMnzxoYPBYzZFAXRPdaF9dSrHSQlGlu7xp0OwCFiPWVBduQ4//p+P8FE4kQ0daVKo28d5n8W/bNuJR1dz4rhhv28T6AEWLBNosXiolykBFiwTTrDUkWB5coSCpWhZPazPmKFNMfmZYGmaV/VDvHWWzp/IAfi6f23HG1u0w8vlIv/VEpxc0zn+NAkWcYhCGYFt1Vj3iA1/vJCLyZRrSEoeJ0SdzVzaiP1ttSjmk6Ks/GPJgiUrl5UnlVUEWLDEFyx7yMelamwSxw3pwxK1JjEWFuG46MtfxPc7g0dC09RmON+ol2XVTe/bGTjZgq8tfhC/8QtnQpMx9TPfxaEj5pH3l+7xp1OwSOjIGdy9uwUm82OwvUFZkiddRJ+QWmgyRWTdacORp3SDo+PSi51bGwcCLFjGATp3yQSGRYAFS3zBIvq4/JB8XOgsRFGEtS+58fSy9GS6HZVgEcokGD6Pf9n1tihYJiuXU6I5u8xReVirP/TNggPwLV/GD1xUfoHunqSYhYf2kuPtzSM0M6R7/GMhWMJUKA/N8zWoWPMc3vz4Is5RlHnO9M9j22uHUgwLHxov35E5BFiwZM5a8EiYQHwCLFjiCpbAIRNKvroF7rNkWcidCa31OPatSuC7IW7CN+Je+1/wHu3qQ6XmH5Vgoew2rkdvwa2PHcb7FNaMqVdh9St/xHMJxdRoX3yhDpIWi7/3/3D+vHBAQiUDSh9F56txsu+m1FWaxz+mgiU4Ic/OSiy+1453zlFmIXoXvvHj43g5pbDwlIDwTRlCgAVLhiwED4MJJCTAgiWuYAHV0Kn40jq8+vb7lCF2CgpW/hhdL8arUEwb8Nbb8JXvHcS7YijNWAsWchClxHJfWvVD/PGddwSbB2WvfWoY2WtH8LsgsFhsxL6eAOUqESY4Bdf+449w4D+DxS2TXYHjP8ZdX1uNF/y34Ce/ewV6yseT1vFfAsESOELiVRsSr1OV+MYLbhYsI3iNMv0RFiyZvkI8PibAgiW+YBG4LC/Dvx/04ywlwMvJ/Ruq2HwEj8iT1pGTpt20AquecOHCxbB75hhbWOiVFY5pbi3H9qOUnE+sI5SLv1n/cxxsjE3NH3m9A91O2J53oHeREdXLhhvlI1hFtPi7R17H2b6gKBOiZwqWN+LlH9aiNDbrMH0e6Hag5Tv3oL7tf4IiJ/dqVLf/Ac2CJSid4x+lYPEf+Q6Ky57AmYW1sP/icdwyaC6Up+W7pVj2g+Nitt8pV8zF//7V0VEmz+M/O5lIgAVLJq4Kj4kJyAmwYIkvWIiRkIjui7W/QY+Qq0W4pqiwvHYT1n5pOrzO3XjK8hO80Us/FwoVUhTJ1JnAh3RMM7ZHQsGh+PbUQfutHfjzWSGlfOi6YjZu/vpX8JW/uwkLZ6uAHjc6Dv0eXc6fYe/Rd8WIl0l/Y8bRY/WDyyQM9VtB74nFcCvu/cU5fHghFFCdIxRsysfcW1fg1vkFmCZUu/zwfXhe+xUcr72JD4iLWMNx+nW4SlGIf93XEc4mnLbxj0qwCEKsFGXfex1C3UNaYFy1WI97jd/CFz9NpqMP3sHvXtiMTbuOIyDW81RAUWxCx2/Gzsl5qGXgz8eOAAuWsWPLLTOB9BBgwZJQsMDvQsOKr+M/Tp3Fmb8GLQvxrkm0b+fPVKA/N4ALlADvUggWsmHA/awRf7/+Z3ir/zzeCxZuGvLKvcGM31FUkbzQ45APSTdQYUbLnVqsfeUcplMF7gvBotxJr4JZKlzoGUDFZhss95VCKZXcTtf4RyVYgqK0tP4Ect4+AV/ESDZ4TpPyMG36Dah76dcwjyZx3lDA+PNxI8CCZdzQc8dMIEUCJFhadItR96vzCAxQocKSbTj+3/IChNSO4FR6uwbf/qkfF4V7Pv84Xj9ETpdx/ReEYnsLUWHpRoCOKyYX/SsOuH+A0rhBJUIm1TLKpOoSM6nm5JfjlRO/hE6emn/rrSjZ8FsE6Fhm8kwdnjvWDkOCHCK+XZXQVNngF6I5ps3H46+/htoERf6E+joLb3sK3QG6efI1+JdfHceT8SJfuu2U6dSApjcmoygvgHfeuQB6gkwVFOI7+SN8OGUBjC1PwXCiGrf9IDiPyVf/Mw7/z3/KQn8Fx9XU5yFms122GKb/FtZkMvK//hxOvBzKdBuzrP4jlPDs2w/gJ3/NxzW5H+Ad/zvBFPOha0reNEyfNhUfvH8WA+r/hc0//CFqRxrhI7RJIb+unSZUb2yB850rMEORgw8/OAex4LZwTc5F3idmIPfCu3j/AwU0y+gI6mG6/+b4x1CjHn8K76bgQP3Zpd/HKfEloqzGL1NW4+WhF5JqX9k2VMG4zYn+a6/D9L534H/3QjDjLTkY5ynzkXexF+8qdWj8iRW1cetYpfi7xrdlNAEWLBm9PDw4JhAk4NvfQBuQFe4pxTA+2hJ3Q/MfakL1g1a4+tWo2tyC+qWJ/SACx1tRt74Rjl4VdBubYV6pJmN6/CtAgsB8rwm2NwtQdm8jmu+OSRlPvhAN602weoDiu1rQch9lG020cGQRaXmgGpbDgPp2M1oeSuzTAbIWtG6sQeP+XqiWmdC8WZ/YgVTYpHe1oPFpKxyH3fAFlLQRV6LqDiMMK0uhzid7x0kbTOvNsJ9JMOfhzENYk720Jg9b4RHWZGsLqm9MEkZMvjTOXRZYd7XDTuPz+ITwIbqmKKFeRKUPluugv70KunTWxgkQkz0WWJ5tg+NEqD+hTwX1qSlBcakWFSt1KJ2VQt2hUY5/yHdTECUP18C8x4uCJXVofswADa2Z/Ar0uGDfSQxftKPjmAc+OgVUztJAU0z8VhpgXKUV15mv7CXAgiV715ZnxgSYABNgAkwgawiwYMmapeSJMAEmwASYABPIXgIsWLJ3bXlmTIAJMAEmwASyhgALlqxZSp4IE2ACTIAJMIHsJcCCJXvXlmfGBJgAE2ACTCBrCLBgyZql5IkwASbABJgAE8heAixYsndteWZMgAkwASbABLKGAAuWrFlKnggTYAJMgAkwgewlwIIle9eWZ8YEmAATYAJMIGsIsGDJmqXkiTABJsAEmAATyF4CLFiyd215ZkyACTABJsAEsoYAC5asWUqeCBNgAkyACTCB7CXAgiV715ZnxgSYABNgAkwgawiwYMmapeSJMAEmwASYABPIXgIsWLJ3bXlmTIAJMAEmwASyhgALlqxZSp4IE2ACTIAJMIHsJcCCJXvXlmfGBJgAE2ACTCBrCLBgyZql5IkwASbABJgAE8heAixYsndteWZMgAkwASbABLKGAAuWrFlKnggTYAJMgAkwgewlwIIle9eWZ8YEmAATYAJMIGsIsGDJmqXkiTABJsAEmAATyF4CLFiyd215ZkyACTABJsAEsoYAC5asWUqeCBNgAkyACTCB7CXAgiV715ZnxgSYABNgAkwgawiwYMmapeSJMAEmwASYABPIXgIsWLJ3bXlmTIAJMAEmwASyhgALlqxZSp4IE2ACTIAJMIHsJcCCJXvXlmfGBJgAE2ACTCBrCLBgyZql5IkwASbABJgAE8heAixYsndteWZMgAkwASbABLKGAAuWrFlKnggTYAJMgAkwgewlwIIle9eWZ8YEmAATYAJMIGsIsGDJmqXkiTABJsAEmAATyF4CLFiyd215ZkyACTABJsAEsoYAC5asWUqeCBNgAkyACTCB7CXAgiV715ZnxgSYABNgAkwgawiwYMmapeSJMAEmwASYABPIXgIsWLJ3bXlmTIAJMAEmwASyhgALlqxZSp4IE2ACTIAJMIHsJcCCJXvXlmfGBJgAE2ACTCBrCLBgyZql5IkwASbABJgAE8heAixYsndteWZMgAkwASbABLKGAAuWrFlKnggTYAJMgAkwgewlwIIle9eWZ8YEmAATYAJMIGsIsGDJmqXkiTABJsAEmAATyF4CLFiyd215ZkyACTABJsAEsobAxBcsf/krVHvPwfcxrcnUK7DvH6+FNmuWZ/QT8Xf9CQWHPgg2VFgA721XoWj0zXILCQkMwPeXHtT+v7OwvdePgPBeTsqBMi8Xus98Ek2fm4GiSYyPCTABJsAEhktg4guW439GTkcgNG8FrHd9GobhUhiH+x2/OonyU8JuBpSWXI+ORdPGZBTujlOYf7w/2PYVM9D1LRU0Y9ITNwoMwNXhQYnEOw6S4s9fj84vjM1ai929fwZltl44WcDzC8kEmECWEWDBMk4L2rrnj6jyBjtXz7sWp8quGJORsGAZE6zxGxWsfb8ga5/w6aQpMP7dtdihJnFy8UO4Tr0D0+tn4Z07xoLlbS/mvHIWHnGEE0fAX8JV4q6YABOYoARYsIzTwrFgGSfwY9it4zdkNTsZtJoprr8afeXKMewtQdMsWC49c+6RCTCBS0IgAwQLnfmf+Cu0h87DfZH+0OdNg+nW61CvSvGgP8mRkGP/CZR7Bujb7nS0fftT0Pzei6o3LsDVJ/wsB0Uzp8N866dgLMgJw/Z1nobq9Q/p81yYb5sN43tvw/ja+7C/T88IG9EnFDAtLkL99VOjF+jcWTR1vgNL90W4A8F7Rd+F/Gkwfr4QjTdMD/7sBB1hHZCOsGLXOAeGW2+AdU7o5x9fgO1QD0ynPoD7w1D/U3Oh/UwBLF9QpuQLkdDC8v7bKLH54aL9VbNwFro0H6LhQC/Mb10M+l3k5kJfcjWsn70CiovnYTl4BqY/fRj0FZJ/Jk0h3e2hF5U/PAOb6AMirN8s6GW4bK/+EZXdwR/ob/lbtM0N/nskay416/eeQfWhaN8TNb0j9UtUMBYO/T7KRahyrgq9t8yI/0v87luY/9J7cIssye9qdazf1Xuo2vkWWun3ITJ3+j3xBN9Fx7mB0BpNQfGsT8B6cyE0uRdgerEbDefid4kCJbwrrw77L6U+V9lYZl2FgaVTg+/Cn+ld+Ij6mjwJpTcUwnYTvY/4APbX3kJNVwCe2M+Gxpdg4PxjJsAEmECQwPgLllPdyPvVBURt4YJYWKlG/cwUlimJYIlsILTJX/MRHG8Fv/1GXblkNv8m+b3kBX8a2eDpD/E1k+GkDXzQReb+2uVqNF4TEjqyzTrRiNXz6djnJjr2SVWw9L2LyrYe2Eg7xb3yZ6DzmyoUD7ERJBQssm/iysJpUL1LoigOnuK5M1Dwp7NwxMFQ/PlPkz+GIji8dLeHd1HxTA/sYuODjzbk4kBX9rdonxccxkjWXPQ9OXQaJV1xJhn8NYGu7HrqI0akxiyM3MKCSZOgXaRC+yISfLEL+DHN7Tmam8g7hwTXXBJcEdGM7r+g4NXz8Asfh/yOFCSk5whCOs4VPFLMSVGwDHeusnWYOQ3avg/giDMMhWoGqs6ehSWOYBo3a1OiX0b+ORNgAhOSwLgLFtsv6JvyXwazU8+fRRt8yCqRDG1KgiXYgPKaAnR89SpoBs6i7qdeNIX+uBbdoIJ3SfDbcNQGL/zgE/lo/7oKumkfwPLLN7HWG7KeXH0ler9RCNHoLwqW9xG4fiaaPz8TZVdOpU3qY7g7/4wS2mREMTZ5Otr/aRZ0obkkPxL6EC0vnUZNT/Bm9dyr0XEzfYP9KIDWX3ej6s9BZSEfdyJEqQgW8dncqTAvnYX6T30E+6//ggpPyFFX+Czsj5EL53+fRtkfQp/J5xR1FJGG9kYtWFJfc0EgqEggiL4nudPQuJAXd3MAACAASURBVPw61BbmwN/9NrT73oNLsBZMmobmf7ge1YPUh4x8LAPhI7KIGRZcCfNnZ0KdK907ANsvT6LyzyGr2aevQt9XCsINyYVPUIxcRNWP3karOI5c1H/jepjJ4hN47z20/JasevnXoEvygRrqSGjYc5ULR6H/STCUzoLlM1Phkb/f4uhzoC35FIm06fB3vQn1oUDoiwh9AfkmfQH5RKK3lH/OBJgAExiawGUjWBTXXAlvRUhgCFwo3DdHCveVmctjN/jOVTIrxlteqNrPBje2GAESH7X8j/0U1P/9HJivDN6ZVLDINx1FPjoMn0Kp1IH827mCjhMMycO4UxMsZDGqiLEY/YSOi6RN6KbrsW9+yLoQZR2QzSlqo0xDe2kQLKmt+QCtxYmwA7R2sRr7FoaVRZSALf2CGh2fj3w2eM0H4PndnzH/tQ+iLYbCjST69F8sQtv8kAiXWxbpXWpbTUdeorXsLGpavWgRVS5x/MYcNF4te4+GWvOkgmUkc5W/wyRI5O8C2YDCQopGq/7Mp3Dqy/khLOdR9+O/oOl88D/1S+jY7oah/yDxHUyACTCBRATGXbDgkhwJxYnEkYsPWbhv1AavKsTA8pDCEAh+3IPyH74Lh0gzlQiMaMES3HyGFiy+1zxQ/S50PHEt+Q18LfLtG5BvBFPRbJid9Ft/aoIldi6Jxx3dv7Sh0pySbpQjaC8NgmVQ9FXcNZdvutGiUlwpmQUvqV+K7Dcs0NMD4wE/WnsHn7Gp59GmXiZs6mexloSJJXQWqiu7gY6c6FhIzjH8XkYLA1xBvleLC1A9+wooY48Ek67DSOaa6tqBjs0iR3MCjkTHdvznmAkwASYwEgLjL1jIf2CsnG5TtmKkKliSbaLkmNp6uBeNb/bBTU69ouNq1CXb3GP+mMdurIOOpRKubHSb8W5jwSILF48rBmKOPJL9FsUK2CF+46Qjm7pu+fHaVDTqZ6OWjkecB06i7EToRQkdMXpleXPk74WfhJOK8g1F+3qRn9XfhhxeJeGSsnAcYvDhubJgGckfVn6GCTCB9BPIAMEyykml6MMy6Nt23M0rxodl0AaVwBH0PUrW9RIl60rksylOcQwECzkMt636NPRJ/CpYsKRPsIQdp4f5yga8Xsz/BeVGCWmTsCVC/g6KPjLXwN/+Z5jeG/y+CD9JZLlRkBXOS1Y40Z8qTYIlMlcWLMNcbr6dCTCBMSLAgkUAO0oLi33fCVT8KeRAeTU59pZ/EsV5wlfekR0JuQ9Rdtqu4Lfy0UZYZIdgmYYd374eRtnxx9BRQnGOAeOKVFn4NMbKOTTanyNydBJAQ5skUADt/Bno7Tob9B1KlpX4Q7Lm/fYMjCdCDt3ycScVLCOZKwuWMfrby80yASYwTAIsWEYtWOSbUewRTeI/9nKRM8j6I/frmTkTpyqvgXqYCyvdPnEFS7S/RW0F+f9cE5oV+aLM2RPHYkEfD/8Y8AM07P4TTL1C23FCjEfIPeqxj0ko7KScMkKUDyah+mtz0Xxt8I4ofyXZQ0NnP07w3gkRa2GH6VjfpJHMlQVLOl4BboMJMIHRE2DBMmrBEh15of6MCl1fngEFfQtu2utFXTj3S7SYidqorqSkXrddDeUHFF0ybRo5UsojRSh8+dorYV9KVpup5JRJad7d3vdgPvweWvM/GeOQO/iFmLiC5SJaXvGg5u3gnBSqK9H1lUKo6PitYk9vVF6Y+HlYUrWwAP6jVCDycKhAJIV31365COY5CnKrHoD/3HnY33gXpj/2w3BbJMprMOlg4rbWGTNQTyHMlarpUAoBRcJ78OpfUfd2KByeItJOUQK3sAANkCP3C+TIHeXzFCN8xbD5c1Av+iQa538CagrY8nf7UPLLkGibRMLkTsolJFqg5EKPQpCXzoH1+o/h+2ASisjqN/y5smAZ/Z9ZboEJMIF0EGDBMmrBQg3Ei3SSVkfYRMTNKGYTogy6JbuDmWblV3jzJSvCfLIixEvmJt2fvjwsmRglRLOMsaREOOWg+MrJcL0bPDYbrWAhVYHWX/wZVX+JkzkvvI5D5WGJPvaJ+8s5lThXRpIUBu+JFmbij2KPg6KsJoNb1iy8Fl2LJV+dAdj3nQwfUYbvDrc53LmyYEnHH1pugwkwgdETmPiCRSg4t5cKzsWpTpu0IrI8PfonZqLrm9eIVYx9r1Nq/s5gKk/lnGvQe6s83W7idPH+P72FqsORFP5C+nrdvAKYJvlR9jsp1T8lz5JFSfv/5IWu4xycQqkAuhRTp8L01dmoD4U+Q0j3f/gdtPzlIjyh1PxCun/1zDzo51PbN8QJa415J/yUb6ZAyjdTWECWnKuC6dmTVvV9D2v/6y1YBAzkDLqDEqYZw469F9Dwk26Y3hc+E8oXhOaU7vZC8xC5/pa4Ujr6cDkFIVX+eS/y9p0Xo2aiUvMnq4KdYM2DXVGivz+8hbqj5yn1/cfhKC8FJX4r/nQ+zJ//JLQzk6cVDvSQJabzfdh6aL3k5Rny6F34zCfR9LkZ8cspxAjewcdBlN/lhA81v5ONLfQeGBddhXqhwKL8opIOll9Sivy/hsosCPdeV4jO8pBj7rDmKn8XIhFOwe4+QNNLf0KdkOBQyP68jI7tQkddwqeJyieM/s8Wt8AEmMDlSGDiC5bLcdV4ztlFoI+izH5MUWaigYdEYGWKZSmyiwLPhgkwASaQlAALFn5BmMA4E4jKxzJKJ+txngp3zwSYABMYMwIsWMYMLTfMBFIgEBVBRKHNMaUBUmiBb2ECTIAJXBYEWLBcFsvMk8xYAnL/FaoT1P4P10I3RAXujJ0LD4wJMAEmMIYEWLCMIVxumgkwASbABJgAE0gPARYs6eHIrTABJsAEmAATYAJjSIAFyxjC5aaZABNgAkyACTCB9BBgwZIejsNrZVclcm63ASvbMGDTD+9ZvpsJMAEmwASYwGVIgAXLqBfdD5uhBMa9YjGayFWogXZpJao3VEM7O6ac8s4K5NxpB5ZbMWA3jHoE3AATYAJMgAkwgWwnwIJl1CvsRp16PppOJ2pIgeLNHeh8qDhyAwuWJNT9sG80wnJcA+MzZuiUo14gboAJMAEmwASygAALllEvoiRY1Kg9egqNC0INBjywry9HxdMe+kERjA4vdiwNfcaCJQn1BDxHvU7cABNgAkyACUxkAixYRr16yTZYP1qWFKDmINUJuqMdfa26YG8sWFiwjPq94waYABNgApcXARYstN6+XVXQ3tUK9zkSFkWlMO12oP6mGL+ThO9FcouA79ESqDa6gNm16PI0igUWowWLHu6njajabIeH+i+YpUP9TguMCwb37ztoQeOWFtgOeCB6zOSroV1VB/MmAzTxhtttR8NGM6x73PDS7ap5WmiuikxEs8YC8wrZmUvAjdaHTWjc5RDHQqOBeokedZvMMMQZj9hStxNNm2th2SX1oUPVxibULxdKLNJn+kZ0oATVL9ZDO2UwRPeTVTDtDaBsQxvKDlSi0UkVrPdQ/wEF1Et1KA4NT/i89ibZ80K/G6vRsifEgnyGqh4gPndrMAhFzBgLZmmh32CG+Y44915ev/88WybABJjAhCHAguXlKuTd1ipW/Y1cxTB7OlE/O5V1TFGwLDLD66oPVkqWLCzLamHubYHpSHTvVCcahpd6YV0h9U+OvXoVKncH71MolVDQ5h/o8QfHPasa+zzN0YLgSB3mLG6CcCClKKT76f+H7w81q36oC6c2ixIKONKAkqUmuEShooCyUIGAn9rvD36seagTXZtlfjj0M//uKmj0rfAFRwVlfgB+8Xmawd370PuUKuzfo93ei33rYh1S7KjKq0BrQDhO64R6XdAaFe/SPTeA9tXBT/w7K6G+0wa/nEVorIobzehw1qNYEkc9rahQV1G15wg3nPPDL/YpO8KL3y3/lAkwASbABDKEwGUvWGz6HBICg1cjajNPulhDHAlpaRPeL23g2mBLkmAR/j1Fg+qXHGgWLBL9PlhuU2PtHpIhC8w4dbQeavEBNxoWa9G+1ALrJh3Ukgkh4ESNpgwtp4HSJ3rRcZ8kCOjnKvq5TwHdc17a6EM/l0RMvgHtvVbopE29n4RDAQkH2tTVd7ejY7sOReJnAbi3VqDkAQf9S0Eiqi8ionpaUHZVDdlQFNBu6UT7/SFrhd+Fptu1qJvSIkZAeR6ZjzkPu4Glzeh1VJMUk127K5GntyEQM9egE3MCQXGahJWahBWRqXV2oVGyhBGLuoVlaDoJcnI+RU7OQXJ2Qx4qng+gdIsXHfeLcjE4r6ct8KyqZqfeDPlDxMNgAkyACQxFgAXLmAmWAJyPlEH7sIu2RzXq6du8WXLIDQsW2nQP07f8G2XL5CchUCAIgVI093ageogoGenIKcpH5rgJczQN8MytR9cJc/AYKnRZvpqDtXujxUf42IqsQKfIChTc6iOX4x4Vyp8mO4pMdLg3zMH8x8l+E0+ICJKANJdCEFbdJDCuEwTG4PnYbs9D5a4ANJtOoet7Uq/JLVaSAIl+JjTWQzVQlbbAFz5+C5APUR5ZbYqIszea81C/Gfw5E2ACTIAJZBSBy16wIG1HQrIjB2GJxWMH4R9kgXiiC/vuk8mApE63LtRdV4Km7hSPLOK1dYyOgxbScdDNZNU4EG3VaNXloGoPyPIiHbFEHIOjrTSy93T/WhRoLfAryDLTR5YZOgRqKFbB9DpVF35mAPvWJHunqf2Qlal4s5csHyErR78NlTMqYQvECplkgmUoNnT8k0PHPzRC60A7hAw3zntVKHuSxNZcI9r374BuVkb9/vFgmAATYAJMIEUCLFgIVHqcbmOI5yuhWWKE6bE4DqtJBUuSDZuOW+zbLLAc6IDLFXI2DZAwEvxG5Eno5GLgDFlpCkNj67Gg/Lq1cATIR+dN8tERN2+pvyRWiH56LpeeCwuBFJ6R4fA/WY6Cex3Rx1zScdAgC00ywSIJkhhxGO6LfGh6BJVYjEZvJ2oFbdRjQ1VxJVq7g+KxaBE5EW9rQu3N0vFQir8pfBsTYAJMgAmMKwEWLKPGP4K8ISMQLJ5t5ShZ7wg7mqpml6BYTedFb3bAdoQsCDFZcx13FaD8WXJLnaJG6YpiqOhJ934H3PSjqOOjsGBJZtGJtVwMc85hAaUhZ+Yu0ZlZOg4a7IybimCJjiAatIRFFG203RA52iLfIPujRtQIkVgh/2blTWY4Dsicc0f9HnADTIAJMAEmMJYEWLCMmu4wN2+hv+EKlkSOponakhxi52rJJtIB+8nQLq1QQ7dxB6zf08qcXyOZeuWROFFYJJ8Y6NE20Eb/N/KM/sUBtK0aGqLke6J+UIhMcqEiN3R0c5GObqLCnZPxpGOkHDpGEhxuRxThE4DnZRMqDU1iNFTRug54t5cOPXi+gwkwASbABMadAAuWUS/BJRAs4TDoHRh41Rg94jjix7+tDAXrndA+1Yd9dw+dT0aKlAqGIocimWS9SO1B5hMj+cKkvOlLDrFFFIL9mAflVEtJsaoNfS/GFn9MxlPmOxM3TDrFxZSOo+Sh5ik+yrcxASbABJjA+BBgwTJq7pdAsEjVnaPCf2ngslDeqCMhScQoS1H9sBHF+cIk8ygJnBbz8ylfyqxgXpbwJW3gguUiNmopnMckOkQ67Jei0GLHiX0wypxZfXtqoNumgcMud/iVQq2LUDTLB1+3AnpbH9pWxi5ARJTEcwL2UCK+OWIivmp0uJtRGqvH+gWfHiUoVQ1dfjj3e1G8NCZBnMSHq2WP+u3nBpgAE2ACl4oAC5ZRk74EgsVPPiQqOkKhk50iSjZXt0oDpc+Bpi2UnVfIniZcUT4sQqI5NeWXkT6MmST5tRhaO2BdJTme+tGqU1H0kHB0RM7Cy6pQtUqN3j1WWF92wUfJ4xTUvpfyqkSirN0w3TAfDZT3BFOKSBSUQU3CyHvUDqdwBBUnQimck0UYTqER+87swGB7jiyyR/K/OeOG4oEuWAVx00+RQhqKohL6pSOu0jVGGItpHufccFCGXMd+Gu8yqQp2yPemqBj61VXQ3aCE/4QNLVvJl6U/Jq/MqN8DboAJMAEmwATGkgALllHTHYFgkSwmMY6ywaFE2qt3U+6WecGfBg41QLvcBMpcH76UN9WibbMCa7WUc0VuLTjWhJLSOsp9okXjfiuqQrrE62qHfVcTzDvdYm6YKD8QwTF1ox7GrU5RoIQvEg26h2P9XkKfUip/y50VWLtLyKcbuYpuroV1dyO0UnSS9FHYF2cI/xESJaaFJWg4HmlTbyNfGcka0++BxVCOGuo3NkewYp4Opu1W1C8VpJUfjg1UKiB2TiR09Nv3oW1NbMaZUb8M3AATYAJMgAmMEQEWLGMEdqya9ft8wXT5+XS0EjepnJT3JNGRCxBMHkc5VLaTj8u62DMVCg3uDqX8n0JhwPE7iZ4ehVb7xHBioRZTEZRxagaJH4ajhYpQ7fSiWV4bKA6wQI9PzGWjKKQ247riyMYqlAaIPeqStRnmluqcxmoBuV0mwASYABMYEQEWLCPClskPDZUjxY+m0gLUHQJSjfBJ22wlXxl5Ici0Nc4NMQEmwASYQDYTYMGShasr5TjBbD127GpBxVyyxuSTFeRkJ6wbq1C3m/K2FJEPyZvkQ5LIGpJ2LpGMt3HT6qe9P26QCTABJsAEsokAC5ZsWk1pLj0O1K2oRNOh+E63ikXVaN9L1Z1jfUzGkgX5r8ynooVuykIbybI7lh1y20yACTABJpBNBFiwZNNqxswl0ONGx94OeITU/cKVr0bZsjJoCofOzZJ2LD1OtO7uQt8sLYzL2dk17Xy5QSbABJhAlhNgwZLlC8zTYwJMgAkwASaQDQRYsGTDKvIchk1Ayu57yR2Phz1SfoAJMAEmwAQEAixYJvx74EbD4jI0ng4e+VRtcaB5Zdx45+iZHiFn3NUmdPTQjylrrMNpRvElc8Adf+hSaYGE9ZPGf4g8AibABJgAE5ARYMEy4V8HqZJyaCJUq6fDSynrk84rErETvG2kxQQnLjwWLBN37XjkTIAJXJ4EWLBM+HWXBIsGmgVuuI8lThgXnqoUsbOAnjlGz7BgmfBvAU+ACTABJpDtBFiwTPgVlgSLDs3bA6i51wEsbUavQ154MHqSzntVKHvSR5lum6G4twZ2FiwT/i3gCTABJsAEsp0AC5ZxX+EAnI9ood9MNXyENPTzDLDutUIvq36cfIgRwWLt1cFSUAMHNDB7ulA/O86T4fT4OlgvVsGaS0UV4wmWbicsTzSiZZcjFBZdQNWe9ajbZIZhQfyw6MCxVpgeboTtgAe9oPuLdaje0ghj+H4/1SsywnK8DHW2Wqh3UVXnDVZqnwTUpja0r9OEB+w7SDWPHrLAetwb/FmhBlX3NMF0XymKYnxt3E9WwbRXDeMzZugUVN/oASOadrkhPKlaXIfGp+qhi+EZdSS0ip65pwoNe0LjXl4P61NGaOJM03fQgsYtLaE5UgfkN6RdVQfzJkPc+wPHLKh7oAV2l8SkWCwSGbwU0G6yonqBbJ2Ie9PGarSIYwnN+wHq8+6YitPCZ8K9m2thCc21gELG9RvMMN8R595xf895AEyACTCB0RFgwTI6fqN+2vNoCeZsdEW3k29Ae68VupScYGWCZaAditvzULmLShs+2IVTj0UEgNSB/8lyFJAVRrGqDX0vBlCRM1iw+Kk4o+p2W7CwoEIJpbDBnvOLdX0oRS6qHVQHaGn0kF00jzKah3gL1etRTqE6P6HKhKVbvOi4X6jAKJUN0KHxOcB0pz1SvDBcCJIqTRs0qHyesvEKVz71L7QlNabUw3qiDQZZ0rug+CA/nGeMcKw3wSXknRHYhYs40meHT6HxxsiYJcGivd+M3qdDz8inpKQ1OCNfA6ECtooqYIdqJimVUFAfgZ5Q3aVZ1djnoWR8sjXz76yASpwj8RBz39A8QjWXpK7kUUr+nZVQ32mjko0C9lD7fmpfqJZ9oxkdzvqIY3QPrbua1o7mKt0bXKPLzx9p1L+E3AATYAITggALlnFdJjdMN8xHw8nBg0g93DZasBgO1UBV2gJfXOdbDxoWzoHpmFR8UHo2epNzP1IC7ataWHaSxWK2ZGYgS9D6+SjbRpWZb6YjpwOyI6f9a6HSWuAjS43R3oEdy4PloQOn7ahbXgH7Ckk8SYIlOF9hE3bspU2YqjO7utUoXaREWMDlU6VpZztqJetMtx1rl1bAIrBaZMYpVz31Frwk8SH+xyyyUB2wwCCMO+CEqVSLhtdJZCR7Zl4w869ohem2oEKzVhQC0SUEhGgsLdqXktVnkw7qMBYnajRlaDkNlD7Ri477QhFa/haUi9auaLEUFjEx40G4kjXd7+xC402hDmgOdQvL0ETzLt58Cp0PBWdtN+Sh4vkAImJQJA730xZ4VlVDl0Kg2Li++tw5E2ACTGCYBFiwDBNYem8fA8EC2kBVtIH64jjfSmJmAW34R4UNP75gSTjH7gaUXEfWCAVZH/rI+hAjGIrWdcC7PTY+KYBAQAGFuP/KBAsVQOw80RgTSm1HVV4FWul+w0t9sK6IGUlPC8quqqEZRld7DguWudSmO6bNcEmAaFGW7Bn/tjIUrHcOFmYJwPjIuqQi65Lijnb0tYaokJUqh6xUWNmGAZte9qQLddeVoKk7ukSBJEDi1lmS1i1cNDKAliV5qDlYRJYjb5TlKL3vJ7fGBJgAE8gcAixYxnkt0n0kZKD5eB6ZjzkPuwc530pFEbXbe7FvnfAVfJiCJXw/+b/Q8ZPQF33XD4mMVDZPSbAoYXy1FzuWxcAnS00BWWr8hVSY8QwVZhy0NhSOvaSANmrB2uAla0PQkpM8RDkiCuU5V5I+c6SOfF+a4Eu1qjQd/eTQ0Q/Cx1o0qNDPlHfvQ+9T8plIDOQCShIxiY5zYqxo1LzkOI25RrTv3zHIR2ecX2vungkwASaQdgIsWNKOdLgNptHpVhIR4eMImfOt9DOFHm1n26AXfS2SCJZ+P1x7WmB51oEOV2fI8VbywZALFqkNLXZc3AdjUr+beJu1jJe08S/bgYFXjXFBuh5QoWQrHT7JfHSGyqkifZ7yM8fqMGdhEzzxBIvfBfs2CywHOuASHWnpCpDviOA3IxcskmUntio2iaE5JIY8UVaqSC6dsD9K1Owl7sVo9HaiVtBpPTZUFVeitVu4UYGiReQQva0JtTcHRRxfTIAJMIFsI8CCZcKv6OBv3yC3zRYtWSL2R/wwJKtL9LFNAsFykvwvFpP/RdD7E8oiNUqK1SAPE3TsdpGvSjzBIv9ZIqgpChb5xh/TlHvDHMx/3DMugsWzrRwl6x1hp1jV7BIUq8lS9WYHbEfISThq3H40lRag7hBNQKmBdqmG+HnhetkJDznRyv1RIsJRAfVSHYoT+Z8UVaJxuyHsu4N+H+yPGlGz2Q5PyMFZeRP5BR2QOedO+PebJ8AEmAATCBJgwTLh34R4goUmtbsSeXqK9BGdbyl8WfRriQ13jidYyDG3mBxzX6f8t/d3oGtLKX1/l654fUXaqHefgnleMqApCpYkRzFSDSD1Q+TIuzkYBZXcwuKj+ajE+WifGcC+NcHxJX0mnoUlkVOs0Fi8I6GQI7L/RhIg5DDsDAU9oagYhs1tsK6RV6y2oTKnErYR58MJwPOyCZWGJjFCKr4v0YR/0XkCTIAJXOYEWLBM+BcggWCRO9+u0cH+LImXQQnl4gmWZEc88fqKONJGfGNGaGE5bsIcTQPZcUrR3NuB6kGWBgfWXlUOSw/5wDjIByYUWh0+8rm/E6e2FEd3Lo/WOUqhzaGcJ8MWLMmOq+IIFsc9BSh/WoFqJ4WA3zTUSyYTVWH/oqGeifO5JFIpAslLUVR8ODQChvwIE2ACGUuABUvGLk2qA0skWGSOmWJT8VL2xxMs0rf9WGsM+do8QGHNWymsOepISNYPFVHscFMdo7BJhsJst1ag6k0zOslSE4kSSuRcKoVd02jpeMVrN9AxSuRy0XFQCR0HIcYCEwlrpkRsT3Rh330R64XrAXpGGHNMmPewBYsU9ROOsAqNSxZ2LD8Sko6uMFsP80ZdSDyQ/81yiiiiPDVFRdFqLOx8PYhhqB/yKfKfo+M58TE/nPu9KKZjpqjcdpJwGhSZlOq7xPcxASbABDKXAAuWzF2bFEeWWLAIuT3mq00UTCzoFbmzrdR0PMHip+MSFSViI6cIypxa+wBlcM33wUFZb1uPCU4twhXjr+InkXMdHWkIjqcKyqeyvBgq2lQ9TgdcdBQSiZQZ4khIaFpyShX+PbsUhlWV0M7wwPKcBc6TgqNG4iRwinwFAucCUC7QQnuDEv4TDjjEMZNYe9GLtlURkTBsweInVipK1EZDKFpWi7pV5JPic6BpSyvcEha5DwvlljEVl6HhWMi5JHY1laUw73GgXsq3QvfXaSjcWcgzIzBcY4SxmGwk59xw0H2O/eQ7tMyKARJxYZ8XOl7Sr66CTpyrDS1byZelP0FIeIpvE9/GBJgAE8hUAixYMnVlUh6XJDpIkAxQ9E/UcxHn2/h+DRHfiSj/E7IaNJDzp+mQtBNTo7TB1r5optpD5ZToLk5f5KdRt6oKTfJnSCioVzVjX6sRajF6SAoxTp6NVUhnX7WyBjZRoEQu5QIDGndbYZwbDSciPnpRe1SHysedomOseNHmb3iuA9ZV0Qckki+MPNQ53KrkwzK3Hl0nzFToIHgFDjVAu9wEpxzLTbVo26zAWi0dZcksG/6Xq6C5rRU+Iez4ZTNKxHT8veg6YKfjuUY07SUlpyDh56XwcElH9ZMwM5SjZpcnkgFYmsY8Wo/tVtQvFW72w7FBh6qtVM4hnM03OFf99n1oi/KPSflF4huZABNgAhlNgAVLRi/POA/O74NPTHM/+Agj4cikZ4R09LMovfxophBui/biwiIoEzQ2yFpCYcY+IQX+cMY9jHH6fT4xXT7yixBzshNqRUrel6imk5R3JToBXmQIFMbcHUr5PwTHKtYbtAAAIABJREFU8FjGaK7DwMK3MgEmwATGlAALljHFy41fCgJD5WG5FGOI7mOI3DT95DysEpyH1Rg6surSj557ZAJMgAlkIgEWLJm4KjymYRHIPMEScR5W0pGR9dk6lM0mCxEd5fiO2WFeZ0TLEbIAxdZkGtas+WYmwASYwOVFgAXL5bXeWTnbzBMshPmkBZXL1sJ2Oj7youXN6HipOuTbk5XLwpNiAkyACaSVAAuWtOLkxsaDgP9QK9qO9kG9zAjt7PEYQeI+/T4XOl7upBy3oauoBBVLihP4vmTW2Hk0TIAJMIFMIsCCJZNWg8fCBJgAE2ACTIAJxCXAgoVfDCbABJgAE2ACTCDjCbBgyfgl4gFeOgKRPDHDit4Rw69jwrilMgMxuVwu3Vy4JybABJhAdhFgwTLh19ONhsVlaDwNFMyrQ9v+BJV6u5tQXkwp8hdS5ltHLdeZibvuKWTiHfSclHyPiivK6wDFK6A44d81ngATYAJMYPwIsGAZP/Zp6lnK+RFsrujuffA+pR3c9jhvoO4nq2DaS5v6JiuqQwUI0wQgjc2wYEkjTG6KCTABJpBWAixY0opzPBoLCRaFAopAgFK6F8Ps6UT97JixjLNgycjQ40HLNRLBQo3EOxIaZ97j8SZyn0yACTCBsSTAgmUs6V6StkOChSoYmxe3wLQrELfSMcZ5A81qwRJvnceZ9yV59bgTJsAEmMAlJMCC5RLCjt9VAM5HtNBvpkJ2lPxUMc8A614r9LNSHVhIsBQase+wGnVUndlFHipGhxc7lsraGGoD7XaiaWM1WvZ4qEQfXYUaVD1gQePdmuh6QN2tqFnfBu88IyybdZS9NfpyPFqJlsOK8NGP7/kaVO/yUuVmm1i5uehGPcquCz6jWtWC5juEooR+2DdSe8fLUGerhXpXDXQbrPCcU6FsUxva14XLD8L9vAmmx2xwdIujRAFVlNZvMMN8R8w4pTa7tTA/Vw0NFWdsWG+C5YAwvwKol9fD+pQRmqj6RDEWFiU9c08dGg8LWVRoLOsbYXlIhyKxkKN0SWNXofKJZhikdUvIOxAzBxU0q4zEvhalKa95qu8G38cEmAATyB4CLFjGeS09j5ZgzkZX9CjyDWjvtUIXtTEmGqjkw0KVfwfaUXSPCuVPkzJYZMYpVz3U0mNJBIt/ZyXUd9rECscKJRUspH4Dfiq+RwX+FDea0eGUOfImFT7Shg9IVZAd9xTQeGTljWXTUD/YhVOPCWJEek6HxucA0532SLXi5VYM2A1AvwsNpWUwCSntpXH2++EXijMK17x6dB41ozjMTNamTYlGPVVOFu4TPpcqHOcTMw9VSy6UBhURLMZNpWh/OPSMHP2NjTh1mERV+GcJjpEScHJtmIOSxz1iYUalWM2RCh0KhRqleY7z+8jdMwEmwAQylQALlnFdGSmMdvAg9C8OoG1VKoOLFiwGP/23qgr2gIJEgxftq0M2kERC43QDSkSrjBq1zi403hQyOQScqFtYhqaTQPHmU+h8KLRFD1OwSDNIfiQUETqiGCGR5NhLIolEiqtbjdJFStgNeah4njb2uUa0798BXcgaETjWhIrSOjhIuCjuaEdfqy7UZfw2SwUc3RTZs7gSNlIwyZ5RLmuk9Pm1ohUmcKgO80ub4CF7k97Wh7aVg0VO7dFTaJQciuNx6ibW1xHrIrKGeXZAK1l3yPrTtJ/4r5YsSamsO9/DBJgAE7i8CLBgGdf1HgPBQvMJW22EjfFN2hgFq0ICoSEJAc2mU+j6XsRuIGI5VANVaQt85B/T5WmEuJ2OtWChvjpPNMosJYLACG30iRyK96+FSmshC4oWzb37UC1qtIhgUZD1wktWmqjjq92VyNPbyL5BVpaLZGURLTPJn5GsRUqKxOoNR2INw8Ii8Vy2AwOvGsf1zePOmQATYAITjQALlnFesXQfCdHhCR15OLD2unJYyIIQto7EFRou1F1XgiayYkRZB8JMYqw3Yy5YlDC+2osdy6IXxb+tDAXrnUmqG9N8r6L59ihgeKkP1hVy8ZFoblL+FPnnQ0QJPVuOnLscMcc3wxAs/haUF9TAQVYa7ZZOtN8f63czzi8jd88EmAATyGACLFjGfXHS5HQrWArIh0UULHT5d1ZAJfiCKOjnXvp5dx3mLKQjDbm1BJEcLpLvSjSOkH8FWTYavZ2oFfxjx9TCEl9cuMnvYz75fRTdT0UEtxTHXTHLV3OwlvK8SL4zEWtJIsEy2N9myGeIaQ4xjfY3GYZgoZG7yGepjHyWRE+cfA1060xo3GSIcf4d95eSB8AEmAATyDgCLFgybkmGO6A4VhCxCQ8aiufA9DpF5qzrgPfetiSCRQH1Uh2KY0N+pKEUVaJxuyHoaDqOgiXipDuY0WAfmaFyqoyPYBFGHjhmgXG1Ca2vi27A5ICrhuHFTlhXJlqA4b4TfD8TYAJMIPsIsGCZ8GuaSLDQxMK+HaVofpUcaL8aa2GJdywyBJBxFCyJI2kivkARZ+WhBIsdVXkVaA0UoZbClhtvFOY9xDNpsLBE0fW7YLlLh7W7BeEi97+Z8C8lT4AJMAEmkHYCLFjSjvRSN5hEsFCgcqtOhao9ARTdXAocpFwvUUdCPrLCqEQrTFQdnGRTkASLgkKv+yj0Wn6v4DujEnxJ5EczwRtSixJKcHyzqxI5t9soNww5EZ8hJ+LY8ZFvSBn5hjhBwqy3I8bplvxFnvFi35oY64XkABvX6TbBONItWMR5kCVsIVnCjsn9by71O8T9MQEmwAQynwALlsxfoyFGmEyw0KPhsOVQM1GCRRZRNLsaHe5mlEYlUqNnxFwnSsoZIg1DskzECAEKg25Yog3nSYn4kgSfk6KRoiNspDaHsGz0kyVoBoUhk+OH+sFOyt0i92OJiLLoaCB5WLOanHk7yZlXmoQflq+qyOeFGlzajF5HdSiCaIwtLCedcCpKYxLERfocVoXoCf/e8gSYABNgAsMjwIJleLwy8O4hBAuN2CElkxNGHyNYhIRsdRqKFKJ8K1BQzpM1RhiLybv2nBuOPQ449rvgWxZK3haafaQ9JTTLtNDke+Ha44QnoIZuWR/se30y59fgQ/4ny1FwL0XYkDQQnyHLgn+pFfsekieOS+QgK3MiFlpYoEXV7eRTc9YO685gBl0kTAJHNZbyqcYS5WlR36xH8VWA12WD87QwKjXqKXeKOVyMcWwFS9B52EvjIMZ3FlM+Yh8cTzSi9Rgl1otN9JeBbxoPiQkwASYwngRYsIwn/bT0LQkWPdoG2qCP16afrCILyV+jmz6kTK1eytQqBPyEr34PLIZy1OzyRDLMhj5UzNPBtN2K+qWyI5XQ/Wvp/vA1W48de9tQ9lQwomdw4juyhOjVqNodyXqr2dRFuV+CgsV0w3w0nEwsWIR+fHvqoL+rCc6Qr6rUt3q5GTueq4c2nLFW+EQmPg7vg+axckSNt6gU5t0O1EuJ8sTGhhiHdCS0sg0DNol0gmeOmzBH0xAdlXXSgsrlNbCdDGbrla6im2th3d0YM/60vBzcCBNgAkwgawiwYMmapUzHRCiMuZtS8otNUer4WZSmP1mzYpVi4VYligqT3hlpRXomvwhFIwyKCfT44A/t+YqiIijjljCIYy0ZyXjTgTW2jYAfPiEdv4CukMafIrqxGAq3yQSYABOYKARYsEyUleJxDpPAUFFCw2yOb2cCTIAJMIFxJcCCZVzxc+djR4AFy9ix5ZaZABNgApeeAAuWS8+ce7wkBFiwXBLM3AkTYAJM4BIRYMFyiUBzN5eegGePBY7uApSsouigEfrLXPpRc49MgAkwASYQjwALFn4vmAATYAJMgAkwgYwnwIIl45eIB8gEmAATYAJMgAmwYOF3YAQEIrlHODvrCPDxI0yACTABJjBsAixYho0s2QMBePa3wPRAC+zHKZOrlB+M8pRobqyCcVMtqpeqk+c2Set4xqoxdmgdK7LcLhNgAkyACcQnwIIlXW9GjwM1S8rRcjzU4BRKvBbKCBbwUzK2/tDPKdPsKco0q05Xv+PSzkQQLH7YNxphOa6B8RkzdOx0Oy5vCnfKBJgAE0gXARYs6SDZ04rKG6pgE7LOK0tR+5wV5hXRlhT/660wratGy6EyWAfaYUhHv+PWxkQQLBNhjOO2gNwxE2ACTGDCEWDBMuoli1QLxtxadBxtHFzxWNaHv8cPZeFE/7o/EcTARBjjqF8+boAJMAEmcNkQYMFCS+3bVQXtXa1wU10cBRXFMw0qipfkfThUA1VpC9XdpcJ9h0+h8cbhvTvuJ6tg2luAyieaoe9uQuUaMzp6CqC+o5kq+eqotjGN76AFjVtaYDvgQa/QfL4a2lV1MG8yQBNTh0benqHQDcs9VWjYIzxHbS6vh/UpY8wzPrSur0Zbd4Kjk/0NqNzWCcUyM6zrhEKFwjWEGAi40fqwCY27HPAItYaEvpfoUbfJDMOCBIVzup1o2lwLyy43vPSEioouVm1sQv1yoUwjfaZvRAdKUP0iFTmMUzsoOO8AyjZQAcYDlWh0+qmCNPUfUEC9VBfOwyJ8XnuTbI2EfjeS5UtkRFehBlUPEO+7NYN9jWLGWDBLC/0GM8x3xLl3eK8B380EmAATYAJDEGDB8nIV8m5rjalSXAyzpxP1s4d+f5z3qlD2JJUPvrkZvQeqRYExnKtVl4OqPSR2ntHDRpWIw/WPZ9eiy2OCW69C5e5QoTwlFSOkzTpAVhrxJ7Oqsc/THLWBR9ozwH5PA9yS74w0KKUB7Wes0IU3/eTiw70hWH0Zy60YsEsHWUmeOdKAkqUmuEShQn48VBRR7sOjeagTXZuLoxD5d1dBo28l0Rd6Jp+KMIrP0wnb3fvQ+5QKder5aDoNaLf3Yt+6WMpUjTqPqlEHhGrPnVCvK0DNwfiroHtuAO2rg5/5d1ZCfacNwkmeQmIb8jdS3EjC0VmPYokTHftVqKtgF0Rt6F6c85NjdfIK08N5F/heJsAEmAATSEzgshcsNn0OCYLBgNQPdeHUZsmikAigDw3FKpheB1K7f3A7QYER+vksA6wHLDAovXCQ8672pgAaFmvRvtQC6yYd1JJxIuBEjaYMLbSBlz7Ri477Iht4VHvzqtG+txm6WdR+twUVmrXihqvZdApd35PcftMoWPpJOBSQcKA+1He3o2O7DkXihh+Ae2sFSh5w0L8UMLzUB+uK0Jx7WlB2VQ3ZUBTQbulE+/0ha4Xfhabbtaib0iIKJc8j8zHnYTewlIShI0YY7q5Ent6GwAIzTh2tDzk0D2EFOk3CSk3CSrCMObvQeFMILrGtW1iGppNA8eZT6HwoyMluyEPF8wGUbvGi437B6hOa19MWeFZVs1Mv/5VlAkyACYwxARYsoxIs0qYIyL+5i2vW3Yqa9W3i8UbUNY8iVzYHj3qEKywwFFrseHMfjIWprbjv0RKoNrqguKMdfa268EPh9sifptPdGLEQ0B3+bWUoWO+MsQalT7BIY8IiEg4uSThE5uO4R4Xyp8mOIhMdYQtOPCEiSB0yJSkELdFNAuM6QWCUorm3A9UyI4vt9jxU7goMS4hJAiRavIXGKh3ziVauRmhIZrUsySOrTREd+3mHfeyX2oryXUyACTABJpCMwGUvWDCqI6EkgiXs2xKLXxcVJSQJjNItZCm5fxgHSjsrkHOnPeaoJiKABgkoYRhH6qBa3ARfeCMWfpguweKnTT14FBNr9QkT2L8WBVoL/Ao6luqjYyk6BJIsVNpnBrBvTbJXldrXUvv7BcuHlywfIStHvw2VMyphC8QKmWTzcqHuuhI0dSc6zqHjnxw6/qERShFd4aO/uUa0798RtFrxxQSYABNgApeMAAsWQj1yp9uIYInaROMt37E6zFko+KjEFyxxBYbUDh2P2LdZYDnQAZcr5BwaIP8Jwc8jyrdkCMEijWFMBIvEIokVot+C8ty1cIQZpPCMjKX/yXIU3OsA5Ec/0nHQIAtNMsEiCRKZP0rUmpEPTY/gJVSMRm8nagVt1GNDVXElWruFGxUoWkROxNuaUHuzdDx0yX5nuSMmwASYwGVJgAXLKJc97AMTIxwGNTtCweLZVo6S9Y6wY6hqdgmK1WSJebMDtiN0vJJxgiWZE2qs5WKYocdha4qGnKK7RKdo6ThosDNuKoIlOoJo0JoVUbTRdkMkyV+/D/ZHjajZbKfoo+DdypvMcByQOeeO8n3ix5kAE2ACTCA+ARYso3wzwt/6Bd+KM+RbkcgHZSSCJZFjqDDmkRwJXRILSxx/HonxcRPmaBrIyqRH20Ab/d+IhUr/4gDaVg29GJLvifpBwSnahYrc0NHNRUrGFxXunEyw0DFSDh0jCQ63RykUfcHQ/UbfQSUYXjah0tAkRkMVreuAd3vpcBvh+5kAE2ACTGAYBFiwDANW3FtlkTEKsnZ4KaIlrifKSASLJEqW7cDAq8bo7tMuWGKid0K9Oe4qQPmzFPibQlizZG0KhiJrB+GK5/Qr+fCkvOlLvkFFFNL9mAfl5MejWNWGvhf1Mf0lEywy35m4YdIpvhTScRQ5GXvJyZgPh1LkxrcxASbABEZAgAXLCKDFPuIn8aCijVM4JVDcWIu23Y2DnDIDB9dS8jQLuZkOw4dlVyVybrdF+2wInctCb0d/JBQJ2VWQMPKSMAoKrgCcj5RB+7ArmPMlBcECaQOPl0QvnMdEQRFVXsqFEuwlbKESoqROUJSUzJnVt6cGum0aOOzyMGYK6VZRSLevCEWzfPB1K6C39aFtZeyqRERJPCdgD0VZzaEoK8yuRoe7eXB24n7BR0hJ9aDEUcK534vipTEJ4iTRuLINA7ZYwZSGF4ubYAJMgAkwgTABFixpehl8z1ZCc1cwCZlwKWYXo6xYTZu/F+79Lril0s1kGejw0gYZuk+yMMR1uvWTz4eKjjxIMRQtq0XdKg2UPgeatlBWXqmjUfuw0EAoekdF0TtC4jblAi20N9Coj9rhPBmg7Lha9FHGWF8qgoVm36pTUV4ZQeJQheplVahapUbvHiusL7vgoyR2g61QbphumI8GynuCKUUkCsqgzke4/3gJ+cI5WQSGhUbsO7MDg+05lB9XSuo3RY3SFcVQnXFD8UAXrIK46adIIQ1FCgn9KujzNUYYi8lGcs4NB83XQWvmWyYlywv53hQVQ7+6Cjri4z9hQ8tW8mXpj2+ZStNrxc0wASbABJhAiAALlnS+Ct12NNxDKfP3uiPVmaX28zUoXW2kNPC1KJVZEaRjlERRQoFDDdAuN4EyzYcv5U1kxdmswFot+YPEfLtP2p50LDW3Hl0nzJRfJHJ5SHCV32OjDTj0M9rk9U/tQ9vilmB0U1Q/ksiI4wMiOKZu1MO41SkKlPBF7eke3gHr97SDj8wolb/lzgqs3RXO8ys+VnRzLaxkrdLG+gWFfXuG8B8hUWJaWIIGqYI2tam3ka+MZI3p98BiKEcN9RvyoQ0PV0GlAUzbrahfKphY/HBsoFIBsXMioaPfTozWTOza2+n8FeC2mAATYAJjRYAFyxiRDfT4KG17qPF8Or4YRoqVeEPy+3xBEZSGthJOmY5BfD7xYAvKWVQGYFRsKDS4O1RCYAqFAacCgEK1fWI4sVDTqQjKODWDxA/D0UJFqHZ60SyvDRRnzNJaKAqpzbiTko11iLmH1yHVOY2KIT/MBJgAE2ACEgEWLPwuTDwCkq9MVD6ZiTcNHjETYAJMgAmkToAFS+qs+M6MIBDJeBs3rX5GjJEHwQSYABNgAukmwIIl3US5vbElQP4r86looZuy0JrfpIranCJ/bHlz60yACTCBDCHAgiVDFoKHkSKBHidad3ehb5YWxuXs7JoiNb6NCTABJjDhCbBgmfBLyBNgAkyACTABJpD9BFiwZP8a8wyZABNgAkyACUx4AixYJvwSZs4ExJDfKUoUFY4uIPqSzUjKJDysTLWhEOio8PJIXpp69ymY512yGXBHTIAJMIHLhgALlgm/1E7K2KqDpSfxRFRr7Oh6bIyL80mbP+Wcbe7dh+pR5p25JMuSoB5Tsr7dG+dg/qOU4C4qY/Ewq05fkslxJ0yACTCB7CLAgmXCr2cobXySeShW70Pfc/GS16dx8ixY0HR6pNWf07gO3BQTYAJMIEsJsGCZ8AsrCZbooorjMa0JdyQ0AguLUBRSzOAbcyRUp57PgmU8XjrukwkwgcuGAAuWCb/UmSNYJhzKEQmWeLPkI6EJt/Y8YCbABCYcARYs475kATgf0UK/mYoFUhkdxTwDrHut0KecEG1kgsV3sAnmhyywHvcGCRRqUHVPE0z3laJoUA2fANzPm2B6zAZHdy/drIJmVUwhR78dprsscM+qRMsTBlDd4+B1rAVVDztQsKoFzXco4X7aiKrNVOX4HFAwS4f6nRYYFyRw0u12omlzLSy73FTzWrji9BvTj3qNBeYVCuqnDsYtVrgF357CMtRtsaB+eXhUwaeiBIs+tbGF5hMorUPbg5JfUBLBEjOHAsofo99ghvkOzShrNY37i8sDYAJMgAlcUgIsWC4p7sGdeR4twZyNrugP8g1o77VCl6j4X9TdwxUsftgMGlQ+7wu2kq+kIoN0zCFValTqYT3RBoOsQrJrwxyUPE6OplTwTylWD6T7hSKFy60YsBtCwqQuWNU5tr5PSBSo798Bw561UZWTgw8qYXipF9YV0Qj8u6ug0bdCHGWo30BPqJgiPaN/zoO21TLPXlk/xgM1MB2Jrb8MqB/sxKnHiiMdSYJlWS3MvS1xnokztrhWmQSCpYfWRl0FO4kzhZKKSQrrec5PRTHZ12Wcf+24eybABCYgARYs47poUjjs4EHoXxxA26pUBjc8wRIWSPlaNDrbUStZN7rtWLu0ApaT1OciM0656iHmke1uQMl1JriKjNjn2QGtZAyh+5v208a7WpOSYBFvmqJB9UsONAuWjn4fLLepsXYPCYsF1N/RUH/CfZR+v4TS77vIBqHd0on2+0PWCHrGfm8ZKp4m8SSk5vdQav7ZIUaSkBD/swiG5zpgWa2mFsiC9XAZtI+46F9Jnkl1bMMQLHZDHiqeD6B0ixcd90vWHbJWPW2BZ1U1dBMhkiqVV5DvYQJMgAlcAgIsWC4B5MRdpFOwJOhFbgWBHVV5FWgNKMiq0TfIqoGeFpRdVQMnbfjVTi+ab6I2D9VAVdoC37IdGHjVmHgqx5JbWMi+gdrDp9B4o6wJP/VXIPRXSqHQHeFQaGmjV9zRjr5WXUyfVPxwSQFqDpIsWdcB7/bQsUxYsMTpBx40LJwD0zHBytJFVpaQyEr2TIKxRR8jhaxLVNlosNNtgMaZR+Msonl7o+c9ru8cd84EmAATmJgEWLCM87ql70ioCMUry4JWEdmlWGaGdV1og96/FgVaC/yFZC05Q9aSQXOPiIHizV50PkRWAdq4y0lUOGKtHbHPDiVYooST9LALddeVoKlbfkTiwNqryimvjBJGRy92LB28QP5tZShY7xQtQV6yBIm2iyEcaMP5U+TjSPpMvLH9//beP7itMs3z/YYmtNKYRmYMSHTojnxDT5QbtpEHqiIPzB3Lk56KvHTdyB3uYm1yFxSoAhuqgg1VYA1/BDtU0XaoInaoggjqhrXZJWNlC9ZKTdJWdjeMlS0yNr1kLWaTjULjbgnwYNGkO2rixvc5OudIR8dH0jm2/EPyo3+6ic95z/t+3ld6v+d5nx/5nqN9JBR53Ir6V+lQa6MPw6cOw63bL2mZFyU/ngkwASawAgmwYFn2SVlCp9uMz0Z+a8n4U1bUvZzIsUSMk59NPfnZpL1CquxwP+ZHz74W2JW+svMSLFobvXzE5cLhqyPwafnxnO2A9Z5eJJT+MsUifuS/674nj1+KgSMhTAXhdTRjcFIAZ4LlLg86Dvai/V6V8++yr0HuABNgAkxg5RNgwbLy56hIDw34sBTb1OlJUXKw3UwOtjlHJ/TvqXMUzbPLj8EPJWfda21oeWcMAzskR4ySC5YCeWW0nlVsbMshWISZE/xuXvShTYiMkvyAzVu7ED7dCYcup+qyX6A8ACbABJhASQiwYCkJxuVsZB6CRR3Jo+h+0LMGzcfI1+NZ8vXYLx0lKYeXHEfgYTf2HBOEiyINf8kFS4FIGjmr7sZOTJzvQrqXRQRLgqxEViEaS+mLU/CeElhYcpZFCrH3/Ghu6cU4RQ3l+N8s5/LhZzMBJsAEyoQAC5Yymaj83TQgWD72o9beTS6ouU6u2baL+4+I18pOrArn3ZIJlqwjsvOVaYw+MTeUJvxoNRpfT8L8yAimX5M8cRQWlLHzPSrrBfnmuMhR91Qep1tN/5pSCxaJ8rFmrPMEkVL635T9GuQBMAEmwAQWnwALlsVnvMhPMCBYFNEyJtqk45RDRSkHMvlWlBaYCxFETE44cxxGs5t5pjpxyQQLyaEXNqP2+Sj5y9CxUGw4JycMyH+llvxX6NAK7R9R1NEWCa8irNnU0IeJE62wyUcumXsU0U9FrTILFSxJRE7F4WhQJYiT+2moQvQiLyFungkwASZQBgRYsJTBJBXuYrb4oamGkpNpXFy9cwgXD0mWiMzmTRducKJlZzNcN8QQOBJA5ILgZJEbFiz6tMRhu9cH324HReQkEH6lB4Pnkrn5WkooWDBDETp2ih4ScsKQr4zzQQ+aKZQ5Rn0MvB9LO//mTQJXZYLpcgopsx0uEgvmy1GET0ZBvYWJREI86MmKtEU9EpLmxeKAZ5cX7jvMSJ4Pov9l8mWZyRNWXvZrkQfABJgAE1g8AixYFo/tErUcRPPaZgRnCjxO9TYvONB6d7QhmBYo2Y95Swt6jg3At1HxjxcCaN4+91rLve0YONYDl5wRVz5uUvvHyP4mRY5dMpYa+dGpKAK7m9B2VBQomQ8JkZYDwxh4SBXArRAf03vH4H6gFxFBpaQ/Jth2DWD0DU9u2YH59E3zHvkYS2n1SSL8jBvel6nkgnJuTDZ4Do1gSN3/JVot/BgmwASYQLkSYMH9tBYPAAAgAElEQVRSrjNXin4nE0iQA2h6S6+xIJ11P98nlURCSMev59pS9E1uY4aeKxRZSj/YDEtNnk7OsZZIVZWF2yw0tmWMyElXsRZEC5UYsFg4vW0plwe3xQSYwOohwIJl9cx1ZY+0WFhzZY+eR8cEmAATqHgCLFgqfopXyQBZsKySieZhMgEmsFoJsGBZrTNfaeNmwVJpM8rjYQJMgAnkEGDBwguiMghMRTB4bAJXNrrga1BXVKqMIfIomAATYAKrmQALltU8+zx2JsAEmAATYAJlQoAFS5lMFHeTCTABJsAEmMBqJsCCZTXPfrmOXc6FYihbrBTmXGVBNrI4mz9lTh6YcmXD/WYCTIAJVCgBFixlP7ERygrrRmBKNZAqG+q2e9H5TCtcGwolWClDAPNwsI0+Rxl7X4xR1cFWjMb7qJqS8MmTfr8MkXCXmQATYAKVToAFS9nPcDY1v/ZQTHAfiWN4VwUlLGPBUvarlgfABJgAEzBKgAWLUWIr7vo8xQ9TMYSebETT62RVgAt90yNorRTNMg/BAkrwn5xMIqU6EuqwbUbvJVUhxRU3x9whJsAEmAATYMFS9mugQLXmGaozdAPVGaLM9p53ZjG0s+wHKw5gXoJFa+x8JFQhK4KHwQSYwCogwIJl2Sc5hcgLLnj2U5E8EhamTS0YODkAz3q9HSsgWDI+GqBjoVk6FlK2mUL0vV70vzSAgY/j4h9q7PA+2gv/E87cIoHC3yYj6N3fjsDRKISrq9dTn5/pQteD9rkVolXXAlbYd/rQ+1w7nOpxneuH9/kwbA8F0HW/CdHXO+A7MICo4JNTU4+OAwF0brfkwsgRLB66xwfvfqqCTHWRqte70flWAL4tKr8d6TkpZweGnhY9WAr6sBgZr96p4uuYABNgAkxg3gRYsMwbXWlujL1Yh9rnxnMbq2rB8PQA3LoK9hUQLMl+NFa3IQw7umIT6NwgP0aOjhH/21RjJtFBRyZyccN7+zBxuhWZ9GtT9AybFyESBCYzXSv063ISydTco5TkMS/snkEkhIap2J+ZKiqmpugoJv0kMzxHYhhS+tNI4sO29zB8p9vgP5tbQVq4y/b0GC6+5MgykgXLtnZ0Tfdr3GNGy7vTGLhfgVXTKpPHwmJgvKVZBdwKE2ACTIAJFCPAgqUYoUX9e65wUD5K/xFOHsGSHEevhywUp1IwUfhvPOghuSB/gvBWdyD10hACDzmylYwnA2i8Yw/CKTN84WkcbhCvD7WsQ9PbKTgPxDG6V7Z2kIXm9QBiO1vhlhu+1I06mx/jJH9cB8YwvFeyvswkEHq8XvKncZB4GsuKJ1lIpJ9kQcuRUQR22dICKvJ8PVwvjNP/K3DPtXa0vhtGn2CFoecEfmbDnuMkerZ04eJHnVnRZUCw6B7voq4NbpwJMAEmwASUBFiwLOt6KKVg0R6IeVsfRt9thV1nZLO8WTv2xzH2rCBOUui/bx3a3reg/YM4eu7OD0y+1/TgMK4MulUXJqmdamqHZMljo4gfko5lMoKFrDUfXFS1H0P3nbXwnxOsLBNkZbGLbRa6h6xK9WRVilDgct/0aNbRWLdg0T/eZV06/HAmwASYwCojwIJlmSe8dEdC8tFOdkCZo5gqslCcIqtGAbEh3xV9hvKV/CKWIxAij1tR/yod8mz0YfjUYbg1/WvC2HNzI+WDybXOKPEmD9aj+skIcFcX4uOdZE9RiI/tA5gNtcyZjUz+FOXfCzrdjqPj9jr0TqqOq3QLFkDfeJd54fDjmQATYAKrjAALlmWf8EV0uk1F0euuSx8L5SZMEweduhTGwKEAQpFxhGXH27RvisqiMUVHSI5mDE4Kd5lgucuDjoO9aL9X6QwrH025cPjqCHxa/jdnO2C9pxeJDe2YiPWQZ01xwZKxpui+J49figHBAl3jXfaFwx1gAkyACawqAixYyn66C0UJ0eAyRyRKy0cSYfIpaXw1mh694HRr2+SC/Wa6/KMQwhdSuUcwwkWCH8qLPrQJ0TiSX6x5axfCpzvhSIuTIv0QLjnXgdo7exHTLT4Ugkb3PSUQLLrGW/YLhwfABJgAEygrAixYymq6tDpbTCjIG7gitPk9L9b9bJCSqLlxODoMn+KIR+tIKPepKcTe86O5pRfjFDWU9UeR+1EgCZtcA2hjJybOd+mysCQoisoqRFFtO4zZEz6xKwWPhEokWDKDzjfesl84PAAmwASYQFkRYMFSVtM1D8EyQ0JiLYUkU4yQHPkjixLL3jHEDyjChan54oJF6sOxZqzzBJHK+KNkHYidr0xj9Im5aXXDj1aj8fUkzI+MYPo1V674IAvK2PkeyVojj5McdV3kqHsqj9Otpt9LqQVLvvGW/cLhATABJsAEyooAC5aymi6DgkUZ5qso+ic7spp2DuHKO55soxTW3GTfk863ko3KSSJyKg5HgypBnGzlUFRMjr2wGbXP0zETWW4GYsNoqVH0l/xXasl/hdx50f4RRQNtkf6mCGs2NVD+lxOU/0X2f8ncY0FrJI6+rap7FkWw6B9v2S8dHgATYAJMoIwIsGApo8nS7mq2+KGYAC77SSUpYdsM/TflKumMTKBLjhKSfUnoavsuP9rvsyB5Poj+l8k/RbiePlnBIrVvccCzywv3HWbFtSZK0HYlm6BthiJ07BShc0F4pg3OBz1oplDm2JEAAu/H0snj8iaBqzLBdDmFlNkOF4kj8+UowiejSNI9c/LILOqRkIHxlv3a4QEwASbABMqHAAuW8pmrPD2lekFrqV6QJDRyLqqywbGjFf2UUl+dEj9x1Iv6lsGMQEmLlJ2HMXJ/CLW7g7A9S3lP9gtxPOSg+4wb3pepdIDyGSYbPIdGMPRQJh+u+GiKTArsbkLbUVGgZD4kRFoODGNAfb1CfEzTEZX7gV5EBJWS/phg2zWA0Tc8uaUCZF+YIhaWzuhFdG2SmtK8Rz7GUlp9DI637NcPD4AJMAEmUB4EWLCUxzwtUi+lCsaCNKixgLLoF/wkEwnJYkOhzZYipZ9nkkgIxZHSusMMS02exudYSxR9slCfdJUnWBw8hsa7OF3gVpkAE2ACTEAiwIKFl8LyEihZ5eXlHQY/nQkwASbABBaXAAuWxeXLrRcjwIKlGCH+OxNgAkyACRABFiy8DJaXAAuW5eXPT2cCTIAJlAkBFixlMlEV282pCAaPTeDKRhd8DSoH3oodNA+MCTABJsAEjBJgwWKUGF/PBJgAE2ACTIAJLDkBFixLjpwfuGIIfOxHrb0bMWWpAOpc0LMGzccAzzuzGNq5YnrLHWECTIAJrGoCLFjKfvqj6L6nHj2XaCCUd8V7IIy+HUVCjoUxn+1HEyWNG52i/7+hFeFIlyotftmDKT4ArWKMdNegew28xxW1l4q3xFcwASbABJjAIhNgwbLIgBe/+Wym2/SzFCn48z87W6NHvKZAwcISDiD6qhf+k4Br3wBa5dT8JWzfcFMsWAwj4xuYABNgAstFgAXLcpEv2XNlwWKHfUsU0XMmeIJXMLSjwAMudWOzzY/oFrrnHN2zRIJlxVkuWLCUbBVyQ0yACTCBxSbAgmWxCS96+7JgcaPvUAptj4cBKiI4HW6l+szan8jjVtS/moDrUB9Mj7dRJeelsbCwYFn0xcAPYAJMgAlULAEWLMs+tSlEXnDBs59q9VAme9OmFgycHIBnvd6OZQXLwLQbgeo2hGFHV2wCnRs02pih2kM3UO2hFFVUvurFwFqvtmCZjCDwSg/6j4YRo+rNQDVs93nQsa8LLVvmptlPnRuE//keBE/HME1XWzd54XuRCivea0Hi7Ta0Ho0jFgliPEGnVnd7UH+72Dfrzn70PWgpPliqPB052IX21wYQFfxuauxwt/jR+6w7t84Q/Snxfi/an+hHaFLoidiX9ld74FP326iFRd0H8hly7exA174W2IuUNSg+QL6CCTABJsAEChFgwbLM6yP2Yh1qnxvP7UVVC4anB+DWVUdHIVhmh2F6YB2aj6YU1ZZzm06+2ohqssKYdg7hyjspNK2ZK1iSVCjQ+kBQLF5IdYDMVfS/l5NIpv/BgtZwHH0NinbPdqD2nl7EhMulitFipWgSRdQny6PVaHw9U9Ewp0PZqtAFJmIqCK+jGYOT4jUmKnqUEjsDmH0YmT4MV/o/khj0kOPxsXSNZ5jT9YuoNtGUcK0Jjv2jGHvWkX2QIcFCbbut5IwrqEqJyQy1Tf3QNYZlXmf8eCbABJhAuRNgwbKsMyhXC57bCf0htbmCpeVMG6zOfiQ0nW9j6L6zFv5zJDoiJDq2yvfmHglFX6iD64QLgbe64N4gmw7IEvTkZtQfJFlyLx05nZaPnBLodljh/9AC34kYDm+TridrROhgGLa9ZH2Qhje/IyFyEL6vGm3vk05o6MFYqF20ZlBxxfGDzXA9ZUI/iaIW+qeM+NvYjtGPeuCUupI604HNTkFQOcjyNJa1PBkRLO95se5ng0jd24P4qfaMVSd1LoBArBmt9+uIzFrWtcYPZwJMgAmUNwEWLMs6f4sgWBBBm7Ue/QkN51tZzGzpwsWPOslzRVuw5EUy2Y262/0YN5EF6ApZgNIXys9z4fDVEfgKWIXmJVhkUUE2lL7pEbSqdUFKsHgIyiQE77omDKa0j8Nkv50ca4gBwZJ6tR7rHo/AsncM8QMKK82yrh9+OBNgAkxg9RBgwbLMc13qI6G0peGFzah9PjrH+TYoHRe5Dk1j5DFh5zcoWDLXi0c9wrOEY5h+F1lATqksIBpc5yNYEnRkZhWOzLYdxuwJX/7ZomMpKx1LJTa0YyLWk7HqZG7QqllkQLBAFnsk83yhURzersPvZpnXFj+eCTABJlBJBFiwLPtsltDpVhYRyX40qp1v5X8zeTD09RA8aUtIAcEiHLkc70fgzTBGx8ckx1vZH0QpWKiZs2R5aSDLi+Cce60J9m2t8L801zl3PoIl+kwtNv8iVtyyIQuSjO+KamJT5IMj9O9uOtL5gI50hD8bESwkzIItdjS/TV7D9DFZHPA804/eJ5xznH6XfUlxB5gAE2ACFUiABUvZT6rKh0Vl9bDvu4iJv7NlrC6Wx0YRP+SURp1HsFwgwXMPRRulfVfJwdRiQ53DRmHSMYweG0eCDoOyFhapqVQUgUcpMdzb9PcZ8d9su4YwdsSTCa9eiGAp6tgqCxYTRe5sd+QN6bbu6EHfLqnIoiHBIo4pcbwbvie7ELogO/060XVyFJ13l/1C4gEwASbABFY0ARYsK3p69HROS7DQfceasc5DkT5p51sKX077taj9O7QECznmOsgx90MSHHtHMXHASTYL+ZPnWcpuCpaZN31wPxokYUNZbTPHT/NLeS9bWLBjCLNBT34gFNm0hiKbkO9ISOvOeQgWuZnUpRD8O5vRe5aEi67swnrmkq9hAkyACTCBfARYsJT92sgnIhTOtw+5EXqTxMuchHJagkX+Ny0nWh2CReIp+9GYHhzGlUHRPXc+FhbIlpNiokB2CM7nnFtiwZJuLpPThqKPPqXoI925c8p+0fEAmAATYAJLToAFy5IjL/UD84sIOTJGfKJWyn4twUKJ5dZQYrk5yefI1+YpCmt+Wci2ojgSmokhcmYdnJQgTvmRLSO2Zydwcb8Y2BxqWYemt1MwPzKC6dfEzClFPxl/HBNcr8Uw8ojiOZMhtN3fD/upYYoeUliGniDL0CtKy5D0FMoNk6yiIy45ksmAhSV5Joz4Xa7cBHEzxC+deI/8gmbJL6joYPgCJsAEmAATmC8BFizzJbdi7itg9ZBrBqX1itLZVu68lmBRJEhb70L7U5RHpSqBMGW9HTwnJ39TCBZp049vdMK32wcH6YnE6V70vBUlN9XcvCdy0jrK9kaOubT5k09MsmEAI8/KmVq0oUafI8fbFwWhRKcvJBrqbRTh9MU4Qu/HKC2ck8KdR8VwZ2UCO0V/kufDCJ0MI/whed8cmcXwLuk5BgRL2jp00gLH/V54t9thvhxF8JVehC4RWoUVacUsC+4IE2ACTKDCCLBgKfsJlUWH1lt+NuQ419lWHrRsTbGhM3oRXZukf09F0N3ghv+MIjut2Yn2d7qo9lAjui8onkUWlkBLI9qOCuJB8bHQ9UdC6NmmTJyizEQrXmvfN0FOwYUFi5CtNvq6F02PBxGTHHpF9aLxjAsBNG9vQ1B2ipW7lI5e8qNvsBMuuUsf+1Fr70ZM5fcS9KxB8zGyIynETfJkB9y7exERg4Skjwm2nX0YGfTBpisrcdkvNh4AE2ACTGDZCLBgWTb0ZfDgZAIJKVTZYimWyZVCnicpHb8wLIossqTT4uf5yO1WWVC02ZwmFM8odi+FMSfSKfl19MfIVMh9F5q1WLLHS0ba4GuZABNgAkzAMAEWLIaR8Q1MgAkwASbABJjAUhNgwbLUxPl5TIAJMAEmwASYgGECLFgMI+MbmAATYAJMgAkwgaUmwIJlqYnz85gAE2ACTIAJMAHDBFiwGEbGNzABJsAEmAATYAJLTYAFy1IT5+cxgTInkPwwhNDlOrSokgWW+bCWofspxE4FEa12w31XsSi8ZegeP5IJrDACLFhW2IRUQnfkPCaed2YxtHNxRpRMJJC6Njd8Wvu5Ufjv2Ey5Y1S5ZhanW0vbqpxHZmMnJs53USI+6SPXVSpWf2k+vZWTEd7bh+nTrXmLTM6n6ZV+T+nXF2VnvpPqdp1zUfLDETH5IX+YABPIS4AFy4IXRxLBljr4Tk4DNW4ETg/AU6PVaBhttmYMwIuhWB9VvKncj7GaQVF0O+vRc8GOjtNU9VhOXifjOetH3fZ+yolLbL8gtsK/yxuyqm6Q9nOj6LBtRu8lG9o/uoieLRXEPU+m3kz9pe0DmA21lHTAYrmHJDzBKxjakW06edSLusdDmIYV7tdGMbBDe/cNP16L5qOAd/Ai+rZl74++WI/6A1HYnxrFqDrz8cw4/E4X+i9RMr/Xpqntkg5Jd2OLsb7k7M9Fq5Hr7iVfyAQqlwALlgXPrbwhSg3lffPUXziwYJeSVCX44QCim3wI7HevyDdco4Ilr6CYImY2qtVDyetsT4/h4ksOEQ0LFpHDUgsWudgjWjB8ZYAkpEJwPEPlE34hlk+AUC7hCyqXoCHc862NTO2pp6n21EvKzMeKUhEb2zEW7YFjmbIKL4ZggVwrq1hxzwX/TnEDTKD8CbBgWfAcyoLFBJMphVTKhJZ3r2DgfnXDJRIs+TapBY+jdA2URLDQW3WHvQ69FyijLFkK4mQpyEnyr3EktCgbSumwlL6lpRYsUuVsrdpJsuAwmUz0HUjlra9kVLCMkxCqE4RQFdWvig2jRdN6WXq0Wi0u1voS2833u7E0Y+OnMIFyIMCCZcGzJAsWN7r2xeB/PgqoatOIj2DBoo1a+8gm/KgVja9T4R4Db9WLtaEseIksVgNLLFgKCVFZsLj3dSH2vB9RaB/BGRIsp/bA6gogIbT1AR3n3b1YIPW1u1jrK3mwHtVPRoxVMdfXZb6KCVQUARYsNJ0JOn93PTyIKB09mKignv9YGJ1bC9TCyVkC8oYrmMH9GLU1YZDacb4yjdEnlDaBAoJlMoIAVUPuPxpGTKjdg2rY7vOgg378W7bI/Yig19OD0SRVKT5FhQZNNri2OySrQz06gu1kiKfPmV40vzQK07YuDDymLioYw+DjHRhK2OF7owtuuXvn+uF9Pozqnf3o2xGj5/jQ9UEc1eu96DvVJ16nq4+SNEu/MeYWD8z/rZkrWJL0Jm/dHUIq31u1fCy2vhn9r7SACkSLklDzuUV8WGhcvc+1ov94jPwv6FNjh/epAHoesSN3BSQReo6O4T4WWduOtsH9zADNF/l07BvC8BzWqhHPJBA52IX21wYQnRKf427xo/dZNyzqIw69fTIsWKiI5Nt++F8KIjwpjNYK+04fjZ/Wzvpiv2sheNfR2k5RBe5Px9Cpul4WLMK690esaHqb6jhpHI/qFiyZ40ATFaGMU4VtYx6pqXOD9PLQg+BpYV7p++Rwo/VAD3yZ75M8XpFJx74ARoV5SX/3aP2/0gm3aoxG11duH4j2Ji98L/rRro6uoirj1nt6kdB80Sk2L/x3JrB6CLBgec+LdT8bzK00DPpRjtGP8gY9CyF3Q/SfEt+WUEXn/NN0zp/ZjLQFS5L8MawPBDNFA81V9MzLSSTTdfssaA3H0ddA/5fOuuur20Ata3zIXD5L5nLhL5LZHpoOl3IfVG+/0j22vYfheW9P+hhG/IjX+aM6+yjdtaAjoVQHaunHO1borTrPRm10Q0m+1Qzb7iCEmtQmsxkmmqtUkgo4UkVo091dGI10Kvwlspa0niOAXxBUMqZizq1TQXgdzRicFG8wmenYRJxgwOzDyPThjBO2oT4ZFCyZ4xWqXG2mPghVsJNCgchi/Rf6KUck1VB/v8j2V0aQ44PyTBj1Nwtrde4xhy7Bsj+VOQ7M8V3S83Wka8ZfrEP9c+Pi/AhjvZbGKeF2HohjdK8kcQVn3jvr0P2xdJ3AZIauTV9sQUswmuM8bGh9kQgR1zHNdw2tLYF2em0pvquZ8cjfS3rpmSbfH2PaTCcVvowJlD+BVS9Y5FBF9VTaniXnv/1qC4XWhKvf4LNOuLme/9qCJfpCHVwnXAi8RRaPDfI7fQqRJzej/iD93KnfUov5sCxAsIijox/qI6MIPFiN+Gk63mpwImWwj/MWLCe6EPUITrZF3qpLIVgoPLfO5se4IIwiE+iRLWqpCDrurE+LNsf+ixh71iZNeq5ztSBowidJ0NCmNz5pgzNvHo0k+u+rRtv7tHE19GAs1A67MM0zSYwfbIbrKRP6ZbFptE9GBMskjfd2Gq+FBEeMBIe81CZD6D1FDHYVWevyurqrC/HxzoxVS1OwkNOsLGDUx6PFBcsIus41kYWO/GA0fJeK/uQqjpF8oVEc3i6Kk9SlEDq2NyF0f9apN9SyLm0JMm0/jNi7voylK/FmE2wPCxa+3JcO/YIlgW6HFf4PLfCdiOHwNgk2WdlCB8Ow7W3JhqCneyevLTN84WkcFl5Q+MMEmMAcAixYPGvQfGzuypi/YKG2MlYbZbSEQR8WeYMxqSIyFlWwmOB6I46Rh3S+4uXp4/wEi/DWL7zd0sZO+UOuBNMBzNqfEggWebOy77uIib+TRYn0uDNtsDr7VSZ6hWAh0/3YeZ3RKnJfVSHYmYGRgyp5a6f/03CfjAgWeUzbDmP2hM/wT2H0OYoCepEEdB5rzJwonxk6QqqeezxaTLAIli7BEgGTB0NfD8FjMCJIbt/y2Cjih9KHpIqP6BSfxp1Zu1rPIZHpIpF5KvdYU79giaDNWo/+hAuHr47AV3QMWVHrPjJLx1+Gp4dvYAKrgsCqFyxZcaGc7/kfCYl5PhRv1Q8O48qgEABqULDku34xBcvWHkxH2g2ESmuPaX6Chd7y9zvR/5xwPFfEyXLBgoUikG6nCCSyjGjnZtEal+It+AS9BStyiBT6pUjQ8YSVjidQVCjMo09GBIscPkuHE64DYxjeq/bRKfx7l7GY6BUswrdAciZVHo8WEyy2vV1wvu5P+4EZPw6S/Wws5KQbL+yk+2Yj1jwc1i/AhG+wbh+prODJsaoVQCy3Pdf3bVXsQzxIJqCLAAsWwlQap1vV5pd5s5b/vYBgEY4Hjvcj8GYYo+NjkuOt5F9A2S4y/inClC6mYCnky2Cgj/MWLOQv4z0ih7HSm++n9IatZexZsGCR5yLru6J+E0/7dpAvU098DO3pU4X5JaCTN3rL3jHED0h5ZDS/mvPokxHBQs/M8e2oIqffx/zo2UfHEzr8y+cjWLLMBPEhHsUUFSzCdQ8EJP8PEzzvxClbsk6LX0bkF7dsZMaT8edRTYrkR2baNYIrR8Q0j/oFC118lo7gGugITnCip2fYt7WSs7PSiT73eXLbnEBO177FF61SAixYFjzx+Tcy2cSPBkpjHq6Gdw35Z6gFyIV+NN7ThrDo+QmzxYY6h42sHDGMHhunkM4VIFgM9nEhgqVnU+H8K+npKplgMcHW4IYj335oaUbPoRay9yxcsBTfiGTBYqBPBgWLMIrUuQB8u8iC8SGFjAufa21oeWcsb2Za+esxP8FCd2eOR8X089Ut2hFk6iOl+eVf0W/FzIzH4oDHqToSzPwmmFD3RD86G8QFYkiwpGFHEXjUC//b9D0mR27hY9s1hLEjnjlWTLawLPiHmBtYBQRYsCx4kgu8eU9RZE86WoKc78LkrOjaoxIsVEvEQbVEPqQfsr2jmDjgVITS5vnxXXILi/E+LkiwCEdqUwE03r4HYTJyaPoSLViwBNG8phnBPLlCtJfEwiwsKFrXZx59modgyYyNwuMDD7ux55ggXIrXsjHsw5J9UMbp2PIIOdRONmKPRsj73Ey3SQR+asWek7QI1LWS8n5ns1FwndGL6FKXeVDcV2w8Wo8wLFjkRgTr5Js+uB8N0gsI0T40jZHHlCpZdtLVmwpgwT9a3AATKEsCLFgWPG2FN7LMm9y9Tjjfj5B4UVpM5B9YLRP2AgWLVjTHVC8JqA7qg3ZYc+FQaP19XLBgoTnJ5GLR8mdZsGDJbhBzN498C2J+giUTZl409fo8+rQQwZIeplx8T0eWVTlKKI94yJ9anx6TOR6l78BW+g6cmbsxa96frzRD3u9s1jG66LzKlp+i85J92LwFi9RE7IXNqKXEknMzBcv+SxwltOCfY26gogmwYFnw9BbZyBTREuKjlIJFfqu2U96XCUXeFwprforCml8WsjiojoTk6AahXotWzobM31WOq5OUC8Qp5wIxIliM97EUgkUglTlSUyeQW7Bgoa2anGFrBWfYDa0YjfbBqfbjoLfi5GU6osu8CM9TsCidXV+LYeQROc0dDZBCitvu74f91HA694bhPhkRLBdIKJhIMOQkQ8uOqZhFIpOHRR21Jn1/CgoW5VxK16ujYfLenzlS0pdATizOSHaMOfNKCeJepnDpT7swRpZMZGJbsxQAACAASURBVL6X5ISsnhepj6kpOqeVcqgI/6RbsMzESJStg1OVIC4zRnXKhBmyKK4li2K+7/SCf6O4ASZQGQRYsCx4HotvZJloiTmCRVHYbb0L7U+RA2RVAmHKejt4TnBqUQsc4b/lkEn6vxuc8FC+h3jUhI6oVMlYEaEk+Cc473fAepn8YU7RObrJDfeWEEJnjAgW430slWBBvnpCJRAsyrZBWYOdD/ngc5CYuBxF+HgYYYHXNmW14+LznG8pZY4f6ALLXS7U20idfEEZi9+njMXKTUoxXl19MiBYxM0yDtu9NM7dDjqkVKwzssZdpNwq+Tw5xHHJETg2aImbYoIFmeNRaVWrwncL3W/InyVJAvt2Ou4TnF2FeaVs0Fb6TsQiYYyTjjHTsdT0a6ITbdaKJ8yLB97dbvr+kRP+eAjDJ0OIXLDmRJHpFizSvMQ3Oom1D8KySpzuRc9bUeqJRgQi5Y6pphIESc50u+BfY26gsgmwYFnw/Op5S42i9546dJyl83hKRjXy9UAmsykoUVk3OX76z8gChTpkdqL9nS6YHm9E9wWKlpmlaBllP8/6sdnZjajkyIdr6Zqrimumwui4vxm9ijbNW9sx9F4PErsFp0fVpiNXP84XJWSwj3IyPn05JYoIgXN+1N7Znc4Y6nlnliJG6P/IWVdVP/Daz43Cf8dm4qgRwkxvwoGWRrQdFYRD7se0iebk0EDG4VKIeMnbTtE1RG/3r3vR9HgQMXnOhHuoDET7kRB6tin8GYz0KQ+HTDVr5XxeCKB5exuCF3JHarm3HQPHeuDSUVSwkGNoXuuBgk30F3Woe0bIQEtHUCeoQKgiNLyw4JHZU2NFfYHoGrJcdez05qx/Ui+w7ezDyKAPNkVelOTJDrh39yIi+SBnumuywLGzF0NHZKdrQPf6yjeHWvNND5RD35ViquiS4guYwCokwIJlpUx6MoGEFAJpsegJ46Sw50lK9U0/xOb1Yupv9Sc1lRBTkldZoKvJYiwM97FYgyvl7zJLoT/5eS68t4rnFJ2TRepTKolEOmRbSBlvQTpDv85P8tVGVD+eP3eJzmaW7jJ5veqZ08y1Jfy+CKUP0t9RAbYZlhot2HLOJh1+REtHjp/EBFYkARYsK3JauFNMYAUSmKHjlhvouCVFflVXqXZV0QyuK3AMK61Lco0wA86/K20I3B8msFQEWLAsFWl+DhOoAAKyU2vRKJwKGOtSDEGOHNIsEbEUHeBnMIEyIsCCpYwmi7vKBJadgFygcQs56n5UzFF32Xu7wjsgOdAnyWIVJ4uVnpPgFT4i7h4TWEwCLFgWky63zQQqkEDaN2rGBH2+VhUIoGRDknxc8vq3lOxB3BATqAgCLFgqYhp5EEyACTABJsAEKpsAC5bKnl8eXbkSSMUQPhaFdQflBjEQybMcw01dCiP4UTXclPPEzI64yzEF/EwmsCoIsGBZFdNcYJAnKWnVTylp1dYexCPtlFBM/yeZSCB1bb5wzXztSGbwomG9+vux2FfK+TcyeWDSD8zmZSmaJXYeHQw+sA7NR4VU7XEcbphHA0t4i+w4yo64SwidH8UEViEBFiwLnvQEAj+rR0dkWtVSNWwOJ1w7fWjd5YJtpb4lyzVijGbZlJPN6SicpwSTyfpaRmGcujOcLngtSQ3I6fznOLZG0GF3IzClfpAV9vtcaKJsva16rBxURXjw+Q50vRlGVM7JYrbB3uBD14F2uDcYXKxyf42uoVLx4naYABNYFQRYsCx4mrMF1/I2da0F7pfCGNpr10zwtuAuLKSBUguWZAj+hwOIbvIhsN8NdeADC5bikyVbLBz74xh7VmnzkgtiFmjD5EBrMIS+7dq2stSZDtTd15vNklxF9ZJMZPWShIuQOM/zTpwyChsJWaHkZ65qtJ2yoDUSR9/W4mPkK5gAE2ACRgmwYDFKbM71+VLL0yZwNgj/E63ol1Lk254ew8WXHAt+YkkbmK9goU5oHgnlq2+T6XT5HQktrYVFXk9Uc+bTMXTmFCvMU8GbCjXGTgfQ8XAHgpcE0HkKBSrKHJjuplINR7uy1hRqY/yoH75H+5F8bILWqd3YMpPW0dxKxMaa4auZABNgAvkIsGBZ8NooXhRv/IU61D8v1FCxrDyfhAUIFk10RQXLgoEveQNLKlgK8ssjWDJEkgg+YCffF6EwDlXz/mIUrZkaQTF0O2rh/5D+dG8fpk+3zrF+pZuh46LxSTscGw1iljO21vgw8sXhbK0sg83w5UyACTABFiwF1kDiqBeuhwcRpVo+JipQ5j8WRudWvef4xQUL2SLQfx+ZzN+nTjTQZhFWbRYZn4JRxIV+VtmoP13of9YNiyrqIvqqF/6T1Wh+pQ8tNVEEHvWi+3gM0yCfme2dGHjNpx1VMpNA6MVW+N8II0bjrF7vRudbAfjGm7Fmd4gqP7djItYD8b06idBzdKTzMfnmBNthO9oG9zMDdJ8V9fuGMPwYXSUf/axvRv8rLSTFIuj19GA0SVWIT1ExQaqU6xL8KdLtie04hf97rh/e58NIOTsw9HT6XxQfKhL4th/+l4IIT5JPEHGo296KvgN5xqQxp6lzg/A/34PgaYmJw43WAz3wbVHPp/isjn0BjKZ9QojffeTD8Uon3DlWDcCoYMntA2Dd5IXvRT/a7y3u0iwXwtO2VBQTLDSMmTD23N6IAGkWy2O0ng5JjM+0werspxrNdnTFJtC5QeeP4iTN6/52BI5G02uzmqqKe57pQteD6uPNcXTcXofeSY0ikzofxZcxASbABAoRYAvLe16s+9mgqlqvRgn4vBT1CBa6+Vgz1nmC9BxV9WVl5eW0PwFdezkpFi1c34Kh8QF4FJV0xc2TNoU3WhB6VFGxWe6fuQXDXwzArRQ6M7SZ2GkzuSBdZKKHpIQHmOC424rxs1QLOUewyGNyo+cI4CdBk6nxK1cAVlsC5DdsTU6UyXOWMnkKf5MtOurK0NTHbmc9/EJFa+FDLEzEIf1f1zrRExtFu0pIqB81/iJZsp4TLFnCPVTE8Fo6fpKacx6IY3SvJBjoWf4769D9sXSdAH2Grk1fbEFLMIqBHVkfDkOC5WwHau/pTVeXNtWIRSlTSRrHjIJBgW+kHJHkfGUao0+o/Uh0CBZqW/aBwcZOTJzvSotQuRoy7upCfLxTXzTYFD3P5kVIEPJmGouwptJrU1uUFKrmzD/DTIAJMIGFElj1gkXeINQgbc/SOf5+Pef4OgVLZkNX/NjPhOCtbsLgZfI5eCOG4YfkDVWIPLJhz3GqxfzgMK4MujPdkzeF9D9sasXwyT7RIjAZQJN9T3pzUdclkeu/oMqNw9Fh+ITryarTK0Q3nUyKbWsKFvFPpru7ED7ZCQdt9OP0Bu28izbSfEcXxY6E8giW8KNWNL5OZoGNPgyfOixZOVKIvdeBJk8I7vGL6NlSYLmf2gOrK0AWBBt8oVEclpxOU5dC6NjehND9Wb+MUMs6NL1NbLcfRuxdX8aKlXizCbaHSZxVkeibzoo+/YIlQccuVjp2oaO/EzEc3iZZdQTr1sEwbHtbJAtWvnHIaylf5V59ggXEoppYJJEVSfIYzI+MYPo1l67fDZlTjtgjORh9PYDYzla4VXpKFkVGnqGrI3wRE2ACTIAIsGDxrEHzsblroeSCBfJmY0H7B3H03A1kzP87h3DlHU9uJ+RQUWHTUVTGzQiWje0Yi/bAobCkJA/Wo/rJiMpHgUTROhJFKYr+CF7B0A7lY5J03GEliw1ZFvIJFvr3sfO5z0m3UErBMkNs1tKbPL33a0aZkDUoRVahQod0MpecY5DMUOl+Gr9gWMJkN+pu92PcRJaur4fgyTlyk6NdAPeRWQzvEhvQL1ik2jAJFw5fHYHPcBI1qoa8hqohk+hq/0hLoOkULPLckCeJ2I9sJJvtab0OtSk6xlxHx5jZ9VrsFzOz/tTWs2I38t+ZABNgAjoIrHrBgqU6EsoIluxmFPjpGuw5mbs5ZudM23KjvXlKd9FxhJWOIxJK8SFvXiayGlwhq4F6UWg63crPpsRlJ6bJUqCxkkopWOQ5WE/i6FMSRzoWbu4lsijTsbm+2Yg1D4eBPJuqbCVQbuz6BUtW8JgaejAWajeYpVYWJKUSLLKFZT6CBchY5nKsXgUmR15LhZx6Dc8t38AEmAATEAmwYCEIi+90Sw+ZcySkyN8i+66oVmVqSvDhoOOBE1cwIImGgoJFS0QUiwIqKFgKOFCWUrDIfdh2GLMnfPP4bsobfXHLRsaXQ/BxSTsMqT6S/5Bp1wiuHBGPTvQLFrr4LFlwGsiCQ0dzgh+NfRs5Or/UhZY5Tr9awyyRYJlzJCQfVQH6LSzUv6kgvI5mDE4KfaVih3d50HGwN7/zcLG1No+Z5VuYABNgAjIBFiwLXgs6fVgym4jsdJsVLJa7Pai/PU9HqurQSpErLslfoKIFy7yPEnQelRDijGCxOOBx2vJAN6HuiX50NojQDQkW4QbyDxKit/xvjyMxIz7CtmsIY0c82qHEmV6URrBkjmYUTrcZXy2jojAdXeZD2/4QYpIDs3kr+TSdJp8m9ZEXW1gW/GvCDTABJpCfAAuWBa8OfYJFrA1Dv/iZsGa5Fk2+IyHtjhkWLMWOW1aShUWxwRqbluxGX6yuTybTrgFxZFiwyJ0XkrG96YP70SA5AwPFa+2UwoeF8q3cSflWzuWGNWdEjMFSCtl5EByg/Whu6U1bj7R8hWSfrHzHbcbmlK9mAkyACeQSYMGy4BWhQ7BkQl1zoz/kKAxtR9ESCRbZyVRIJDZNicRUkR3Jl8lR9yly1NV0ul2iIyGFk2jf9MicPhafoqy1qqgokAWcgVpG8xYsUsflMOPiWWCz48gttCgTKG5JSpIAtabD0FWh+RknbrL27KWMywfyewoJEe9pB2WtjxyerxEePf6UFXUvJ8BRQsVXLF/BBJiAcQIsWIwzU91RQLCo3rBN9FYfD7VkjwXkzdNEvhfnKZpjTp4RocYLYK7J7h6GLSyUESTzxk0hrXFFSKvgu+N4YDD99l8ywVJEIGnnYZGja2gzfWIUE684sxFB6fBrL+L7xtBToEZNxkF0QytGo31wZpBRGO7LTfB+2oWxA5RETRFK7nothpFH5iZzE3yHIOVQEdDoFiwzMUTOrINTlSAu48irI1RePrqZW0co3RM0rRGiqTRyuqRiCD3fjOZfiHlotMpAZKxLQv6dfWGEn3VSrhqFDYVCwP0PetFb3Y/ZkBuRU3E4GlQJ4mSL3I4hzAZzI9tkJ3LtHDIL/qJxA0yACaxyAixYFrwAsm/FmeRa6TaVBeXy+TAowoqpQKLjfi+82+0kaBIYPz6M0PEIYhZlBtp8m6c0iDyOsEmqrGx9QEhaR+Jniwe+B2yIBQcQ/DABUwNVkj5FVXtLZWGhjLdt1nr0CypogxMeyksSj5rQEaUEeEI38+RhUfbRtNEJ951WSlIWw+gpwQ+EopXCFK3UUGCyknSccjuFBAvOrpRl10lZdq2UiSQWCWOc+qJ8689aIehogxxJvbvdsFeR8/V4iPLahBC5YM0JK9YtWCT+ceq/b7cPDtJCidO96HkrSj3Rl4wwc6yiIQiygiWblC5NJJP0TvgPM5z7wxh9VsuCQuvNY4P3mJR7x2SGbVMdHLYriBLnqJRlTwzpHxfFkeDrs8sL9x1mJM8H0f8y+bLMaOWJoQy7N1OG3SnOdLvgnxRugAkwAU0CLFgWvDCi6LZvhl/Imqr6mGqoJstOSvf+TCtcG/LZ2JMIP+OG9+VIxkFTbsYkbBYvDWFgV9Y5VH4DV+YJyTxWFiwaviCxN5vRSL4UMckJNL2xPT2E0EsJeIWNKece2b+mwObzsR+19m7EcoSO1BNl9l7hn64lR+OrlPNE+P8kntaQeNLyc0gc74CHfCQi0n6abo3Eh+fQCIYeyucgq4A+SUnidpKFQCo2Kf7FBNvOPowM+mBT5qw52QH3bnpW2ryk+JhIOO7sxdCRFsqGIn60mWswIgtLoKURbUepNIGyTSr30H4khJ5tOiogy3OoWZOHRNlaEmWZOcysFJg32OHa2QH/cy1wFHyMkPjNR+URBtNCLmfom9zwHwigM510L8+6zDcfsmWNawmpFhT/JxNgAqUiwIKlVCRL0E66+rG0GZkslhxzfQmapyakSsnCNr4o7St7KT+LwofXiynq9X4yHMgCYFEch+m9n8pIIyFYWuipRZ+duZYur7LAokNTFO9HljPltDc4BtlCtQSWilQSiSlRWhVaD5n5oDBtSx5AslNvcT+d4vT4CibABJiAFgEWLLwumMAKIyA76RrKmbKsY5CLe+bJVLysfeOHMwEmUCkEWLBUykzyOCqHgBzRYyCSaVkHf6kbm21+RLd04eJHnZmjtGXtEz+cCTCBiiPAgqXippQHVAkExJB3aNR/WnmjEyO0qNTikTjVXyrJmdrKGyT3iAkwgWUnwIJl2aeAO8AENAhQSHwiQYUZasiXyYgD0DLATE0lkKTikkX9hZahb/xIJsAEKocAC5bKmUseCRNgAkyACTCBiiXAgqVip5YHxgSYABNgAkygcgiwYKmcueSRMAEmwASYABOoWAIsWCp2anlgTIAJMAEmwAQqhwALlsqZSx4JE2ACTIAJMIGKJcCCpWKnlgfGBJgAE2ACTKByCLBgqZy55JEwASbABJgAE6hYAixYKnZqeWBMgAkwASbABCqHAAuWyplLHgkTYAJMgAkwgYolwIKlYqeWB8YEmAATYAJMoHIIsGCpnLnkkTABJsAEmAATqFgCLFgqdmp5YEyACTABJsAEKocAC5bKmUseCRNgAkyACTCBiiXAgqVip5YHxgSYABNgAkygcgiwYKmcueSRMAEmwASYABOoWAIsWCp2anlgTIAJMAEmwAQqhwALlsqZSx4JE2ACTIAJMIGKJcCCpWKnlgfGBJgAE2ACTKByCLBgqZy55JEwASbABJgAE6hYAixYKnZqeWBMgAkwASbABCqHAAuWyplLHgkTYAJMgAkwgYolwIKlYqeWB8YEmAATYAJMoHIIsGCpnLnkkTABJsAEmAATqFgCLFgqdmp5YEyACTABJsAEKocAC5bKmUseCRNgAkyACTCBiiXAgiXf1H75OereTWL8W7rg+zdi4ue3wr6SlsFXn6P+PyUR+RN1yvQ9DHnWw2NaSR3kvjABJsAEmAATKB2BihMskX+8iPp/nskSuvUmTDfVwGyU2edx1P7nrxET7rv+Bkz8P9aVJVg+/jXWjKakUV2L9n9di55bjA6yhNf/5rewnryMhCDwrrseI//2B3CVsHluai6B1NSX8H/wFQKfX0VSEK6CdjWthWvDjei55ybY1zI1JsAEmEDlEKgwwZKE9//7HIPSj7c4Tdehr2UDWo1aH5ZbsPzuC9QHpxHJJwByLCzXY/jf/ADua5ZxYeYIKBMGHv4hWpaxO5X+6CTxtpJglSWrerymH92CK42GZboBbF9hz7//DIFv6JZrrkOPZwPav2/gdr6UCTABJmCQQGUJlouTWPdf/pD+ETd9Zw1Sf5pN43D+hQ2jPzH4urncgkX5fJSBAGDBYvCrt4DLU1No/A9fIiyIWayBq+42DN91PUzfziA2OZ22ugTNNYssWL5E0xtTCKWHsQIsfAvAybcyASZQHgQqSLDMIvjLC2j+tSBS1qLrJ9+B/1fS+2e1GfEdt8BiZE5YsBihBbBgMcZrAVcnf3UJ1f8kmDboM5+1vYBnZ29lwVISjNwIE2ACugmsAMEyi8T538J15veIXiXLyLrvwv/Xt6PTavB849tpNL/1BYLCcdCNN+LijrVoO0JvgOm3UBIwP7ehU8tk/e0fEfqnz9DxcSr9fFxzDRy1f4bQn6dQP5zHh+Xy1+gd+xcEJq8imhKtOLhmDcxV34XvJzXoueN7ign4Ct63PsOg0Pb6mzH7N99TPW8N7LdVY6ihRvI5+AP870yi+3KeOZQ3KK0jowuTWPPf/iDeWFON+M9uzhVpynvWVWHswdvgSF88i9j5BNp+dRnhy7NICczIQmW/5fvoue8WuKvWFF9QBQRL+NR5NMaI0zXkHPzvboP9f8bh/R9/wPgV4d/WwFJThcBfW+g5QCL2OXwf/A4h6kfu37J9KHV70Q9i2PyRMEGA/c71mLhHMX9ffobN736FqNr5+nfklB0UnbLT99i/QffpaXR9dlXkt3Yt3JtuwsA9N871n/r2DwiemYL/4h8R/UZcP6bryPfkz6sR+AszLEWWfnT0IjZ/LPlp0TxP0zznO/wJnvhfaJ4Up89x148wVvfdnLlMjF2C9UNR/GTGfvX3CLz/Bbonv0Es/Z0Q13bHX9yKTtt3EfwHavM3eZbEd76H4f93Pdzyn69cRi+NtV9uSxjr9dfBs+VmBP5Psgopmin1vBZftHwFE2AC5URg+QWL4hgnA+4aEhg7SGDcaAAlbdbraLMWbCq2TT/AxfrvYfD4eXjjYhv2O39IG5HakeUbuuYTukYSHcrHrV0D01XavIV/UzrdKjaqfL2zbabnb71e+rPiTfSm69E683v0/07jzqobMPZzKxzX6BQsWkdGOf82V6Ql/ikG66/EjVkQNOJGRwz+4dfw/iat7OZ+riFz/3Ybem4tIloKCJbB4/9LmgfalG/9E8KfaTxrrQntP5pB7wWFw7Tcm7W0CXppE5Q28lK3pxQA4tqR5446kM/Spvh3c813Yf2SxIfGsGybbqP2SInJnytfonloCkHJQDIHeGYd5F/7ORYWYW3fcQvCf6ktdHLEjSDkm2+FLdP0VfS/G0PblPgP7vo7MPxjEtiD5Aem2T/xaNKkV7B8Fsfm419rchGeZ7LWIL79pozYKvW85ifIf2ECTKAcCSy7YMn3tmbbvJ42faWlohDeWYU4yZ6nJz/6BNUf/FG8cc6PNZDjuPidtej86Y/QdetVhN7/DZqUG+ccwfI7pH50I/p+ciPqb7qO3hK/RXTs16ijN9W0wMl5y1SazsWu2DbegtF7zTBT6LRrWApNFjYepagq5sOi+fffo+M//ga9vxefk+u7k7s5yX/L2fyqyHnXfRtZOsji8s+/Rf0//gGJ9M5ShdGW2+AsNAW6BIvYgOVHNRj9q5tgJcdh5fjTj7qlGmN/ezPsf5xC07EvEZL0leMnZB34C9E6kN3YStPeQgVLuhckslv/r9vQZ1uL2P+cxOb/LjnEXvNd9P2bH0lO39+QQLiUEQjyOrD8KYXB/zoJ769FxWO5w4r4fTfkp52iNfUfyXqodC4nYen+sRldd1fDcZ1CXH5FFqIhshClWyMR26x4EUiRY/cgOXan+09iZPcP4RrPilrLD2/GuKuarHQzGD//OVo/mEHbv5WdqYscCX37Nfb8hzgC6S+Ews/mm6/hH06ge1p8SXDdY8PInaJ/WanntdBy5b8xASZQfgQqQ7B8Sz+e8vGPcnNV/iCrf6yRu4HnWmBUlhddYc25P+Cd/3ctum4SFkSuYFG/VcboOKJWOo4AvV1PPCCFT89LsAB5jwtyHDXlyCmlwLkGrX+7EX0/kBexUgReA99PN+Lw+gILXKdgMVGYeVwRZh4aOY+mTyQLF3Ee2ylYmcTn5IzlB3Sc9rfVcza2UrS3cMFCIrlJaYW6TMLxt5JwXIOWv74DA7XUdeWcqkVgzhqmsPCWwmHhyU9+g7pTv0dMbdWhI03nj29GqF4+ivojuo99Av+0yFS5znMEPVk7ZsnaoWRR2Fm9iGBRrodbKLXAv1akFlByUBxpKQVLKea1/H6OucdMgAkUIrDsggUlOBJS/vCaN1ox/Vfy22muKMk19ytDoIUNh/KY3KpAReZsK/mwpC0M8xAs2bwoRX7YJ3+D6hO/RzL9aEU00DwFS86mqHy7V24g8iYhHG/9PflhCI+mN+yhf/dDeBQI9G9edJNOwaI+cskRJdKmmemCsk3F35QbWynaW7hgUUdxzSIwfB57PhNH4q7/MYY3kX+O8khOIcDEq5TiUWco/uUk+c18SX4zM6LfjOKjFMY5VrTMWlYKUuk4aNOa3D4K4uf/IKvNv7oJrhvVjjWF17VSiM61liruNWXFWannlX/6mQATqCwCyy9YyOFzYU63JEr+M53Df57ededYAnI2iRzhofzB1dggCkUJkVPi4AfT6Pn0CqLkOKreLHLDPIsIlnzCZL6CBV+jbTCOfilAKu2XQBuRcgPJvDnnPKPwwp7j26G+nAVLTt4Z5eYrC5YccVYQt8Ew4W9oPf73L9D6v79BMiNcyLLTSJadH9GDcqxrkiXNqrBKSsdBLYIm+ZasQ39P1iGV07ep6nvoc90GX40sXAqva/XxTv7hZsUeC5bK2lx4NEyg1ARWgGBZ4JByfoyLtaU89pinYPmKzv3fpXN/ybdC+4nKDWepBQsQOX0B9efFnctEfghX/maNIqGeQpzpFixr4LlvA4buKJDLhgVL6QQLOSAP7SRrl9Fkh5dz/X6yIjPXmpL2kbF+lXFSh9qyJUXOtU2kEFP5yXS66agznVG5RIJFcQzKgqXY7xf/nQmsbgJlL1jUERPFpjPr0Kj6wdV5JKS0VAgOoqONfwbHOuGtM98PeBHBojwSUzrrztvCQl0R0uT/A6XJF2AIbTaSYJGPnZR5O76k8gP/SQrdVoejFgNZoRYWy5/fhvhfKqJ6dEQJ5RzlSVw0LSxnKBx5QoyCWqxMtHk3fUUUneBE3Xnr79Et+Q7JVri5U/4tYr/+F3T84zSCV8S/ZvtdeF0rnemVDtOFlhULFqNfOr6eCawuAmUuWDTCMun4Q/3JcWzNODvmd0YEhfoGhj8hH4SsM6hYS0jpZ6A22+sRLHM3KqU1JBtqTCNQ+pdoZbotKGiUx0Jr4Kj+DsanxY0yd/NQ+vGoIkiMfg/K2MKSc2xITsGz5BQsfgo4XxcRlFqCJcdfSyNqzSjyuden0D30a/i/Ev+ijMChmDiNshV0kfI4KF8HNH2JiBVU8QAAD5pJREFUVD5gqlpWSqailU90mGbBUowC/50JMIF8BMpbsOQ4jSrDR1XDzdlcsn4uOUJm7XfRs/12tN9UKKw517Ru+3MrJv7yBpjIh6D3ZBwdmfwi+Y6ExH7ZN1kxupXe4n+bQN0vycIhpVh3128gfxP52EW5IVyDloZa8kf4Fok/XgOLYNEpsmHmCKEMjrm5WXKuW2fC4UbyU7jlWrrjWyS//BqBX5FT5yffQUDlkDtnQZWxYMmxSAl5Z/7mh+i57U+Fw9vnI1hU/kWWH9yEUANZ6IQw5KvfIBr/Cl2UVn+w6s8yEVFaX1zBeuG7fD06HDfCt/56WNL3pxCK/DYbjq/KXSO0o7kmVMdBggXR+/vr0X9PDTxWCtmndgO//BR7pFxF2WOmXMHvpKR0o3Vrkbz8LSWZo/WjKh/g2HQzhu4xg6K+SQf+EeMxKtz4IeVo+VE2fQFbWHijYgJMoBCBshYs2onQtIabm58kE0mUx8Ew3QLlJPFdRxk/v6T/r3TW1Ypqkh+ZdloU/iOfYKFkdGvJSVfD/0Ud7ixknw2NXMiG/MrPkPtS7MhIeSwk36uVxp0Y+IO/RbdWMjv5vhLmYSlFVE/pN7YCCQTXXQfH7DcYF5yYletgXoKF2iiSTE1AXiwPS1GHVsoJ07l9A+UUUlkbNdaE+jgoJ8xc/VW6jjIV/3x9xrcmRlFPtXIiwsy1WSdaIc+R7UxK4Qg897uZLw9LKdYJ//QzASZQWQTKWrAoz8ldWykB1eb8TqGRf7yI+n+Wsqgq850IachPfY6230op1b9DoZx31CC41YzRX0ppzb9/IyZ+fisdCYmf5CefwSukj/+ddGSUTsNeDf81SdT/ilKECpl6f0YJuubkYRHCpy2wT3wO/yffIJFJ4Z4nJTulcA/88rNs3yhFuu32Gow1VsNcrJozHV91//1v4JeFCN3rvOuHGL0rNzV7ekDkZBn5H1No/ec/5EQ9CSnU3bd/H351MjKt74CwGZ4kvxmN6tLh/3IBjRdFJ2BnHb2JK/qQ+JBSw4+JaVUtZLGKk8Uq81GWGhDKGvxUPFYodXsiA2L9X7XmZR0G3v0EHYJwVa6DIvyVKfE9f/VjDG1UQBNKO3zwL+j/zVXEpNT8Qvp7243r4NlM6+iO62EulJ5fURpCuF+OUjOZKJPwhhvRc89NUpkH9UTRkdExOjKScrJoHgfJqfQVfRPKBjh+eAMCTrl8hNzuNwiPUpmF839EQnDOFVL43/h9jO7IfldSU2RJIatRYOoqkrJQF8o+VNMLwV03ofWHpkx6/kWZ18r6vebRMIFVTaCsBUt5zBwXiSuPeVoNvZxF+L/9bzReUEaQFfctWQ1keIxMgAmsfAIsWBZ9jliwLDpifoA+Aiq/Es9fbSTLj47Clvpa56uYABNgAotKgAXLouIVGmfBsuiI+QG6CGhHy+m6lS9iAkyACSw7ARYsiz4FX2HPv/8MAcFN45rr0OPZgPbvL/pD+QFMQEVAEfIs+DP9q9spqsdoZjqGygSYABNYPgIsWJaPPT+ZCTABJsAEmAAT0EmABYtOUHwZE2ACTIAJMAEmsHwEWLAsH3t+MhNgAkyACTABJqCTAAsWnaAq/rKTe1D90wCSW3sQj7TDUgkD/tiPWns3Yhs7MXG+K5NHB0ebseaBILBjCLNBTyWMlMfABJgAE6h4AixY5j3FSQQoOVxHRGcDVV4Mxfrg0nn5kl/2VhPW7A4BG9oxEevJbu6aHUnQ2Otp7HIGMvkiqre03Y22p/xoucu85EOY88BzHai9sxcx9ZjksW4fwGyoZfn7yT1gAkyACTCBogRYsBRFlO+CBLodVqqHorcBD4Zmh7Bi3+cNCZYoOmyb0Xsp/9htT4/h4ksOvXAW5zoWLIvDlVtlAkyACSwDARYsJYU+iKY1XoRgQ/tHF9GzpaSNL25j8xIsqnHOJDF+sBn1T4WRokOl1kgcfVsXt9sFW2fBsozw+dFMgAkwgdISYMFSUp6rXLCkWcbQfWct/OcA27MTuLhfrsBUUtD6GmPBoo8TX8UEmAATKAMCLFhokhJHvXA9PIjoZcBkccJ/LIzOrfNJqrUwwZJ4P4CeA/0Ino4h7R1SZYNrZwe69rXArupO9FUv/Cer0fxKH1pqogg86kX3ceG+ati2d2LgNd+ce9LrcSaB0Iut8L8RRozGW73ejc63AvCNkyOqbh8W+UhI25I06F4D73ESLE+TYHlJp2CZjKB3fzsCR6OIUzetm9zwPtdLVYc13H+Fa59rRX96vPSpscP7FLF7xJ4ppJceq1HBQmwiB7vQ/toAolOF+ZfBd5u7yASYABOoKAIsWN7zYt3PBukIQ/lxoCs2hs4NRud6voIliaDHiuZjYi9MZjNM1wKpqaTYr/WtGBEcdunf5I8oCkgwvNGC0KPdiEqFqDMXmFsw/MUA3Ip7MDOODnsdei9IV5lIBaWEJ5jguNuK8bMxnU63hQRLBG3WevQnTPAEr2BoR3GGyWNe2D2DSIijh7kqhSSJKeFjfmQE069lXZWTbzXDtjuIpJJTkjjR+E13d2E00gmHPGZDgiWJQbeVmBIPk5n6QA+YoX4kU8aEV/Hh8hVMgAkwASYwDwKrXrAEPWtIKMwlN7/jjPkKlii673FhuCGAgX1u2GRrSoo2fztt/pcA5yvTGH0iG3kjWzHSPd/UiuGTfXCvp/8/GUCTfQ9CtOHb913ExN/ZMoOLPG5F/askC6rcOBwdhk+4PhVFrxDxc1KQAPTRFSWUR7CkYgg92Yim10n4qEOJ8y3OqX7U39yGCAkV14ExDO+VrCTJcfQ+4ELHtf3ZSJ5L3aiz+TEu+AhFJtAjW8GIU8ed9Wkh5th/EWPPSmM2Ilhk4XovhXWforBuSfSkzgUQiDWj9f4VEPU0jy8438IEmAATqBQCLFhWhGDJv5wSL9bB+tw4TA8O48qgO3NhRrBsbMdYtCdrVaArkgfrUf0kxVvf24fp060Qt9oQvOuaMJjSsnworAuGBIt2v00bWzEUIQFVU/xrEn2mFpt/QQKngfoalvuavU8wAAmGoPQIWtah6e3UHCGW/uOZNlid/Ugo+29AsKRerce6xyOw7B1D/MAyRzcVx8ZXMAEmwARWHYFVL1iwIo6ECqy7PDlDZMHiPjKL4V2q+892wHpPr/bmbaKjoit0VKR+5LyihLLHV3JzKel4BhQl1BKMYmBHIctENjTc9cYsRh4q9P2j46zb6ThrMl8ElmzdcmNgdhjp7CoGBEtG8JD1xhcaxWEt35lV9/PAA2YCTIAJrBwCLFhoLlaK0y3oGCR0kI4gTo9ifFxyKE0lRX8OVZKzgoJFa6MuJkiK/T1nzRbwYRGceh+vF4+FKE1e3/QIWvNqFrkdC9o/iKPn7kJfDFmQzBVJ4l3kbzIl+OM40BMfQ7vgq2tEsJBXTLDFjua3JU8aiwOeZ/rR+4Qzczy0cr623BMmwASYwOojwIKlpHM+Xx8WCgY+2Ii6J8MZZ1Lrhjo4bLTTfzqK4FnaRMtFsKR5hrHn5kYEKNJG7XuTi7twtFHutTJbE2wNbjjyiSBLM3oOtZCdxKhgEZ+WON4N35NdCF2Q3LDNTnSdHEVnQTFV0kXEjTEBJsAEmIAGARYsJV0W8xQs+ZxJhb7N50hIy7IgH32tJ5+XT8nnRT3uUllYpHb1hTZnM+Z63pnF0M5CkxFE85pmBI0k5TNkYcl9dupSCP6dzeg9S8LF0orReB+cJV0r3BgTYAJMgAkYIcCCxQitotfOU7DIYmHbYcye8OU+pVSCZZIibG4XImycdEwzOueYJvkyOeo+RY66hpxu8/mTZIVIYQsLKJRYzNlieWwU8UOFJIHC3+XQNEYe0xG1swDBkp6EGRJJN5BISlGY+6cU5i5EVfGHCTABJsAEloUAC5aSYp+nYJGrB2/pwsWPOsXjDOGjCNdd8JGQIgOthXKbxBW5TQQfHscDUh6UBQuWFCJPbUb9y3p8WCii6dVGVD8eJscUFw6fHxFDraVP4ngb3AftCIfE6KEYRUzVUsQUNpDFI0oWD3VuPyoNkLxMOVRkLWNAsCTPhBG/y5WbbG+G5nOtUGphhdeBKuka5saYABNgAiuTAAuWks7LPAVLku6z0sYonD5sa0fHTjvMiTB6D1D2XSk9ysIFC4kDEkbWB4LpZHTmLR74HrAhFhxA8MMETA0u2E6FETUkWDQcYC+TaEi7f5jhORLD0K5ilpAo/HdsRreQzO5aCxwN9bBR0rb4RyFEBD8SZWi2MvGdyQbnQz74HORdezmK8PEwwqfGkdimqMBsQLCkLT0n6fn3e+HdTvypzeArvQhdojGqQspLumS4MSbABJgAE9BFgAWLLkx6L8r6WXRGL6Jrk977yJhyphuu7X5EZIEibPlb2zG034Q9rm7EdgxhNpit9SwnvNMMa5Y3ao3kbbE3m9H4aBCxTGZcM5xPDyH0UgJeoXCjroRvlOjOvhn+jzXGR1li7Q0++F/qQssWneUNKHldYHcT9hwVrDLZj+Xedgwc64FLmc9lJoZASyPa6Nrc7MQkLCidv//QADobJJH0sR+1dmKnFmGyRUvhyJw82QH37l5ExCAh6UMOvjv7MDLog02ZMVj/tPKVTIAJMAEmUCICLFhKBLJUzSQTiXSaeVRZYClmnJj3QykEeFJM+2+yWGBeKZsxhXAn0qHJevqVHUM6nf96Kmcwbx6KG5MJJKSyACuKTSnGxm0wASbABMqYAAuWMp487joTYAJMgAkwgdVCgAXLaplpHicTYAJMgAkwgTImwIKljCePu84EmAATYAJMYLUQYMGyWmaax8kEmAATYAJMoIwJsGAp48njrjMBJsAEmAATWC0EWLCslpnmcTIBJsAEmAATKGMCLFjKePK460yACTABJsAEVgsBFiyrZaZ5nEyACTABJsAEypgAC5YynjzuOhNgAkyACTCB1UKABctqmWkeJxNgAkyACTCBMibAgqWMJ4+7zgSYABNgAkxgtRBgwbJaZprHyQSYABNgAkygjAmwYCnjyeOuMwEmwASYABNYLQRYsKyWmeZxMgEmwASYABMoYwIsWMp48rjrTIAJMAEmwARWCwEWLKtlpnmcTIAJMAEmwATKmAALljKePO46E2ACTIAJMIHVQoAFy2qZaR4nE2ACTIAJMIEyJsCCpYwnj7vOBJgAE2ACTGC1EGDBslpmmsfJBJgAE2ACTKCMCbBgKePJ464zASbABJgAE1gtBFiwrJaZ5nEyASbABJgAEyhjAixYynjyuOtMgAkwASbABFYLARYsq2WmeZxMgAkwASbABMqYAAuWMp487joTYAJMgAkwgdVC4P8HwLlySH+5wsgAAAAASUVORK5CYII=;" vertex="1" parent="1">
          <mxGeometry x="40" y="-144.45" width="306" height="234.45" as="geometry" />
        </mxCell>
        <mxCell id="7Mr0FkpDf2ZOhA75nSAg-38" style="edgeStyle=orthogonalEdgeStyle;rounded=0;orthogonalLoop=1;jettySize=auto;html=1;entryX=-0.017;entryY=0.397;entryDx=0;entryDy=0;entryPerimeter=0;" edge="1" parent="1" source="7Mr0FkpDf2ZOhA75nSAg-37" target="A8HuUgFNBGQ7eRud8v6M-1">
          <mxGeometry relative="1" as="geometry">
            <Array as="points">
              <mxPoint y="-27" />
              <mxPoint y="324" />
            </Array>
          </mxGeometry>
        </mxCell>
        <mxCell id="7Mr0FkpDf2ZOhA75nSAg-40" value="" style="edgeStyle=orthogonalEdgeStyle;rounded=0;orthogonalLoop=1;jettySize=auto;html=1;" edge="1" parent="1" source="7Mr0FkpDf2ZOhA75nSAg-39" target="7Mr0FkpDf2ZOhA75nSAg-37">
          <mxGeometry relative="1" as="geometry" />
        </mxCell>
        <mxCell id="7Mr0FkpDf2ZOhA75nSAg-39" value="All have CD34" style="rounded=0;whiteSpace=wrap;html=1;" vertex="1" parent="1">
          <mxGeometry x="30" y="-250" width="120" height="60" as="geometry" />
        </mxCell>
        <mxCell id="7Mr0FkpDf2ZOhA75nSAg-41" value="Monocytes - circulates" style="rounded=0;whiteSpace=wrap;html=1;" vertex="1" parent="1">
          <mxGeometry x="120" y="-340" width="120" height="60" as="geometry" />
        </mxCell>
        <mxCell id="7Mr0FkpDf2ZOhA75nSAg-43" value="macrophage is a differentiated monocyte in tissue" style="rounded=0;whiteSpace=wrap;html=1;" vertex="1" parent="1">
          <mxGeometry x="210" y="-270" width="120" height="60" as="geometry" />
        </mxCell>
        <mxCell id="7Mr0FkpDf2ZOhA75nSAg-45" value="nuetrophil - first cell to migrate into inflamed tissue&amp;nbsp;&amp;nbsp;" style="rounded=0;whiteSpace=wrap;html=1;" vertex="1" parent="1">
          <mxGeometry x="330" y="-350" width="120" height="60" as="geometry" />
        </mxCell>
        <mxCell id="7Mr0FkpDf2ZOhA75nSAg-47" value="Phagocytosis - requires recognition" style="rounded=0;whiteSpace=wrap;html=1;" vertex="1" parent="1">
          <mxGeometry x="110" y="-450" width="120" height="70" as="geometry" />
        </mxCell>
        <mxCell id="7Mr0FkpDf2ZOhA75nSAg-48" style="edgeStyle=orthogonalEdgeStyle;rounded=0;orthogonalLoop=1;jettySize=auto;html=1;entryX=0.417;entryY=0;entryDx=0;entryDy=0;entryPerimeter=0;" edge="1" parent="1" source="7Mr0FkpDf2ZOhA75nSAg-47" target="7Mr0FkpDf2ZOhA75nSAg-41">
          <mxGeometry relative="1" as="geometry" />
        </mxCell>
        <mxCell id="7Mr0FkpDf2ZOhA75nSAg-49" style="edgeStyle=orthogonalEdgeStyle;rounded=0;orthogonalLoop=1;jettySize=auto;html=1;entryX=0.657;entryY=0.036;entryDx=0;entryDy=0;entryPerimeter=0;" edge="1" parent="1" source="7Mr0FkpDf2ZOhA75nSAg-47" target="7Mr0FkpDf2ZOhA75nSAg-43">
          <mxGeometry relative="1" as="geometry">
            <Array as="points">
              <mxPoint x="170" y="-360" />
              <mxPoint x="289" y="-360" />
            </Array>
          </mxGeometry>
        </mxCell>
        <mxCell id="7Mr0FkpDf2ZOhA75nSAg-50" style="edgeStyle=orthogonalEdgeStyle;rounded=0;orthogonalLoop=1;jettySize=auto;html=1;entryX=0.581;entryY=-0.047;entryDx=0;entryDy=0;entryPerimeter=0;" edge="1" parent="1" source="7Mr0FkpDf2ZOhA75nSAg-47" target="7Mr0FkpDf2ZOhA75nSAg-45">
          <mxGeometry relative="1" as="geometry" />
        </mxCell>
        <mxCell id="7Mr0FkpDf2ZOhA75nSAg-52" style="edgeStyle=orthogonalEdgeStyle;rounded=0;orthogonalLoop=1;jettySize=auto;html=1;" edge="1" parent="1" source="7Mr0FkpDf2ZOhA75nSAg-51">
          <mxGeometry relative="1" as="geometry">
            <mxPoint x="350" y="-100" as="targetPoint" />
            <Array as="points">
              <mxPoint x="500" y="-140" />
              <mxPoint x="351" y="-140" />
            </Array>
          </mxGeometry>
        </mxCell>
        <mxCell id="7Mr0FkpDf2ZOhA75nSAg-51" value="granualocytes" style="rounded=0;whiteSpace=wrap;html=1;" vertex="1" parent="1">
          <mxGeometry x="440" y="-220" width="120" height="60" as="geometry" />
        </mxCell>
        <mxCell id="7Mr0FkpDf2ZOhA75nSAg-53" value="Eosinophils" style="rounded=0;whiteSpace=wrap;html=1;" vertex="1" parent="1">
          <mxGeometry x="470" y="-370" width="120" height="60" as="geometry" />
        </mxCell>
        <mxCell id="7Mr0FkpDf2ZOhA75nSAg-54" style="edgeStyle=orthogonalEdgeStyle;rounded=0;orthogonalLoop=1;jettySize=auto;html=1;entryX=0.449;entryY=0.05;entryDx=0;entryDy=0;entryPerimeter=0;" edge="1" parent="1" source="7Mr0FkpDf2ZOhA75nSAg-53" target="7Mr0FkpDf2ZOhA75nSAg-51">
          <mxGeometry relative="1" as="geometry" />
        </mxCell>
        <mxCell id="7Mr0FkpDf2ZOhA75nSAg-57" style="edgeStyle=orthogonalEdgeStyle;rounded=0;orthogonalLoop=1;jettySize=auto;html=1;entryX=0.5;entryY=0;entryDx=0;entryDy=0;" edge="1" parent="1" source="7Mr0FkpDf2ZOhA75nSAg-55" target="7Mr0FkpDf2ZOhA75nSAg-51">
          <mxGeometry relative="1" as="geometry" />
        </mxCell>
        <mxCell id="7Mr0FkpDf2ZOhA75nSAg-55" value="Basophils" style="rounded=0;whiteSpace=wrap;html=1;" vertex="1" parent="1">
          <mxGeometry x="570" y="-290" width="120" height="60" as="geometry" />
        </mxCell>
        <mxCell id="7Mr0FkpDf2ZOhA75nSAg-58" value="mast cells" style="rounded=0;whiteSpace=wrap;html=1;" vertex="1" parent="1">
          <mxGeometry x="620" y="-220" width="120" height="60" as="geometry" />
        </mxCell>
        <mxCell id="7Mr0FkpDf2ZOhA75nSAg-59" style="edgeStyle=orthogonalEdgeStyle;rounded=0;orthogonalLoop=1;jettySize=auto;html=1;entryX=0.983;entryY=0.633;entryDx=0;entryDy=0;entryPerimeter=0;" edge="1" parent="1" source="7Mr0FkpDf2ZOhA75nSAg-58" target="7Mr0FkpDf2ZOhA75nSAg-51">
          <mxGeometry relative="1" as="geometry" />
        </mxCell>
      </root>
    </mxGraphModel>
  </diagram>
</mxfile>
